<?xml version="1.0" encoding="UTF-8" standalone="no"?>
<!-- Created with Inkscape (http://www.inkscape.org/) -->

<svg
   width="68.000229mm"
   height="104.0001mm"
   viewBox="0 0 68.000229 104.0001"
   version="1.1"
   id="svg1"
   xml:space="preserve"
   inkscape:version="1.4 (86a8ad7, 2024-10-11)"
   sodipodi:docname="Army.svg"
   inkscape:export-batch-path="F:\Training Data\Starsector\CY_Milkydromeda\Ensignia"
   inkscape:export-batch-name="UAF Army "
   xmlns:inkscape="http://www.inkscape.org/namespaces/inkscape"
   xmlns:sodipodi="http://sodipodi.sourceforge.net/DTD/sodipodi-0.dtd"
   xmlns:xlink="http://www.w3.org/1999/xlink"
   xmlns="http://www.w3.org/2000/svg"
   xmlns:svg="http://www.w3.org/2000/svg"><sodipodi:namedview
     id="namedview1"
     pagecolor="#505050"
     bordercolor="#ffffff"
     borderopacity="1"
     inkscape:showpageshadow="0"
     inkscape:pageopacity="0"
     inkscape:pagecheckerboard="1"
     inkscape:deskcolor="#505050"
     inkscape:document-units="mm"
     inkscape:zoom="0.70710678"
     inkscape:cx="-171.11984"
     inkscape:cy="236.17366"
     inkscape:window-width="1278"
     inkscape:window-height="1368"
     inkscape:window-x="-7"
     inkscape:window-y="0"
     inkscape:window-maximized="0"
     inkscape:current-layer="layer1-1-4-0-9" /><defs
     id="defs1"><linearGradient
       id="linearGradient19"
       inkscape:collect="always"><stop
         style="stop-color:#d4d4d4;stop-opacity:1;"
         offset="0.13605441"
         id="stop19" /><stop
         style="stop-color:#ffffff;stop-opacity:1;"
         offset="0.20578229"
         id="stop22" /><stop
         style="stop-color:#c5c5c5;stop-opacity:1;"
         offset="0.337585"
         id="stop24" /><stop
         style="stop-color:#c3c3c3;stop-opacity:1;"
         offset="0.61564624"
         id="stop21" /><stop
         style="stop-color:#ffffff;stop-opacity:1;"
         offset="0.70748293"
         id="stop23" /><stop
         style="stop-color:#d4d4d4;stop-opacity:1;"
         offset="0.82993191"
         id="stop20" /></linearGradient><linearGradient
       id="linearGradient11"
       inkscape:swatch="gradient"><stop
         style="stop-color:#b5b5b5;stop-opacity:1;"
         offset="0"
         id="stop12" /><stop
         style="stop-color:#b5b5b5;stop-opacity:0;"
         offset="1"
         id="stop13" /></linearGradient><linearGradient
       id="swatch6"
       inkscape:swatch="solid"><stop
         style="stop-color:#b5b5b5;stop-opacity:1;"
         offset="0"
         id="stop7" /></linearGradient><linearGradient
       inkscape:collect="always"
       xlink:href="#linearGradient19"
       id="linearGradient20"
       x1="-33.999992"
       y1="4.7206879e-05"
       x2="34.000217"
       y2="4.7206879e-05"
       gradientUnits="userSpaceOnUse" /></defs><g
     inkscape:label="22 Ceremonial Queen of Yuria"
     inkscape:groupmode="layer"
     id="layer1-18-3-8-4-0-6-2-2-6-2-5-5"
     style="display:inline"
     transform="translate(61.440095,233.17004)"
     sodipodi:insensitive="true"><rect
       style="display:inline;fill:#232532;fill-opacity:1;stroke:#b5b5b5;stroke-width:0.225627;stroke-opacity:1"
       id="rect122"
       width="63.774372"
       height="99.774376"
       x="-31.887186"
       y="-49.887188"
       inkscape:label="Base"
       sodipodi:insensitive="true"
       transform="translate(-27.440095,-181.17004)" /><path
       style="display:inline;fill:#d4d4d4;fill-opacity:1;stroke:#d4d4d4;stroke-width:0.42106;stroke-linejoin:round;stroke-miterlimit:4;stroke-dasharray:none;stroke-dashoffset:0;stroke-opacity:1"
       d="m -27.245376,-217.13444 1.978668,-3.42243 -1.978668,-3.60486 -1.978668,3.627 z"
       id="path40-8-5-5-3-5-5-1-8-2"
       sodipodi:nodetypes="ccccc" /><path
       style="display:inline;fill:#d4d4d4;fill-opacity:1;stroke:#d4d4d4;stroke-width:0.417382;stroke-linejoin:round;stroke-miterlimit:4;stroke-dasharray:none;stroke-dashoffset:0;stroke-opacity:1"
       d="m -27.245376,-209.68254 1.980506,-3.35979 -1.980506,-3.53888 -1.980506,3.56062 z"
       id="path43-1-2-8-5-8-4-1-0"
       sodipodi:nodetypes="ccccc" /><path
       style="display:inline;fill:#d4d4d4;fill-opacity:1;stroke:#d4d4d4;stroke-width:0.378393;stroke-linejoin:round;stroke-miterlimit:4;stroke-dasharray:none;stroke-dashoffset:0;stroke-opacity:1"
       d="m -26.245376,-216.8569 3,-0.0112 3,-2.70159 -3.980222,-0.0355 z"
       id="path44-2-4-9-9-5-2-5-7"
       sodipodi:nodetypes="ccccc" /><path
       style="display:inline;fill:#d4d4d4;fill-opacity:1;stroke:#d4d4d4;stroke-width:0.378393;stroke-linejoin:round;stroke-miterlimit:4;stroke-dasharray:none;stroke-dashoffset:0;stroke-opacity:1"
       d="m -34.245376,-219.56968 3,2.70157 3,0.0112 -2.107372,-2.74835 z"
       id="path45-4-6-5-1-4-9-7-2"
       sodipodi:nodetypes="ccccc" /><path
       style="display:inline;fill:none;fill-opacity:1;stroke:#d4d4d4;stroke-width:0.5;stroke-linejoin:round;stroke-miterlimit:4;stroke-dasharray:none;stroke-dashoffset:0;stroke-opacity:1"
       d="m -36.38364,-221.28771 2.204873,1.43872 3.935443,0.38541 -3.042815,-3.30962 -1.990452,-1.10194 -2.364629,-0.54068 z"
       id="path45-4-6-5-2-2-4-1-4-9"
       sodipodi:nodetypes="ccccccc" /><path
       style="display:inline;fill:none;fill-opacity:1;stroke:#d4d4d4;stroke-width:0.5;stroke-linejoin:round;stroke-miterlimit:4;stroke-dasharray:none;stroke-dashoffset:0;stroke-opacity:1"
       d="m -18.170849,-221.28771 -2.298417,1.43872 -3.841899,0.38541 3.042815,-3.30962 1.990452,-1.10194 2.364629,-0.54068 z"
       id="path53-5-1-5-4-7"
       sodipodi:nodetypes="ccccccc" /><path
       style="display:inline;fill:none;fill-opacity:1;stroke:#d4d4d4;stroke-width:0.42074;stroke-linejoin:round;stroke-miterlimit:4;stroke-dasharray:none;stroke-dashoffset:0;stroke-opacity:1"
       d="m -20.915588,-214.3566 -1.107557,-1.48617 -2.327649,-0.5211 0.395787,1.60424 1.20263,1.43891 2.698227,0.45497 z"
       id="path54-0-6-0-4-5"
       sodipodi:nodetypes="ccccccc" /><path
       style="display:inline;fill:none;fill-opacity:1;stroke:#d4d4d4;stroke-width:0.42074;stroke-linejoin:round;stroke-miterlimit:4;stroke-dasharray:none;stroke-dashoffset:0;stroke-opacity:1"
       d="m -33.6857,-214.3566 1.107557,-1.48617 2.327649,-0.5211 -0.395787,1.60424 -1.20263,1.43891 -2.698227,0.45497 z"
       id="path55-8-1-3-4-3"
       sodipodi:nodetypes="ccccccc" /><path
       style="display:inline;fill:#91b4dd;fill-opacity:1;stroke:#91b4dd;stroke-width:0.378393;stroke-linejoin:round;stroke-miterlimit:4;stroke-dasharray:none;stroke-dashoffset:0;stroke-opacity:1"
       d="m -21.05169,-216.8569 3.699607,-0.0112 3,-2.70159 -3.980222,-0.0355 z"
       id="path56-3-6-6-4-4"
       sodipodi:nodetypes="ccccc" /><path
       style="display:inline;fill:#91b4dd;fill-opacity:1;stroke:#91b4dd;stroke-width:0.378393;stroke-linejoin:round;stroke-miterlimit:4;stroke-dasharray:none;stroke-dashoffset:0;stroke-opacity:1"
       d="m -39.998353,-219.56968 3,2.70157 3.699663,0.0112 -2.807035,-2.74835 z"
       id="path57-9-3-4-2-3"
       sodipodi:nodetypes="ccccc" /><path
       style="display:inline;fill:none;fill-opacity:1;stroke:#d4d4d4;stroke-width:0.378393;stroke-linejoin:round;stroke-miterlimit:4;stroke-dasharray:none;stroke-dashoffset:0;stroke-opacity:1"
       d="m -24.125573,-221.24658 1.731047,-1.7688 0.202642,-3.79877 -2.281172,3.32125 z"
       id="path63-9-8-4-8-5"
       sodipodi:nodetypes="ccccc" /><path
       style="display:inline;fill:none;fill-opacity:1;stroke:#d4d4d4;stroke-width:0.378393;stroke-linejoin:round;stroke-miterlimit:4;stroke-dasharray:none;stroke-dashoffset:0;stroke-opacity:1"
       d="m -30.410724,-221.24658 -1.731047,-1.7688 -0.202642,-3.79877 2.281172,3.32125 z"
       id="path64-3-2-0-7-3"
       sodipodi:nodetypes="ccccc" /><path
       style="display:inline;fill:none;fill-opacity:1;stroke:#d4d4d4;stroke-width:1.13417;stroke-linecap:round;stroke-linejoin:round;stroke-miterlimit:4;stroke-dasharray:none;stroke-dashoffset:0;stroke-opacity:1"
       d="m -27.316773,-196.68244 1.318071,2.40402 0.80134,2.25137 -0.190796,1.679 2.785607,-1.71715 2.861925,-0.61054 3.167197,0.19079 0.572385,0.76318 -0.305273,1.22109 2.518493,0.0763 0.343432,1.03031 -0.72502,4.61722 1.45004,0.53424 0.381591,0.91581 0.152635,0.8395 3.0527194,1.75532 v 0.99213 l -1.2210874,1.52636 2.5184942,1.75531 0.1526353,1.2974 -1.9842671,3.58696 -0.4579074,0.4579 -3.357992,2.21322 0.152636,0.99214 -0.381589,0.91582 -0.763181,0.30526 1.831631,2.06059 -0.152635,0.99213 -1.907949,0.83951 v 0.4579 l 1.831631,1.65991 0.133556,1.01122 -1.946108,1.56452 -0.686862,0.24803 -3.109958,0.20988 -0.457908,-0.0763 -1.831632,-0.62963 -0.419749,-0.28619 -1.878448,-1.84873 -2.833161,-1.45705 -0.269825,-0.59362 -1.190602,0.34065"
       id="path90"
       sodipodi:nodetypes="cccccccccccccccccccccccccccccccccccccccccc" /><path
       style="display:inline;fill:none;fill-opacity:1;stroke:#d4d4d4;stroke-width:1.13417;stroke-linecap:round;stroke-linejoin:round;stroke-miterlimit:4;stroke-dasharray:none;stroke-dashoffset:0;stroke-opacity:1"
       d="m -27.315518,-196.68244 -1.275912,2.40402 -0.801339,2.25137 0.190795,1.679 -2.785607,-1.71715 -2.861925,-0.61054 -3.167196,0.19079 -0.572385,0.76318 0.305272,1.22109 -2.518493,0.0763 -0.343432,1.03031 0.725021,4.61722 -1.450041,0.53424 -0.381591,0.91581 -0.152635,0.8395 -3.05272,1.75532 v 0.99213 l 1.221088,1.52636 -2.518494,1.75531 -0.152636,1.2974 1.984267,3.58696 0.457908,0.4579 3.357992,2.21322 -0.152636,0.99214 0.38159,0.91582 0.76318,0.30526 -1.831631,2.06059 0.152635,0.99213 1.90795,0.83951 v 0.4579 l -1.831632,1.65991 -0.133556,1.01122 1.946109,1.56452 0.686861,0.24803 3.109959,0.20988 0.457908,-0.0763 1.831632,-0.62963 0.419748,-0.28619 1.878448,-1.84873 2.833161,-1.45705 0.269825,-0.59362 1.062436,0.33728"
       id="path89"
       sodipodi:nodetypes="cccccccccccccccccccccccccccccccccccccccccc" /><path
       style="display:inline;fill:#ec9752;fill-opacity:1;stroke:#ec9752;stroke-width:0.378393;stroke-linejoin:round;stroke-miterlimit:4;stroke-dasharray:none;stroke-dashoffset:0;stroke-opacity:1"
       d="m 3.3504826,-219.60519 -14.8801306,0.0112 -3,2.70159 17.8247835,0.0355 z"
       id="path73-2"
       sodipodi:nodetypes="ccccc" /><path
       style="display:inline;fill:#ec9752;fill-opacity:1;stroke:#ec9752;stroke-width:0.378393;stroke-linejoin:round;stroke-miterlimit:4;stroke-dasharray:none;stroke-dashoffset:0;stroke-opacity:1"
       d="m -57.617954,-219.60519 14.880131,0.0112 3,2.70159 -17.824784,0.0355 z"
       id="path74-2"
       sodipodi:nodetypes="ccccc" /><path
       style="display:inline;fill:#900a99;fill-opacity:1;stroke:#900a99;stroke-width:0.716683;stroke-linejoin:round;stroke-miterlimit:4;stroke-dasharray:none;stroke-dashoffset:0;stroke-opacity:1"
       d="m -27.223385,-169.68895 3.400712,-5.76907 -3.400712,-6.07659 -3.400712,6.11392 z"
       id="path80"
       sodipodi:nodetypes="ccccc" /><path
       style="display:inline;fill:none;fill-opacity:1;stroke:#d4d4d4;stroke-width:1.19424;stroke-linejoin:round;stroke-miterlimit:4;stroke-dasharray:none;stroke-dashoffset:0;stroke-opacity:1"
       d="m -27.230606,-165.80655 5.666768,-9.61327 -5.666768,-10.1257 -5.66677,10.18789 z"
       id="path81"
       sodipodi:nodetypes="ccccc" /><path
       style="fill:#e4527e;fill-opacity:1;stroke:#e4527e;stroke-width:1.13417;stroke-linejoin:round;stroke-miterlimit:4;stroke-dasharray:none;stroke-dashoffset:0;stroke-opacity:1"
       d="m -32.637874,-180.02118 -2.693483,4.58674 2.272611,4.01326 -7.508528,1.66048 -3.447405,-2.27103 -1.921043,-3.79738 2.918601,-2.15542 -1.418429,-2.14776 2.397469,-1.31049 2.989495,-0.27591 2.51466,1.56948 z"
       id="path82"
       sodipodi:nodetypes="cccccccccccc" /><path
       style="fill:#e4527e;fill-opacity:1;stroke:#e4527e;stroke-width:1.13417;stroke-linejoin:round;stroke-miterlimit:4;stroke-dasharray:none;stroke-dashoffset:0;stroke-opacity:1"
       d="m -31.28201,-182.36945 -5.230766,-0.86343 -3.135392,-1.96782 -0.318367,-2.27512 -0.272536,-2.0387 2.862855,-0.012 -0.267113,-1.93078 2.719943,-0.22894 2.697126,0.50466 2.34397,1.43696 0.582301,3.95954 z"
       id="path83"
       sodipodi:nodetypes="cccccccccccc" /><path
       style="fill:#e4527e;fill-opacity:1;stroke:#e4527e;stroke-width:1.13417;stroke-linejoin:round;stroke-miterlimit:4;stroke-dasharray:none;stroke-dashoffset:0;stroke-opacity:1"
       d="m -31.873105,-169.39876 c 0.514494,0.56127 2.152929,3.91686 2.480334,4.19749 0.04677,0.51449 0,2.36585 0,2.36585 l -2.747448,1.39282 -2.060585,2.15598 -1.90795,0.68686 -3.205355,-0.1908 -1.717155,-1.29741 2.175063,-1.69807 -0.152636,-1.65991 -1.984268,-0.76318 1.411882,-1.45004 1.297407,-1.75533 2.25138,-1.06845 2.327699,-0.83949 c 0,0 1.223594,-0.16986 1.831632,-0.0763 z"
       id="path84"
       sodipodi:nodetypes="cccccccccccccccc" /><path
       style="fill:#e4527e;fill-opacity:1;stroke:#e4527e;stroke-width:1.13417;stroke-linejoin:round;stroke-miterlimit:4;stroke-dasharray:none;stroke-dashoffset:0;stroke-opacity:1"
       d="m -21.8925,-180.02118 2.693483,4.58674 -2.272611,4.01326 7.508528,1.66048 3.447404,-2.27103 1.9210432,-3.79738 -2.9186012,-2.15542 1.41843,-2.14776 -2.39747,-1.31049 -2.989495,-0.27591 -2.514659,1.56948 z"
       id="path85"
       sodipodi:nodetypes="cccccccccccc" /><path
       style="fill:#e4527e;fill-opacity:1;stroke:#e4527e;stroke-width:1.13417;stroke-linejoin:round;stroke-miterlimit:4;stroke-dasharray:none;stroke-dashoffset:0;stroke-opacity:1"
       d="m -23.216753,-182.36945 5.230767,-0.86343 3.135391,-1.96782 0.318367,-2.27512 0.272536,-2.0387 -2.862854,-0.012 0.267112,-1.93078 -2.719943,-0.22894 -2.697126,0.50466 -2.34397,1.43696 -0.582301,3.95954 z"
       id="path86"
       sodipodi:nodetypes="cccccccccccc" /><path
       style="fill:#e4527e;fill-opacity:1;stroke:#e4527e;stroke-width:1.13417;stroke-linejoin:round;stroke-miterlimit:4;stroke-dasharray:none;stroke-dashoffset:0;stroke-opacity:1"
       d="m -22.625658,-169.39876 c -0.514494,0.46772 -2.152929,3.82331 -2.480334,4.19749 -0.09354,0.42095 0,2.36585 0,2.36585 l 2.747448,1.39282 2.060585,2.15598 1.90795,0.68686 3.205356,-0.1908 1.717154,-1.29741 -2.175062,-1.69807 0.152635,-1.65991 1.984268,-0.76318 -1.411882,-1.45004 -1.297407,-1.75533 -2.25138,-1.06845 -2.327699,-0.83949 c 0,0 -1.36391,-0.21664 -1.831632,-0.0763 z"
       id="path87"
       sodipodi:nodetypes="cccccccccccccccc" /><path
       style="fill:#e4527e;fill-opacity:1;stroke:#e4527e;stroke-width:1.13417;stroke-linejoin:round;stroke-miterlimit:4;stroke-dasharray:none;stroke-dashoffset:0;stroke-opacity:1"
       d="m -28.192681,-191.18235 0.09732,0.9232 1.621757,0.019 0.108767,-0.95238 0.04387,-0.78876 -1.942557,0.0156 z"
       id="path88"
       sodipodi:nodetypes="ccccccc" /><path
       style="display:inline;fill:#d4d4d4;fill-opacity:1;stroke:#d4d4d4;stroke-width:0.539067;stroke-linejoin:round;stroke-miterlimit:4;stroke-dasharray:none;stroke-dashoffset:0;stroke-opacity:1"
       d="m -53.231699,-198.43935 c -0.725337,2.72292 0.426102,7.17379 1.545932,8.32398 1.54998,1.28826 5.308491,1.96606 6.991771,1.73689 0.970451,-1.43514 2.07867,-3.71745 0.479529,-5.04012 -2.112208,-1.99136 -7.295059,-5.54539 -9.017237,-5.02075 z"
       id="path91"
       sodipodi:nodetypes="cccccc" /><path
       style="display:inline;fill:#d4d4d4;fill-opacity:1;stroke:#d4d4d4;stroke-width:0.287426;stroke-linejoin:round;stroke-miterlimit:4;stroke-dasharray:none;stroke-dashoffset:0;stroke-opacity:1"
       d="m -47.973654,-186.12277 c 1.662567,-0.33771 4.811905,-0.12538 5.514188,0.39602 0.786589,0.72168 1.200437,2.47168 1.06051,3.25543 -0.87627,0.45185 -2.269806,0.96784 -3.0774,0.22327 -1.485717,-0.65967 -3.224018,-2.2094 -3.497298,-3.87472 z"
       id="path92"
       sodipodi:nodetypes="ccccc" /><path
       style="display:inline;fill:#d4d4d4;fill-opacity:1;stroke:#d4d4d4;stroke-width:0.287426;stroke-linejoin:round;stroke-miterlimit:4;stroke-dasharray:none;stroke-dashoffset:0;stroke-opacity:1"
       d="m -40.20535,-168.0529 c -1.540865,-0.70986 -3.30588,-0.84742 -4.64864,-0.77075 -0.931087,0.52213 -1.735105,1.1593 -2.264265,2.00822 0.749345,0.6407 2.203333,1.24656 3.322007,1.30056 1.597379,-0.51737 2.673295,-1.3035 3.590898,-2.53803 z"
       id="path93"
       sodipodi:nodetypes="ccccc" /><path
       style="display:inline;fill:#d4d4d4;fill-opacity:1;stroke:#d4d4d4;stroke-width:0.440159;stroke-linejoin:round;stroke-miterlimit:4;stroke-dasharray:none;stroke-dashoffset:0;stroke-opacity:1"
       d="m -50.617152,-159.21621 c 0.399882,-1.76541 1.187417,-2.19428 2.101779,-3.13344 1.265591,-1.05189 2.731811,-1.37637 4.106243,-1.18925 0.792392,1.17182 0.857777,4.18015 -0.447953,5.26013 -2.10625,0.78648 -2.90384,0.6357 -4.310032,0.20733 -0.686862,-0.22896 -0.763175,-0.22896 -1.450037,-1.14477 z"
       id="path94"
       sodipodi:nodetypes="cccccc" /><path
       style="fill:#d4d4d4;fill-opacity:1;stroke:#d4d4d4;stroke-width:1.1784;stroke-linecap:round;stroke-linejoin:round;stroke-miterlimit:4;stroke-dasharray:none;stroke-dashoffset:0;stroke-opacity:1"
       d="m -57.819257,-193.13959 c 0,0 5.587759,4.95271 7.381975,6.52265 -1.233524,1.68208 -7.494113,5.13977 -7.494113,5.13977 z"
       id="path95"
       sodipodi:nodetypes="cccc" /><path
       style="display:inline;fill:#d4d4d4;fill-opacity:1;stroke:#d4d4d4;stroke-width:1.1784;stroke-linecap:round;stroke-linejoin:round;stroke-miterlimit:4;stroke-dasharray:none;stroke-dashoffset:0;stroke-opacity:1"
       d="m -58.619907,-170.91602 c 0,0 8.581177,3.26891 10.281849,6.05492 -2.917322,1.02727 -4.126517,2.89471 -9.739177,6.07522 z"
       id="path95-0"
       sodipodi:nodetypes="cccc" /><path
       style="display:inline;fill:#d4d4d4;fill-opacity:1;stroke:#d4d4d4;stroke-width:0.539067;stroke-linejoin:round;stroke-miterlimit:4;stroke-dasharray:none;stroke-dashoffset:0;stroke-opacity:1"
       d="m -1.2979453,-198.43935 c 0.72533696,2.72292 -0.426102,7.17379 -1.545932,8.32398 -1.54998,1.28826 -5.308491,1.96606 -6.991771,1.73689 -0.9704507,-1.43514 -2.0786697,-3.71745 -0.4795287,-5.04012 2.1122077,-1.99136 7.2950587,-5.54539 9.0172367,-5.02075 z"
       id="path96"
       sodipodi:nodetypes="cccccc" /><path
       style="display:inline;fill:#d4d4d4;fill-opacity:1;stroke:#d4d4d4;stroke-width:0.287426;stroke-linejoin:round;stroke-miterlimit:4;stroke-dasharray:none;stroke-dashoffset:0;stroke-opacity:1"
       d="m -6.5559903,-186.12277 c -1.662567,-0.33771 -4.8119047,-0.12538 -5.5141877,0.39602 -0.786589,0.72168 -1.200437,2.47168 -1.06051,3.25543 0.87627,0.45185 2.269806,0.96784 3.0774,0.22327 1.4857167,-0.65967 3.2240177,-2.2094 3.4972977,-3.87472 z"
       id="path97"
       sodipodi:nodetypes="ccccc" /><path
       style="display:inline;fill:#d4d4d4;fill-opacity:1;stroke:#d4d4d4;stroke-width:0.287426;stroke-linejoin:round;stroke-miterlimit:4;stroke-dasharray:none;stroke-dashoffset:0;stroke-opacity:1"
       d="m -14.324294,-168.0529 c 1.540865,-0.70986 3.30588,-0.84742 4.6486397,-0.77075 0.931087,0.52213 1.735105,1.1593 2.264265,2.00822 -0.749345,0.6407 -2.203333,1.24656 -3.3220067,1.30056 -1.597379,-0.51737 -2.673295,-1.3035 -3.590898,-2.53803 z"
       id="path98"
       sodipodi:nodetypes="ccccc" /><path
       style="display:inline;fill:#d4d4d4;fill-opacity:1;stroke:#d4d4d4;stroke-width:0.440159;stroke-linejoin:round;stroke-miterlimit:4;stroke-dasharray:none;stroke-dashoffset:0;stroke-opacity:1"
       d="m -3.9124923,-159.21621 c -0.399882,-1.76541 -1.187417,-2.19428 -2.101779,-3.13344 -1.265591,-1.05189 -2.731811,-1.37637 -4.1062427,-1.18925 -0.792392,1.17182 -0.857777,4.18015 0.4479527,5.26013 2.10625,0.78648 2.90384,0.6357 4.310032,0.20733 0.686862,-0.22896 0.763175,-0.22896 1.450037,-1.14477 z"
       id="path99"
       sodipodi:nodetypes="cccccc" /><path
       style="fill:#d4d4d4;fill-opacity:1;stroke:#d4d4d4;stroke-width:1.1784;stroke-linecap:round;stroke-linejoin:round;stroke-miterlimit:4;stroke-dasharray:none;stroke-dashoffset:0;stroke-opacity:1"
       d="m 3.2896127,-193.13959 c 0,0 -5.587759,4.95271 -7.381975,6.52265 1.233524,1.68208 7.494113,5.13977 7.494113,5.13977 z"
       id="path100"
       sodipodi:nodetypes="cccc" /><path
       style="display:inline;fill:#d4d4d4;fill-opacity:1;stroke:#d4d4d4;stroke-width:1.1784;stroke-linecap:round;stroke-linejoin:round;stroke-miterlimit:4;stroke-dasharray:none;stroke-dashoffset:0;stroke-opacity:1"
       d="m 4.0902627,-170.91602 c 0,0 -8.581177,3.26891 -10.281849,6.05492 2.917322,1.02727 4.126517,2.89471 9.739177,6.07522 z"
       id="path101"
       sodipodi:nodetypes="cccc" /><path
       id="path122"
       style="display:inline;fill:none;stroke:url(#linearGradient20);stroke-width:4;stroke-linejoin:miter;stroke-miterlimit:4;stroke-dasharray:none;stroke-dashoffset:0"
       inkscape:label="Border"
       d="M -32,-50 V 50.0001 H 32.000228 V -50 Z"
       sodipodi:insensitive="true"
       transform="translate(-27.440095,-181.17004)" /></g></svg>
