<?xml version="1.0" encoding="UTF-8" standalone="no"?>
<!-- Created with Inkscape (http://www.inkscape.org/) -->

<svg
   width="68.000229mm"
   height="104.0001mm"
   viewBox="0 0 68.000229 104.0001"
   version="1.1"
   id="svg1"
   xml:space="preserve"
   inkscape:version="1.4 (86a8ad7, 2024-10-11)"
   sodipodi:docname="Army.svg"
   inkscape:export-batch-path="F:\Training Data\Starsector\CY_Milkydromeda\Ensignia"
   inkscape:export-batch-name="UAF Army "
   xmlns:inkscape="http://www.inkscape.org/namespaces/inkscape"
   xmlns:sodipodi="http://sodipodi.sourceforge.net/DTD/sodipodi-0.dtd"
   xmlns:xlink="http://www.w3.org/1999/xlink"
   xmlns="http://www.w3.org/2000/svg"
   xmlns:svg="http://www.w3.org/2000/svg"><sodipodi:namedview
     id="namedview1"
     pagecolor="#505050"
     bordercolor="#ffffff"
     borderopacity="1"
     inkscape:showpageshadow="0"
     inkscape:pageopacity="0"
     inkscape:pagecheckerboard="1"
     inkscape:deskcolor="#505050"
     inkscape:document-units="mm"
     inkscape:zoom="0.70710678"
     inkscape:cx="-171.11984"
     inkscape:cy="236.17366"
     inkscape:window-width="1278"
     inkscape:window-height="1368"
     inkscape:window-x="-7"
     inkscape:window-y="0"
     inkscape:window-maximized="0"
     inkscape:current-layer="layer1-1-4-0-9" /><defs
     id="defs1"><linearGradient
       id="linearGradient19"
       inkscape:collect="always"><stop
         style="stop-color:#d4d4d4;stop-opacity:1;"
         offset="0.13605441"
         id="stop19" /><stop
         style="stop-color:#ffffff;stop-opacity:1;"
         offset="0.20578229"
         id="stop22" /><stop
         style="stop-color:#c5c5c5;stop-opacity:1;"
         offset="0.337585"
         id="stop24" /><stop
         style="stop-color:#c3c3c3;stop-opacity:1;"
         offset="0.61564624"
         id="stop21" /><stop
         style="stop-color:#ffffff;stop-opacity:1;"
         offset="0.70748293"
         id="stop23" /><stop
         style="stop-color:#d4d4d4;stop-opacity:1;"
         offset="0.82993191"
         id="stop20" /></linearGradient><linearGradient
       id="linearGradient11"
       inkscape:swatch="gradient"><stop
         style="stop-color:#b5b5b5;stop-opacity:1;"
         offset="0"
         id="stop12" /><stop
         style="stop-color:#b5b5b5;stop-opacity:0;"
         offset="1"
         id="stop13" /></linearGradient><linearGradient
       id="swatch6"
       inkscape:swatch="solid"><stop
         style="stop-color:#b5b5b5;stop-opacity:1;"
         offset="0"
         id="stop7" /></linearGradient><linearGradient
       inkscape:collect="always"
       xlink:href="#linearGradient19"
       id="linearGradient20"
       x1="-33.999992"
       y1="4.7206879e-05"
       x2="34.000217"
       y2="4.7206879e-05"
       gradientUnits="userSpaceOnUse" /><rect
       x="-50"
       y="141"
       width="133"
       height="35"
       id="rect32-7-3" /></defs><g
     inkscape:label="13 Command Officer Captain"
     inkscape:groupmode="layer"
     id="layer1-18-3-8"
     style="display:inline"
     transform="translate(68.840506,149.48161)"
     sodipodi:insensitive="true"><rect
       style="display:inline;fill:#232532;fill-opacity:1;stroke:#b5b5b5;stroke-width:0.225627;stroke-opacity:1"
       id="rect113"
       width="63.774372"
       height="99.774376"
       x="-31.887186"
       y="-49.887188"
       inkscape:label="Base"
       transform="translate(-34.840506,-97.481611)" /><path
       style="display:inline;fill:#d4d4d4;fill-opacity:1;stroke:#d4d4d4;stroke-width:0.499999;stroke-linejoin:round;stroke-miterlimit:4;stroke-dasharray:none;stroke-dashoffset:0;stroke-opacity:1"
       d="m -34.733324,-89.581383 -0.008,-5.210046 c 0,0 8.847492,-9.098771 9.268442,-10.268071 -0.280633,-1.07576 -6.753523,-8.06315 -7.455106,-9.04537 l 0.05337,-0.77884 c 0.701582,-1.1693 9.094648,-10.03949 11.105851,-12.00392 0.05846,0.58465 0.07799,10.36341 0.07799,10.36341 l -2.042547,0.3325 2.119684,1.06331 -0.05356,10.07693 c 0,0 -0.163011,1.36693 -0.443647,2.44269 -1.028988,1.30963 -12.622506,13.027407 -12.622506,13.027407 z"
       id="path31-8-4"
       sodipodi:nodetypes="ccccccccccccc" /><path
       style="display:inline;fill:#d4d4d4;fill-opacity:1;stroke:#d4d4d4;stroke-width:0.499999;stroke-linejoin:round;stroke-miterlimit:4;stroke-dasharray:none;stroke-dashoffset:0;stroke-opacity:1"
       d="m -34.717847,-89.581383 0.008,-5.210046 c 0,0 -8.847492,-9.098771 -9.268442,-10.268071 0.280633,-1.07576 6.753523,-8.06315 7.455106,-9.04537 l -0.05337,-0.77884 c -0.701582,-1.1693 -9.094648,-10.03949 -11.105851,-12.00392 -0.05846,0.58465 -0.07799,10.36341 -0.07799,10.36341 l 2.02707,0.3325 -2.104207,1.06331 0.05356,10.07693 c 0,0 0.163011,1.36693 0.443647,2.44269 1.028988,1.30963 12.622506,13.027407 12.622506,13.027407 z"
       id="path32-3-9"
       sodipodi:nodetypes="ccccccccccccc" /><ellipse
       style="display:inline;fill:#d4d4d4;fill-opacity:1;stroke:#d4d4d4;stroke-width:0.499999;stroke-linejoin:round;stroke-miterlimit:4;stroke-dasharray:none;stroke-dashoffset:0;stroke-opacity:1"
       id="path33-7-9"
       cx="-34.601032"
       cy="-139.2326"
       rx="2.5135417"
       ry="2.5796874" /><text
       xml:space="preserve"
       transform="matrix(0.26458333,0,0,0.26458333,-34.257341,-98.817489)"
       id="text32-1-2"
       style="font-size:29.3333px;text-align:start;writing-mode:lr-tb;direction:ltr;white-space:pre;shape-inside:url(#rect32-7-3);display:inline;fill:#d4d4d4;fill-opacity:1;stroke:#d4d4d4;stroke-width:1.88976;stroke-linejoin:round;stroke-miterlimit:4;stroke-dasharray:none;stroke-dashoffset:0;stroke-opacity:1"
       x="62.929947"
       y="0"><tspan
         x="-50"
         y="167.68964"
         id="tspan1">UASDF</tspan></text><path
       style="display:inline;fill:#ec9752;fill-opacity:1;stroke:#ec9752;stroke-width:0.499999;stroke-linejoin:round;stroke-miterlimit:4;stroke-dasharray:none;stroke-dashoffset:0;stroke-opacity:1"
       d="m -34.733324,-80.601127 -0.07415,-3.225671 12.64188,-12.847761 0.05475,3.046026 -12.622506,13.027406 z"
       id="path34-5"
       sodipodi:nodetypes="cccccc" /><path
       style="display:inline;fill:#ec9752;fill-opacity:1;stroke:#ec9752;stroke-width:0.499999;stroke-linejoin:round;stroke-miterlimit:4;stroke-dasharray:none;stroke-dashoffset:0;stroke-opacity:1"
       d="m -34.717847,-80.601127 -0.05815,-3.225671 -12.575734,-12.847761 0.01141,3.046026 12.622506,13.027406 z"
       id="path35-5"
       sodipodi:nodetypes="cccccc" /><path
       style="display:inline;fill:#ec9752;fill-opacity:1;stroke:#ec9752;stroke-width:0.499999;stroke-linejoin:round;stroke-miterlimit:4;stroke-dasharray:none;stroke-dashoffset:0;stroke-opacity:1"
       d="m -34.733324,-72.930492 -0.07415,-3.225671 12.64188,-12.847761 0.05475,3.046026 -12.622506,13.027406 z"
       id="path36"
       sodipodi:nodetypes="cccccc" /><path
       style="display:inline;fill:#ec9752;fill-opacity:1;stroke:#ec9752;stroke-width:0.499999;stroke-linejoin:round;stroke-miterlimit:4;stroke-dasharray:none;stroke-dashoffset:0;stroke-opacity:1"
       d="m -34.717847,-72.930492 -0.05815,-3.225671 -12.575734,-12.847761 0.01141,3.046026 12.622506,13.027406 z"
       id="path37"
       sodipodi:nodetypes="cccccc" /><path
       style="display:inline;fill:#d4d4d4;fill-opacity:1;stroke:#d4d4d4;stroke-width:0.675756;stroke-linejoin:round;stroke-miterlimit:4;stroke-dasharray:none;stroke-dashoffset:0;stroke-opacity:1"
       d="m -66.977273,-97.102553 h 5.988424 v 4.2985 l 6.148531,4.298505 -6.148531,4.298506 9.9e-5,2.275679 7.159845,5.309918 -7.159944,4.551358 v 3.539945 l -5.988424,0.252853 z"
       id="path38"
       sodipodi:nodetypes="ccccccccccc" /><path
       style="display:inline;fill:#d4d4d4;fill-opacity:1;stroke:#d4d4d4;stroke-width:0.675756;stroke-linejoin:round;stroke-miterlimit:4;stroke-dasharray:none;stroke-dashoffset:0;stroke-opacity:1"
       d="m -2.4997643,-97.102553 h -5.988424 v 4.2985 l -6.1485307,4.298505 6.1485307,4.298506 -9.9e-5,2.275679 -7.1598447,5.309918 7.1599437,4.551358 v 3.539945 l 5.988424,0.252853 z"
       id="path39"
       sodipodi:nodetypes="ccccccccccc" /><path
       id="path113"
       style="display:inline;fill:none;stroke:url(#linearGradient20);stroke-width:4;stroke-linejoin:miter;stroke-miterlimit:4;stroke-dasharray:none;stroke-dashoffset:0"
       inkscape:label="Border"
       d="M -32,-50 V 50.0001 H 32.000228 V -50 Z"
       transform="translate(-34.840506,-97.481611)" /></g></svg>
