<?xml version="1.0" encoding="UTF-8" standalone="no"?>
<!-- Created with Inkscape (http://www.inkscape.org/) -->

<svg
   width="68.000229mm"
   height="104.0001mm"
   viewBox="0 0 68.000229 104.0001"
   version="1.1"
   id="svg1"
   xml:space="preserve"
   inkscape:version="1.4 (86a8ad7, 2024-10-11)"
   sodipodi:docname="Army.svg"
   inkscape:export-batch-path="F:\Training Data\Starsector\CY_Milkydromeda\Ensignia"
   inkscape:export-batch-name="UAF Army "
   xmlns:inkscape="http://www.inkscape.org/namespaces/inkscape"
   xmlns:sodipodi="http://sodipodi.sourceforge.net/DTD/sodipodi-0.dtd"
   xmlns:xlink="http://www.w3.org/1999/xlink"
   xmlns="http://www.w3.org/2000/svg"
   xmlns:svg="http://www.w3.org/2000/svg"><sodipodi:namedview
     id="namedview1"
     pagecolor="#505050"
     bordercolor="#ffffff"
     borderopacity="1"
     inkscape:showpageshadow="0"
     inkscape:pageopacity="0"
     inkscape:pagecheckerboard="1"
     inkscape:deskcolor="#505050"
     inkscape:document-units="mm"
     inkscape:zoom="0.70710678"
     inkscape:cx="-171.11984"
     inkscape:cy="236.17366"
     inkscape:window-width="1278"
     inkscape:window-height="1368"
     inkscape:window-x="-7"
     inkscape:window-y="0"
     inkscape:window-maximized="0"
     inkscape:current-layer="layer1-1-4-0-9" /><defs
     id="defs1"><linearGradient
       id="linearGradient19"
       inkscape:collect="always"><stop
         style="stop-color:#d4d4d4;stop-opacity:1;"
         offset="0.13605441"
         id="stop19" /><stop
         style="stop-color:#ffffff;stop-opacity:1;"
         offset="0.20578229"
         id="stop22" /><stop
         style="stop-color:#c5c5c5;stop-opacity:1;"
         offset="0.337585"
         id="stop24" /><stop
         style="stop-color:#c3c3c3;stop-opacity:1;"
         offset="0.61564624"
         id="stop21" /><stop
         style="stop-color:#ffffff;stop-opacity:1;"
         offset="0.70748293"
         id="stop23" /><stop
         style="stop-color:#d4d4d4;stop-opacity:1;"
         offset="0.82993191"
         id="stop20" /></linearGradient><linearGradient
       id="linearGradient11"
       inkscape:swatch="gradient"><stop
         style="stop-color:#b5b5b5;stop-opacity:1;"
         offset="0"
         id="stop12" /><stop
         style="stop-color:#b5b5b5;stop-opacity:0;"
         offset="1"
         id="stop13" /></linearGradient><linearGradient
       id="swatch6"
       inkscape:swatch="solid"><stop
         style="stop-color:#b5b5b5;stop-opacity:1;"
         offset="0"
         id="stop7" /></linearGradient><linearGradient
       inkscape:collect="always"
       xlink:href="#linearGradient19"
       id="linearGradient20"
       x1="-33.999992"
       y1="4.7206879e-05"
       x2="34.000217"
       y2="4.7206879e-05"
       gradientUnits="userSpaceOnUse" /></defs><g
     inkscape:label="08 Field Officer Sergeant Major"
     inkscape:groupmode="layer"
     id="layer1-5-6-0"
     style="display:inline"
     transform="translate(13.462946,48.523755)"
     sodipodi:insensitive="true"><rect
       style="display:inline;fill:#232532;fill-opacity:1;stroke:#b5b5b5;stroke-width:0.225627;stroke-opacity:1"
       id="rect108"
       width="63.774372"
       height="99.774376"
       x="-31.887186"
       y="-49.887188"
       inkscape:label="Base"
       sodipodi:insensitive="true"
       transform="translate(20.537054,3.4762455)" /><path
       id="path19-9-3-0"
       style="display:inline;fill:#d5d5d5;fill-opacity:1;stroke:none;stroke-width:0.5;stroke-linejoin:round;stroke-miterlimit:4;stroke-dasharray:none;stroke-dashoffset:0;stroke-opacity:1"
       d="m 20.5744,-10.414556 c -0.859896,-0.132292 -4.342911,-3.966953 -5.136661,-4.363828 -3.704973,2.229015 -3.773121,2.28974 -3.773121,2.28974 l -22.098514,15.0876418 -0.184739,9.9373532 24.819388,-15.7597331 3.401548,2.98580567 c 0,0 1.47774,1.38639893 2.787361,2.41538663 1.590254,-1.0289876 3.009387,-2.28522 3.009387,-2.28522 L 27.178584,-3.0683927 51.397959,13.710957 51.582698,3.0667195 29.484183,-11.833833 c 0,0 -0.07696,-0.122486 -4.101311,-2.857969 -1.058333,0.595313 -4.147013,4.277246 -4.808472,4.277246 z"
       sodipodi:nodetypes="ccccccccccccccc"
       inkscape:label="Wing Base" /><path
       id="path19-4-8-6-1"
       style="display:inline;fill:#232532;fill-opacity:1;stroke:#232532;stroke-width:0.5;stroke-linejoin:round;stroke-miterlimit:4;stroke-dasharray:none;stroke-dashoffset:0;stroke-opacity:1"
       inkscape:label="Wing Mark 1"
       d="m 20.402259,-6.2431477 c -2.00551,-1.1809694 -3.702631,-3.2821481 -5.330941,-4.9286243 -8.8773101,6.361015 -9.0255431,6.4916722 -9.0255431,6.4916722 l -0.126383,3.73911119 8.6767201,-5.50465519 c 1.087897,0.9492494 5.416002,4.5265551 5.899692,4.9832615 0.629417,-0.3318432 5.657598,-3.9352527 6.74159,-4.7961728 l 7.764171,5.44826933 V -4.7129385 c 0,0 0.03322,-0.1412669 -8.87149,-6.1942505 -1.406029,1.4230412 -3.832622,3.637347 -5.727816,4.6640413 z"
       sodipodi:nodetypes="ccccccccccc" /><path
       id="path19-4-8-6-7-4"
       style="display:inline;fill:#d5d5d5;fill-opacity:1;stroke:#d5d5d5;stroke-width:0.430018;stroke-linejoin:round;stroke-miterlimit:4;stroke-dasharray:none;stroke-dashoffset:0;stroke-opacity:1"
       inkscape:label="Wing Mark 1"
       d="M 20.242327,6.1240987 C 19.120662,5.4397646 15.361482,3.5552775 13.729254,2.3403635 11.331914,3.9003424 5.8512973,6.6159942 5.8512973,6.6159942 L 5.7246102,9.9119287 14.422209,5.8501112 c 1.090515,0.7004394 5.429034,3.3400893 5.913888,3.6770873 0.630932,-0.244863 5.671212,-2.9037746 6.757812,-3.5390369 l 7.782854,4.0202114 V 6.5917629 c 0,0 -4.222967,-1.8815815 -7.863849,-4.102939 -1.409413,1.0500441 -5.459871,2.9509302 -6.770587,3.6352748 z"
       sodipodi:nodetypes="ccccccccccc" /><path
       id="path19-4-8-6-7-4-7"
       style="display:inline;fill:#d5d5d5;fill-opacity:1;stroke:#d5d5d5;stroke-width:0.430018;stroke-linejoin:round;stroke-miterlimit:4;stroke-dasharray:none;stroke-dashoffset:0;stroke-opacity:1"
       inkscape:label="Wing Mark 1"
       d="M 20.504014,13.518233 C 19.382349,12.833898 15.623169,10.949411 13.990941,9.7344973 11.593601,11.294476 6.1129843,14.010128 6.1129843,14.010128 l -0.1266871,3.295935 8.6975988,-4.061818 c 1.090515,0.700439 5.429034,3.340089 5.913888,3.677087 0.630932,-0.244863 5.671212,-2.903774 6.757812,-3.539037 l 7.782854,4.020212 v -3.41661 c 0,0 -4.222967,-1.881582 -7.863849,-4.1029393 -1.409413,1.0500443 -5.459871,2.9509303 -6.770587,3.6352753 z"
       sodipodi:nodetypes="ccccccccccc" /><path
       style="display:inline;fill:#232532;fill-opacity:1;stroke:#232532;stroke-width:0.5;stroke-linejoin:round;stroke-miterlimit:4;stroke-dasharray:none;stroke-dashoffset:0;stroke-opacity:1"
       d="m 41.842063,3.3485683 3.336045,2.3163725 -0.07745,-4.1194724 -3.324037,-2.12966973 z"
       id="path25-1-6"
       sodipodi:nodetypes="ccccc" /><path
       style="display:inline;fill:#232532;fill-opacity:1;stroke:#232532;stroke-width:0.5;stroke-linejoin:round;stroke-miterlimit:4;stroke-dasharray:none;stroke-dashoffset:0;stroke-opacity:1"
       d="m -0.78074605,3.0208918 -3.28975105,2.3816619 -0.0037,-4.1201988 3.28142505,-2.19475856 z"
       id="path26-5-0"
       sodipodi:nodetypes="ccccc" /><path
       style="display:inline;fill:#d5d5d5;fill-opacity:1;stroke:none;stroke-width:0.5;stroke-linejoin:round;stroke-miterlimit:4;stroke-dasharray:none;stroke-dashoffset:0;stroke-opacity:1"
       d="m 20.392665,-13.002663 -5.519,-5.425337 5.519,-6.641881 5.519,6.641881 z"
       id="path27-4-7"
       sodipodi:nodetypes="ccccc" /><path
       id="path108"
       style="display:inline;fill:none;stroke:url(#linearGradient20);stroke-width:4;stroke-linejoin:miter;stroke-miterlimit:4;stroke-dasharray:none;stroke-dashoffset:0"
       inkscape:label="Border"
       d="M -32,-50 V 50.0001 H 32.000228 V -50 Z"
       sodipodi:insensitive="true"
       transform="translate(20.537054,3.4762455)" /></g></svg>
