<?xml version="1.0" encoding="UTF-8" standalone="no"?>
<!-- Created with Inkscape (http://www.inkscape.org/) -->

<svg
   width="68.000229mm"
   height="104.0001mm"
   viewBox="0 0 68.000229 104.0001"
   version="1.1"
   id="svg1"
   xml:space="preserve"
   inkscape:version="1.4 (86a8ad7, 2024-10-11)"
   sodipodi:docname="Army.svg"
   inkscape:export-batch-path="F:\Training Data\Starsector\CY_Milkydromeda\Ensignia"
   inkscape:export-batch-name="UAF Army "
   xmlns:inkscape="http://www.inkscape.org/namespaces/inkscape"
   xmlns:sodipodi="http://sodipodi.sourceforge.net/DTD/sodipodi-0.dtd"
   xmlns:xlink="http://www.w3.org/1999/xlink"
   xmlns="http://www.w3.org/2000/svg"
   xmlns:svg="http://www.w3.org/2000/svg"><sodipodi:namedview
     id="namedview1"
     pagecolor="#505050"
     bordercolor="#ffffff"
     borderopacity="1"
     inkscape:showpageshadow="0"
     inkscape:pageopacity="0"
     inkscape:pagecheckerboard="1"
     inkscape:deskcolor="#505050"
     inkscape:document-units="mm"
     inkscape:zoom="0.70710678"
     inkscape:cx="-171.11984"
     inkscape:cy="236.17366"
     inkscape:window-width="1278"
     inkscape:window-height="1368"
     inkscape:window-x="-7"
     inkscape:window-y="0"
     inkscape:window-maximized="0"
     inkscape:current-layer="layer1-1-4-0-9" /><defs
     id="defs1"><linearGradient
       id="linearGradient19"
       inkscape:collect="always"><stop
         style="stop-color:#d4d4d4;stop-opacity:1;"
         offset="0.13605441"
         id="stop19" /><stop
         style="stop-color:#ffffff;stop-opacity:1;"
         offset="0.20578229"
         id="stop22" /><stop
         style="stop-color:#c5c5c5;stop-opacity:1;"
         offset="0.337585"
         id="stop24" /><stop
         style="stop-color:#c3c3c3;stop-opacity:1;"
         offset="0.61564624"
         id="stop21" /><stop
         style="stop-color:#ffffff;stop-opacity:1;"
         offset="0.70748293"
         id="stop23" /><stop
         style="stop-color:#d4d4d4;stop-opacity:1;"
         offset="0.82993191"
         id="stop20" /></linearGradient><linearGradient
       id="linearGradient11"
       inkscape:swatch="gradient"><stop
         style="stop-color:#b5b5b5;stop-opacity:1;"
         offset="0"
         id="stop12" /><stop
         style="stop-color:#b5b5b5;stop-opacity:0;"
         offset="1"
         id="stop13" /></linearGradient><linearGradient
       id="swatch6"
       inkscape:swatch="solid"><stop
         style="stop-color:#b5b5b5;stop-opacity:1;"
         offset="0"
         id="stop7" /></linearGradient><linearGradient
       inkscape:collect="always"
       xlink:href="#linearGradient19"
       id="linearGradient20"
       x1="-33.999992"
       y1="4.7206879e-05"
       x2="34.000217"
       y2="4.7206879e-05"
       gradientUnits="userSpaceOnUse" /></defs><g
     inkscape:label="02 Enlisted Private First Class"
     inkscape:groupmode="layer"
     id="layer1-1"
     style="display:inline"
     transform="translate(45.432132,108.08889)"
     sodipodi:insensitive="true"><rect
       style="display:inline;fill:#232532;fill-opacity:1;stroke:#b5b5b5;stroke-width:0.225627;stroke-opacity:1"
       id="rect103"
       width="63.774372"
       height="99.774376"
       x="-31.887186"
       y="-49.887188"
       inkscape:label="Base"
       sodipodi:insensitive="true"
       transform="translate(-11.432132,-56.088894)" /><path
       id="path19-2"
       style="fill:#d5d5d5;fill-opacity:1;stroke:none;stroke-width:4.06665;stroke-linejoin:miter;stroke-miterlimit:4;stroke-dasharray:none;stroke-dashoffset:0;stroke-opacity:1"
       d="m -11.192733,-73.020967 -2.423875,0.313388 -2.744134,1.073664 -25.840287,17.613338 -0.184739,9.937354 27.907492,-18.008692 1.636361,-0.586069 1.464444,-0.230447 1.5929259,0.321866 1.5078794,0.49465 27.9074917,19.183298 0.184739,-11.11196 -25.8402889,-17.613338 -2.043335,-0.987082 z"
       sodipodi:nodetypes="ccccccccccccccc"
       inkscape:label="Wing Base" /><path
       id="path19-4-3"
       style="fill:#232532;fill-opacity:1;stroke:none;stroke-width:0;stroke-linejoin:miter;stroke-miterlimit:4;stroke-dasharray:none;stroke-dashoffset:0;stroke-opacity:1"
       inkscape:label="Wing Mark 1"
       d="m -11.364874,-70.038237 -2.345076,0.313159 -2.655135,1.073836 -20.95577,14.201055 -0.126383,4.466715 23.082547,-15.607443 1.582849,-0.586011 1.416968,-0.230477 1.5409914,0.321944 1.4588257,0.494544 22.4506319,15.644602 v -4.630257 l -20.4502372,-14.074672 -1.9771403,-0.98702 z"
       sodipodi:nodetypes="ccccccccccccccc" /><path
       id="path19-4-3-1"
       style="display:inline;fill:#d4d4d4;fill-opacity:1;stroke:none;stroke-width:0;stroke-linejoin:miter;stroke-miterlimit:4;stroke-dasharray:none;stroke-dashoffset:0;stroke-opacity:1"
       inkscape:label="V"
       d="m -11.385623,-60.511363 c -1.101413,0 -2.568319,0.58136 -2.568319,0.58136 l -2.431893,1.297078 c 0,0 -3.57572,2.545964 -4.451924,3.212724 -0.234253,0.885227 -0.260072,2.202963 0.05271,2.87321 1.327021,-0.758298 5.704561,-3.657658 5.704561,-3.657658 l 1.775602,-1.106909 c 0,0 1.104115,-0.498437 1.908411,-0.54312 0.0085,-0.02733 0.01462,-0.05307 0.02274,-0.0801 0.0098,0.02686 0.01858,0.05258 0.02894,0.0801 0.804296,0.04468 1.9084108,0.54312 1.9084108,0.54312 l 1.7756022,1.106909 c 0,0 4.3775404,2.89936 5.7045614,3.657658 0.312782,-0.670247 0.286963,-1.987983 0.05271,-2.87321 -0.876204,-0.66676 -4.4519247,-3.212724 -4.4519247,-3.212724 l -2.4318929,-1.297078 c 0,0 -1.4669058,-0.58136 -2.5683188,-0.58136 -0.0052,0.01503 -0.0089,0.02806 -0.01395,0.04289 -0.0055,-0.01436 -0.01028,-0.02846 -0.01602,-0.04289 z" /><path
       id="path103"
       style="display:inline;fill:none;stroke:url(#linearGradient20);stroke-width:4;stroke-linejoin:miter;stroke-miterlimit:4;stroke-dasharray:none;stroke-dashoffset:0"
       inkscape:label="Border"
       d="M -32,-50 V 50.0001 H 32.000228 V -50 Z"
       sodipodi:insensitive="true"
       transform="translate(-11.432132,-56.088894)" /></g></svg>
