<?xml version="1.0" encoding="UTF-8" standalone="no"?>
<!-- Created with Inkscape (http://www.inkscape.org/) -->

<svg
   width="68.000229mm"
   height="104.0001mm"
   viewBox="0 0 68.000229 104.0001"
   version="1.1"
   id="svg1"
   xml:space="preserve"
   inkscape:version="1.4 (86a8ad7, 2024-10-11)"
   sodipodi:docname="Army.svg"
   inkscape:export-batch-path="F:\Training Data\Starsector\CY_Milkydromeda\Ensignia"
   inkscape:export-batch-name="UAF Army "
   xmlns:inkscape="http://www.inkscape.org/namespaces/inkscape"
   xmlns:sodipodi="http://sodipodi.sourceforge.net/DTD/sodipodi-0.dtd"
   xmlns:xlink="http://www.w3.org/1999/xlink"
   xmlns="http://www.w3.org/2000/svg"
   xmlns:svg="http://www.w3.org/2000/svg"><sodipodi:namedview
     id="namedview1"
     pagecolor="#505050"
     bordercolor="#ffffff"
     borderopacity="1"
     inkscape:showpageshadow="0"
     inkscape:pageopacity="0"
     inkscape:pagecheckerboard="1"
     inkscape:deskcolor="#505050"
     inkscape:document-units="mm"
     inkscape:zoom="0.70710678"
     inkscape:cx="-171.11984"
     inkscape:cy="236.17366"
     inkscape:window-width="1278"
     inkscape:window-height="1368"
     inkscape:window-x="-7"
     inkscape:window-y="0"
     inkscape:window-maximized="0"
     inkscape:current-layer="layer1-1-4-0-9" /><defs
     id="defs1"><linearGradient
       id="linearGradient19"
       inkscape:collect="always"><stop
         style="stop-color:#d4d4d4;stop-opacity:1;"
         offset="0.13605441"
         id="stop19" /><stop
         style="stop-color:#ffffff;stop-opacity:1;"
         offset="0.20578229"
         id="stop22" /><stop
         style="stop-color:#c5c5c5;stop-opacity:1;"
         offset="0.337585"
         id="stop24" /><stop
         style="stop-color:#c3c3c3;stop-opacity:1;"
         offset="0.61564624"
         id="stop21" /><stop
         style="stop-color:#ffffff;stop-opacity:1;"
         offset="0.70748293"
         id="stop23" /><stop
         style="stop-color:#d4d4d4;stop-opacity:1;"
         offset="0.82993191"
         id="stop20" /></linearGradient><linearGradient
       id="linearGradient11"
       inkscape:swatch="gradient"><stop
         style="stop-color:#b5b5b5;stop-opacity:1;"
         offset="0"
         id="stop12" /><stop
         style="stop-color:#b5b5b5;stop-opacity:0;"
         offset="1"
         id="stop13" /></linearGradient><linearGradient
       id="swatch6"
       inkscape:swatch="solid"><stop
         style="stop-color:#b5b5b5;stop-opacity:1;"
         offset="0"
         id="stop7" /></linearGradient><linearGradient
       inkscape:collect="always"
       xlink:href="#linearGradient19"
       id="linearGradient20"
       x1="-33.999992"
       y1="4.7206879e-05"
       x2="34.000217"
       y2="4.7206879e-05"
       gradientUnits="userSpaceOnUse" /></defs><g
     inkscape:label="07 Field Officer Sergeant First Class"
     inkscape:groupmode="layer"
     id="layer1-5-6"
     style="display:inline"
     transform="translate(13.417549,55.903214)"
     sodipodi:insensitive="true"><rect
       style="display:inline;fill:#232532;fill-opacity:1;stroke:#b5b5b5;stroke-width:0.225627;stroke-opacity:1"
       id="rect107"
       width="63.774372"
       height="99.774376"
       x="-31.887186"
       y="-49.887188"
       inkscape:label="Base"
       sodipodi:insensitive="true"
       transform="translate(20.582451,-3.9032143)" /><path
       id="path19-9-3"
       style="display:inline;fill:#d5d5d5;fill-opacity:1;stroke:none;stroke-width:0.5;stroke-linejoin:round;stroke-miterlimit:4;stroke-dasharray:none;stroke-dashoffset:0;stroke-opacity:1"
       d="m 20.5744,-13.595063 c -0.859896,-0.132292 -4.342911,-3.966953 -5.136661,-4.363828 -3.704973,2.229015 -3.773121,2.28974 -3.773121,2.28974 l -22.098514,15.08764142 -0.184739,9.93735318 24.819388,-15.7597331 3.401548,2.9858057 c 0,0 1.47774,1.3863989 2.787361,2.4153866 1.590254,-1.0289876 3.009387,-2.28522 3.009387,-2.28522 L 27.178584,-6.2489001 51.397959,10.53045 51.582698,-0.11378788 29.484183,-15.01434 c 0,0 -0.07696,-0.122486 -4.101311,-2.857969 -1.058333,0.595313 -4.147013,4.277246 -4.808472,4.277246 z"
       sodipodi:nodetypes="ccccccccccccccc"
       inkscape:label="Wing Base" /><path
       id="path19-4-8-6"
       style="display:inline;fill:#232532;fill-opacity:1;stroke:#232532;stroke-width:0.5;stroke-linejoin:round;stroke-miterlimit:4;stroke-dasharray:none;stroke-dashoffset:0;stroke-opacity:1"
       inkscape:label="Wing Mark 1"
       d="m 20.402259,-9.4236548 c -2.00551,-1.1809702 -3.702631,-3.2821482 -5.330941,-4.9286242 -8.8773101,6.3610146 -9.0255431,6.4916718 -9.0255431,6.4916718 l -0.126383,3.7391112 8.6767201,-5.5046552 c 1.087897,0.9492494 5.416002,4.5265551 5.899692,4.9832615 0.629417,-0.3318432 5.657598,-3.9352527 6.74159,-4.7961728 l 7.764171,5.4482694 v -3.9026528 c 0,0 0.03322,-0.1412669 -8.87149,-6.1942501 -1.406029,1.423041 -3.898768,3.703492 -5.727816,4.6640412 z"
       sodipodi:nodetypes="ccccccccccc" /><path
       id="path19-4-8-6-7"
       style="display:inline;fill:#d5d5d5;fill-opacity:1;stroke:#d5d5d5;stroke-width:0.430018;stroke-linejoin:round;stroke-miterlimit:4;stroke-dasharray:none;stroke-dashoffset:0;stroke-opacity:1"
       inkscape:label="Wing Mark 1"
       d="M 20.242327,2.9435913 C 19.120662,2.2592572 15.361482,-0.18649588 13.729254,-1.4014099 11.331914,0.15856902 5.8512973,3.9032085 5.8512973,3.9032085 L 5.7246102,7.2926873 14.422209,2.6696038 c 1.090515,0.7004394 5.429034,3.3400893 5.913888,3.6770873 0.630932,-0.244863 5.671212,-2.9037746 6.757812,-3.5390369 l 7.782854,4.5814774 V 3.8789772 c 0,0 -4.222967,-2.91056918 -7.863849,-5.1319267 -1.409413,1.05004412 -5.459871,3.5121962 -6.770587,4.1965408 z"
       sodipodi:nodetypes="ccccccccccc" /><path
       style="display:inline;fill:#232532;fill-opacity:1;stroke:#232532;stroke-width:0.5;stroke-linejoin:round;stroke-miterlimit:4;stroke-dasharray:none;stroke-dashoffset:0;stroke-opacity:1"
       d="M 41.842063,0.16806092 45.178108,2.4844334 45.100658,-1.635039 41.776621,-3.7647087 Z"
       id="path25-1"
       sodipodi:nodetypes="ccccc" /><path
       style="display:inline;fill:#232532;fill-opacity:1;stroke:#232532;stroke-width:0.5;stroke-linejoin:round;stroke-miterlimit:4;stroke-dasharray:none;stroke-dashoffset:0;stroke-opacity:1"
       d="m -0.78074605,-0.15961558 -3.28975105,2.38166188 -0.0037,-4.1201988 3.28142505,-2.1947585 z"
       id="path26-5"
       sodipodi:nodetypes="ccccc" /><path
       style="display:inline;fill:#d5d5d5;fill-opacity:1;stroke:none;stroke-width:0.5;stroke-linejoin:round;stroke-miterlimit:4;stroke-dasharray:none;stroke-dashoffset:0;stroke-opacity:1"
       d="m 20.392665,-16.18317 -5.519,-5.425337 5.519,-6.641881 5.519,6.641881 z"
       id="path27-4"
       sodipodi:nodetypes="ccccc" /><path
       id="path107"
       style="display:inline;fill:none;stroke:url(#linearGradient20);stroke-width:4;stroke-linejoin:miter;stroke-miterlimit:4;stroke-dasharray:none;stroke-dashoffset:0"
       inkscape:label="Border"
       d="M -32,-50 V 50.0001 H 32.000228 V -50 Z"
       sodipodi:insensitive="true"
       transform="translate(20.582451,-3.9032143)" /></g></svg>
