<?xml version="1.0" encoding="UTF-8" standalone="no"?>
<!-- Created with Inkscape (http://www.inkscape.org/) -->

<svg
   width="68.000229mm"
   height="104.0001mm"
   viewBox="0 0 68.000229 104.0001"
   version="1.1"
   id="svg1"
   xml:space="preserve"
   inkscape:version="1.4 (86a8ad7, 2024-10-11)"
   sodipodi:docname="Army.svg"
   inkscape:export-batch-path="F:\Training Data\Starsector\CY_Milkydromeda\Ensignia"
   inkscape:export-batch-name="UAF Army "
   xmlns:inkscape="http://www.inkscape.org/namespaces/inkscape"
   xmlns:sodipodi="http://sodipodi.sourceforge.net/DTD/sodipodi-0.dtd"
   xmlns:xlink="http://www.w3.org/1999/xlink"
   xmlns="http://www.w3.org/2000/svg"
   xmlns:svg="http://www.w3.org/2000/svg"><sodipodi:namedview
     id="namedview1"
     pagecolor="#505050"
     bordercolor="#ffffff"
     borderopacity="1"
     inkscape:showpageshadow="0"
     inkscape:pageopacity="0"
     inkscape:pagecheckerboard="1"
     inkscape:deskcolor="#505050"
     inkscape:document-units="mm"
     inkscape:zoom="0.70710678"
     inkscape:cx="-171.11984"
     inkscape:cy="236.17366"
     inkscape:window-width="1278"
     inkscape:window-height="1368"
     inkscape:window-x="-7"
     inkscape:window-y="0"
     inkscape:window-maximized="0"
     inkscape:current-layer="layer1-1-4-0-9" /><defs
     id="defs1"><linearGradient
       id="linearGradient19"
       inkscape:collect="always"><stop
         style="stop-color:#d4d4d4;stop-opacity:1;"
         offset="0.13605441"
         id="stop19" /><stop
         style="stop-color:#ffffff;stop-opacity:1;"
         offset="0.20578229"
         id="stop22" /><stop
         style="stop-color:#c5c5c5;stop-opacity:1;"
         offset="0.337585"
         id="stop24" /><stop
         style="stop-color:#c3c3c3;stop-opacity:1;"
         offset="0.61564624"
         id="stop21" /><stop
         style="stop-color:#ffffff;stop-opacity:1;"
         offset="0.70748293"
         id="stop23" /><stop
         style="stop-color:#d4d4d4;stop-opacity:1;"
         offset="0.82993191"
         id="stop20" /></linearGradient><linearGradient
       id="linearGradient11"
       inkscape:swatch="gradient"><stop
         style="stop-color:#b5b5b5;stop-opacity:1;"
         offset="0"
         id="stop12" /><stop
         style="stop-color:#b5b5b5;stop-opacity:0;"
         offset="1"
         id="stop13" /></linearGradient><linearGradient
       id="swatch6"
       inkscape:swatch="solid"><stop
         style="stop-color:#b5b5b5;stop-opacity:1;"
         offset="0"
         id="stop7" /></linearGradient><linearGradient
       inkscape:collect="always"
       xlink:href="#linearGradient19"
       id="linearGradient20"
       x1="-33.999992"
       y1="4.7206879e-05"
       x2="34.000217"
       y2="4.7206879e-05"
       gradientUnits="userSpaceOnUse" /></defs><g
     inkscape:label="16 Command Officer Colonel"
     inkscape:groupmode="layer"
     id="layer1-18-3-8-4-0-6"
     style="display:inline"
     transform="translate(66.528021,203.2834)"
     sodipodi:insensitive="true"><rect
       style="display:inline;fill:#232532;fill-opacity:1;stroke:#b5b5b5;stroke-width:0.225627;stroke-opacity:1"
       id="rect116"
       width="63.774372"
       height="99.774376"
       x="-31.887186"
       y="-49.887188"
       inkscape:label="Base"
       sodipodi:insensitive="true"
       transform="translate(-32.528021,-151.2834)" /><path
       style="fill:#ec9752;fill-opacity:1;stroke:#ec9752;stroke-width:0.378393;stroke-linejoin:round;stroke-miterlimit:4;stroke-dasharray:none;stroke-dashoffset:0;stroke-opacity:1"
       d="m -32.298362,-140.62933 -0.0061,-7.2702 5.669181,-6.85045 -5.700588,-8.96063 0.04039,-2.247 6.952584,10.02978 2.437234,-0.0904 c 0.07079,1.20348 -0.831301,2.55653 -0.831301,2.55653 l -8.561466,12.83233 z"
       id="path31-8-4-3-7-2"
       sodipodi:nodetypes="cccccccccc" /><path
       style="fill:#ec9752;fill-opacity:1;stroke:#ec9752;stroke-width:0.378393;stroke-linejoin:round;stroke-miterlimit:4;stroke-dasharray:none;stroke-dashoffset:0;stroke-opacity:1"
       d="m -32.356274,-140.62933 0.0061,-7.2702 -5.669182,-6.85045 5.700589,-8.96063 -0.04039,-2.247 -6.952585,10.02978 -2.331043,-0.12575 c -0.07079,1.20348 0.72511,2.59192 0.72511,2.59192 l 8.561468,12.83233 z"
       id="path40-81-6"
       sodipodi:nodetypes="cccccccccc" /><path
       style="display:inline;fill:#d4d4d4;fill-opacity:1;stroke:#d4d4d4;stroke-width:0.42106;stroke-linejoin:round;stroke-miterlimit:4;stroke-dasharray:none;stroke-dashoffset:0;stroke-opacity:1"
       d="m -32.311279,-190.05335 1.978668,-3.42243 -1.978668,-3.60486 -1.978668,3.627 z"
       id="path40-8-5-5"
       sodipodi:nodetypes="ccccc" /><path
       style="fill:#ec9752;fill-opacity:1;stroke:#ec9752;stroke-width:0.378393;stroke-linejoin:round;stroke-miterlimit:4;stroke-dasharray:none;stroke-dashoffset:0;stroke-opacity:1"
       d="m -32.298362,-138.91406 -0.0061,7.27019 5.669181,6.85045 -5.700588,8.96064 0.04039,2.24699 6.952584,-10.02978 2.437234,0.0904 c 0.07079,-1.2035 -0.831301,-2.55655 -0.831301,-2.55655 l -8.561466,-12.83231 z"
       id="path41-8-3"
       sodipodi:nodetypes="cccccccccc" /><path
       style="fill:#ec9752;fill-opacity:1;stroke:#ec9752;stroke-width:0.378393;stroke-linejoin:round;stroke-miterlimit:4;stroke-dasharray:none;stroke-dashoffset:0;stroke-opacity:1"
       d="m -32.356274,-138.91406 0.0061,7.27019 -5.669182,6.85045 5.700589,8.96064 -0.04039,2.24699 -6.952585,-10.02978 -2.331043,0.12576 c -0.07079,-1.20349 0.72511,-2.59194 0.72511,-2.59194 l 8.561468,-12.83231 z"
       id="path42-6-9"
       sodipodi:nodetypes="cccccccccc" /><path
       style="display:inline;fill:#d4d4d4;fill-opacity:1;stroke:#d4d4d4;stroke-width:0.417382;stroke-linejoin:round;stroke-miterlimit:4;stroke-dasharray:none;stroke-dashoffset:0;stroke-opacity:1"
       d="m -32.311279,-182.60145 1.980506,-3.35979 -1.980506,-3.53888 -1.980506,3.56062 z"
       id="path43-1-2"
       sodipodi:nodetypes="ccccc" /><path
       style="display:inline;fill:none;fill-opacity:1;stroke:#d4d4d4;stroke-width:1.351;stroke-linejoin:round;stroke-miterlimit:4;stroke-dasharray:none;stroke-dashoffset:0;stroke-opacity:1"
       d="m -42.129765,-149.9893 -1.692546,-5.84622 -6.137912,-1.54199 1.920497,6.0613 z"
       id="path43-1-2-6"
       sodipodi:nodetypes="ccccc" /><path
       style="display:inline;fill:#d4d4d4;fill-opacity:1;stroke:#d4d4d4;stroke-width:0.378393;stroke-linejoin:round;stroke-miterlimit:4;stroke-dasharray:none;stroke-dashoffset:0;stroke-opacity:1"
       d="m -31.311279,-189.77581 3,-0.0112 3,-2.70159 -3.980222,-0.0355 z"
       id="path44-2-4"
       sodipodi:nodetypes="ccccc" /><path
       style="display:inline;fill:#d4d4d4;fill-opacity:1;stroke:#d4d4d4;stroke-width:0.378393;stroke-linejoin:round;stroke-miterlimit:4;stroke-dasharray:none;stroke-dashoffset:0;stroke-opacity:1"
       d="m -39.311279,-192.48859 3,2.70157 3,0.0112 -2.107372,-2.74835 z"
       id="path45-4-6"
       sodipodi:nodetypes="ccccc" /><path
       style="fill:#d4d4d4;fill-opacity:1;stroke:#d4d4d4;stroke-width:0.378393;stroke-linejoin:round;stroke-miterlimit:4;stroke-dasharray:none;stroke-dashoffset:0;stroke-opacity:1"
       d="m -31.416841,-139.79559 7.2702,-0.006 6.85045,5.66918 8.9606296,-5.70059 2.247,0.0404 -10.0297796,6.95259 0.0904,2.43723 c -1.20348,0.0708 -2.55653,-0.8313 -2.55653,-0.8313 l -12.83233,-8.56147 z"
       id="path46-1"
       sodipodi:nodetypes="cccccccccc" /><path
       style="fill:#d4d4d4;fill-opacity:1;stroke:#d4d4d4;stroke-width:0.378393;stroke-linejoin:round;stroke-miterlimit:4;stroke-dasharray:none;stroke-dashoffset:0;stroke-opacity:1"
       d="m -31.416841,-139.8535 7.2702,0.006 6.85045,-5.66918 8.9606296,5.70058 2.247,-0.0404 -10.0297796,-6.95258 0.12575,-2.33104 c -1.20348,-0.0708 -2.59192,0.72511 -2.59192,0.72511 l -12.83233,8.56146 z"
       id="path47-8"
       sodipodi:nodetypes="cccccccccc" /><path
       style="fill:#d4d4d4;fill-opacity:1;stroke:#d4d4d4;stroke-width:0.378393;stroke-linejoin:round;stroke-miterlimit:4;stroke-dasharray:none;stroke-dashoffset:0;stroke-opacity:1"
       d="m -33.132111,-139.79559 -7.27019,-0.006 -6.85045,5.66918 -8.96064,-5.70059 -2.24699,0.0404 10.02978,6.95259 -0.0904,2.43723 c 1.2035,0.0708 2.55655,-0.8313 2.55655,-0.8313 l 12.83231,-8.56147 z"
       id="path48-2"
       sodipodi:nodetypes="cccccccccc" /><path
       style="fill:#d4d4d4;fill-opacity:1;stroke:#d4d4d4;stroke-width:0.378393;stroke-linejoin:round;stroke-miterlimit:4;stroke-dasharray:none;stroke-dashoffset:0;stroke-opacity:1"
       d="m -33.132111,-139.8535 -7.27019,0.006 -6.85045,-5.66918 -8.96064,5.70058 -2.24699,-0.0404 10.02978,-6.95258 -0.12576,-2.33104 c 1.20349,-0.0708 2.59194,0.72511 2.59194,0.72511 l 12.83231,8.56146 z"
       id="path49-1"
       sodipodi:nodetypes="cccccccccc" /><path
       style="display:inline;fill:none;fill-opacity:1;stroke:#d4d4d4;stroke-width:1.351;stroke-linejoin:round;stroke-miterlimit:4;stroke-dasharray:none;stroke-dashoffset:0;stroke-opacity:1"
       d="m -22.311261,-149.9893 1.692546,-5.84622 6.137912,-1.54199 -1.920497,6.0613 z"
       id="path50"
       sodipodi:nodetypes="ccccc" /><path
       style="display:inline;fill:none;fill-opacity:1;stroke:#d4d4d4;stroke-width:1.351;stroke-linejoin:round;stroke-miterlimit:4;stroke-dasharray:none;stroke-dashoffset:0;stroke-opacity:1"
       d="m -42.129765,-129.6577 -1.692546,5.84622 -6.137912,1.54199 1.920497,-6.0613 z"
       id="path51"
       sodipodi:nodetypes="ccccc" /><path
       style="display:inline;fill:none;fill-opacity:1;stroke:#d4d4d4;stroke-width:1.351;stroke-linejoin:round;stroke-miterlimit:4;stroke-dasharray:none;stroke-dashoffset:0;stroke-opacity:1"
       d="m -22.311261,-129.6577 1.692546,5.84622 6.137912,1.54199 -1.920497,-6.0613 z"
       id="path52"
       sodipodi:nodetypes="ccccc" /><path
       id="path116"
       style="display:inline;fill:none;stroke:url(#linearGradient20);stroke-width:4;stroke-linejoin:miter;stroke-miterlimit:4;stroke-dasharray:none;stroke-dashoffset:0"
       inkscape:label="Border"
       d="M -32,-50 V 50.0001 H 32.000228 V -50 Z"
       sodipodi:insensitive="true"
       transform="translate(-32.528021,-151.2834)" /></g></svg>
