<?xml version="1.0" encoding="UTF-8" standalone="no"?>
<!-- Created with Inkscape (http://www.inkscape.org/) -->

<svg
   width="210mm"
   height="297mm"
   viewBox="0 0 210 297"
   version="1.1"
   id="svg1"
   xml:space="preserve"
   inkscape:version="1.4.2 (f4327f4, 2025-05-13)"
   sodipodi:docname="1st Fleet (4).svg"
   xmlns:inkscape="http://www.inkscape.org/namespaces/inkscape"
   xmlns:sodipodi="http://sodipodi.sourceforge.net/DTD/sodipodi-0.dtd"
   xmlns="http://www.w3.org/2000/svg"
   xmlns:svg="http://www.w3.org/2000/svg"><sodipodi:namedview
     id="namedview1"
     pagecolor="#505050"
     bordercolor="#eeeeee"
     borderopacity="1"
     inkscape:showpageshadow="0"
     inkscape:pageopacity="0"
     inkscape:pagecheckerboard="0"
     inkscape:deskcolor="#505050"
     inkscape:document-units="mm"
     inkscape:zoom="2.2299458"
     inkscape:cx="423.32868"
     inkscape:cy="543.7352"
     inkscape:window-width="1920"
     inkscape:window-height="1129"
     inkscape:window-x="-8"
     inkscape:window-y="-8"
     inkscape:window-maximized="1"
     inkscape:current-layer="layer1" /><defs
     id="defs1" /><g
     inkscape:label="Layer 1"
     inkscape:groupmode="layer"
     id="layer1"><path
       style="fill:#000000"
       d="m 108.5283,156.77354 c -0.85049,-1.7247 -1.47917,-2.47868 -2.72092,-3.26319 -0.88818,-0.56114 -1.61516,-1.12806 -1.61551,-1.25983 -3.4e-4,-0.13176 0.8725,-0.42083 1.93965,-0.64237 1.06715,-0.22154 1.93968,-0.58998 1.93896,-0.81876 -7.3e-4,-0.22878 -0.29603,-0.89221 -0.65623,-1.47429 -0.59612,-0.96333 -1.19848,-1.21331 -6.70969,-2.7846 -3.33012,-0.94945 -5.9689,-1.81213 -5.86395,-1.91708 0.10495,-0.10495 -0.32791,-0.73762 -0.96191,-1.40593 l -1.15274,-1.21511 3.30157,0.20135 c 1.81587,0.11075 3.19252,0.0915 3.05924,-0.0428 -0.13329,-0.13428 -1.85712,-0.96045 -3.83074,-1.83593 -3.39189,-1.5046 -3.63366,-1.68276 -4.41483,-3.25334 -0.45454,-0.91387 -0.77204,-1.80133 -0.70556,-1.97213 0.0665,-0.17081 1.82434,0.42007 3.90634,1.31307 3.62093,1.55305 3.88542,1.74111 6.08542,4.32695 1.26497,1.48683 2.29995,2.8065 2.29995,2.93259 0,0.12609 -0.27781,0.19261 -0.61736,0.14782 -0.85106,-0.11226 -4.74575,0.41968 -5.31826,0.72638 -0.27837,0.14912 0.64953,0.5742 2.29305,1.05049 1.51835,0.44001 4.08529,1.19523 5.70432,1.67828 l 2.94369,0.87827 0.97407,2.17336 c 0.53574,1.19535 1.13111,2.56795 1.32305,3.05021 0.34235,0.86015 0.35767,0.85008 0.80471,-0.52917 0.25065,-0.7733 0.82833,-2.14967 1.28374,-3.05859 0.91124,-1.81869 0.31582,-1.55373 9.42101,-4.19236 1.64352,-0.47629 2.57142,-0.90137 2.29305,-1.05049 -0.57251,-0.3067 -4.4672,-0.83864 -5.31826,-0.72638 -0.33955,0.0448 -0.61736,-0.0217 -0.61736,-0.14782 0,-0.12609 1.03498,-1.44576 2.29996,-2.93259 2.19999,-2.58584 2.46448,-2.7739 6.08541,-4.32695 2.08201,-0.893 3.83986,-1.48388 3.90634,-1.31307 0.0665,0.1708 -0.25102,1.05826 -0.70556,1.97213 -0.78117,1.57058 -1.02294,1.74874 -4.41483,3.25334 -1.97362,0.87548 -3.69745,1.70165 -3.83074,1.83593 -0.13328,0.13429 1.24338,0.15356 3.05924,0.0428 l 3.30157,-0.20135 -1.15273,1.21511 c -0.63401,0.66831 -1.06687,1.30098 -0.96192,1.40593 0.10495,0.10495 -2.53382,0.96763 -5.86395,1.91708 -5.51121,1.57129 -6.11357,1.82127 -6.70969,2.7846 -0.3602,0.58208 -0.6555,1.24538 -0.65623,1.474 -7.2e-4,0.22862 0.87181,0.61107 1.93896,0.84989 1.06715,0.23882 1.94,0.52802 1.93965,0.64266 -3.5e-4,0.11465 -0.72733,0.66756 -1.61551,1.2287 -1.24174,0.78451 -1.87043,1.53849 -2.72092,3.26319 -0.60832,1.23362 -1.27602,2.24295 -1.48377,2.24295 -0.20776,0 -0.87546,-1.00933 -1.48378,-2.24295 z m 2.77481,-0.52467 c 0.64052,-1.15626 1.67173,-2.40912 2.34754,-2.85212 1.39568,-0.91489 1.18842,-1.30486 -0.8681,-1.63341 l -1.46286,-0.23371 -0.57547,1.97954 c -0.3165,1.08875 -0.64597,1.97954 -0.73214,1.97954 -0.0862,0 -0.41564,-0.89079 -0.73215,-1.97954 l -0.57547,-1.97954 -1.46286,0.23371 c -2.05652,0.32855 -2.26378,0.71852 -0.8681,1.63341 0.67581,0.443 1.70702,1.69586 2.34754,2.85212 0.62827,1.13413 1.20923,2.06206 1.29104,2.06206 0.0818,0 0.66276,-0.92793 1.29103,-2.06206 z M 98.87062,143.64852 c 2.18625,-0.33146 1.15294,-0.79416 -1.92137,-0.86038 -3.26902,-0.0704 -3.1833,-0.0972 -2.2339,0.69934 0.51296,0.43039 1.17157,0.64089 1.71478,0.54805 0.48507,-0.0829 1.58329,-0.25705 2.44049,-0.38701 z m 26.39103,-0.15426 c 1.01983,-0.8022 1.09828,-0.77687 -2.18675,-0.70612 -3.17269,0.0683 -4.14733,0.55435 -1.7598,0.87754 0.96236,0.13027 1.9085,0.29121 2.10253,0.35765 0.70072,0.23992 0.96154,0.16509 1.84402,-0.52907 z m -26.13018,-3.26319 c -1.72318,-1.95398 -2.29082,-2.33974 -4.98869,-3.39022 -1.67434,-0.65194 -3.11708,-1.11253 -3.20609,-1.02352 -0.089,0.089 0.0569,0.68216 0.32434,1.3181 0.42178,1.00313 1.06491,1.42577 4.85611,3.19126 2.40346,1.11925 4.50242,2.05171 4.66435,2.07212 0.16193,0.0204 -0.58058,-0.95507 -1.65002,-2.16774 z m 24.60613,0.13023 c 3.97251,-1.81472 4.60224,-2.21917 5.02658,-3.22838 0.26681,-0.63456 0.41229,-1.22658 0.32328,-1.31559 -0.089,-0.089 -1.53175,0.37158 -3.20609,1.02352 -2.69786,1.05048 -3.26551,1.43624 -4.98869,3.39022 -1.06944,1.21267 -1.88866,2.20486 -1.82049,2.20486 0.0682,0 2.1676,-0.93358 4.66541,-2.07463 z m -14.66999,7.10171 c -0.0667,-0.14552 -1.70194,-1.7727 -3.63382,-3.61597 -1.93188,-1.84326 -3.97757,-3.98639 -4.54599,-4.7625 -0.56842,-0.77611 -1.7432,-2.1783 -2.61062,-3.11598 -1.43015,-1.54599 -1.55718,-1.82542 -1.36319,-2.99861 0.11766,-0.71156 0.21568,-1.80968 0.21781,-2.44027 0.002,-0.63059 0.12295,-1.1387 0.26847,-1.12912 0.14552,0.01 1.82949,1.49377 3.74215,3.29823 l 3.47756,3.28083 -0.90149,1.42805 c -1.36222,2.1579 -0.92036,3.19095 3.03412,7.09356 1.79271,1.76919 3.07426,3.21888 2.84789,3.22154 -0.22636,0.003 -0.46616,-0.11424 -0.53289,-0.25976 z m -6.39291,-7.76111 c -0.12129,-0.62695 0.0825,-1.45474 0.57623,-2.34003 l 0.76392,-1.36989 -3.175,-2.97199 -3.175,-2.97199 -0.25719,2.00303 -0.25719,2.00303 1.87019,2.16246 c 1.0286,1.18936 2.22671,2.6784 2.66246,3.30899 0.96827,1.40122 1.23781,1.44916 0.99158,0.17639 z m 10.59684,4.79933 c 3.95448,-3.90261 4.39634,-4.93566 3.03412,-7.09356 l -0.90149,-1.42805 3.47756,-3.28083 c 1.91266,-1.80446 3.59663,-3.28866 3.74215,-3.29823 0.14552,-0.01 0.26633,0.49853 0.26847,1.12912 0.002,0.63059 0.10015,1.72871 0.21781,2.44027 0.194,1.17319 0.067,1.45262 -1.36319,2.99861 -0.86742,0.93768 -2.04219,2.33987 -2.61061,3.11598 -0.56843,0.77611 -2.61412,2.91924 -4.546,4.7625 -1.93188,1.84327 -3.5671,3.47045 -3.63382,3.61597 -0.0667,0.14552 -0.30652,0.26241 -0.53289,0.25976 -0.22637,-0.003 1.05518,-1.45235 2.84789,-3.22154 z m 7.58133,-8.07441 2.02136,-2.36841 -0.25747,-2.00521 -0.25746,-2.0052 -3.175,2.97199 -3.175,2.97199 0.76392,1.36989 c 0.48965,0.87806 0.70599,1.74987 0.60257,2.42823 l -0.16134,1.05833 0.80854,-1.0266 c 0.44469,-0.56463 1.71814,-2.09239 2.82988,-3.39501 z m -11.85225,7.42779 c -0.51085,-0.77196 -0.92882,-1.56793 -0.92882,-1.76884 0,-0.57108 1.54681,-2.81611 1.94028,-2.81611 0.39346,0 1.94027,2.24503 1.94027,2.81611 0,0.3283 -1.73948,3.17238 -1.94027,3.17238 -0.0454,0 -0.50061,-0.63159 -1.01146,-1.40354 z m -3.01952,-3.51183 c -0.5651,-0.35763 -0.70879,-0.0922 2.0907,-3.86227 0.87312,-1.17585 1.74625,-2.13533 1.94028,-2.13218 0.33808,0.005 4.07154,4.78002 4.31956,5.52407 0.066,0.19796 -0.16454,0.47003 -0.51229,0.6046 -0.46178,0.17868 -0.8701,-0.0663 -1.51422,-0.90867 -0.48507,-0.63433 -1.21401,-1.54508 -1.61987,-2.02389 l -0.73792,-0.87056 -1.50932,1.99908 c -1.59984,2.11896 -1.6709,2.16726 -2.45692,1.66982 z m 2.40057,-2.26096 c 1.48442,-1.92409 1.69126,-2.34867 1.14414,-2.34867 -0.32425,0 -3.2179,3.59815 -3.2179,4.00134 0,0.65173 0.76833,0.0394 2.07376,-1.65267 z m 5.33457,1.65267 c 0,-0.41236 -2.89741,-4.00134 -3.23031,-4.00134 -0.42395,0 0.26355,1.26422 1.58273,2.91042 0.97568,1.21755 1.64758,1.66244 1.64758,1.09092 z m -6.84469,-7.62132 c -0.31774,-1.58871 -0.25709,-2.09877 0.23011,-1.93527 0.24253,0.0814 0.44097,0.66654 0.44097,1.30033 v 1.15233 h 2.46945 2.46944 v -1.15233 c 0,-0.63379 0.19844,-1.21893 0.44097,-1.30033 0.48721,-0.1635 0.54785,0.34656 0.23011,1.93527 l -0.21086,1.05433 h -2.92966 -2.92966 z m 0.98681,-0.6733 c -0.16916,-0.27371 -0.066,-0.34019 0.30616,-0.19736 0.30869,0.11845 0.75104,-0.0133 0.98301,-0.29283 0.53748,-0.64762 1.19161,-0.64762 1.72909,0 0.23197,0.27951 0.68797,0.4149 1.01333,0.30086 0.47015,-0.16479 0.50478,-0.11352 0.16871,0.2498 -0.34522,0.37321 -0.57472,0.35763 -1.25002,-0.0848 -0.71039,-0.46546 -0.92169,-0.47287 -1.49665,-0.0524 -0.81693,0.59735 -1.12196,0.61347 -1.45363,0.0768 z"
       id="path1" /></g></svg>
