<?xml version="1.0" encoding="UTF-8" standalone="no"?>
<!-- Created with Inkscape (http://www.inkscape.org/) -->

<svg
   width="210mm"
   height="297mm"
   viewBox="0 0 210 297"
   version="1.1"
   id="svg1"
   xml:space="preserve"
   inkscape:version="1.4.2 (f4327f4, 2025-05-13)"
   sodipodi:docname="1st Fleet (4).svg"
   xmlns:inkscape="http://www.inkscape.org/namespaces/inkscape"
   xmlns:sodipodi="http://sodipodi.sourceforge.net/DTD/sodipodi-0.dtd"
   xmlns="http://www.w3.org/2000/svg"
   xmlns:svg="http://www.w3.org/2000/svg"><sodipodi:namedview
     id="namedview1"
     pagecolor="#505050"
     bordercolor="#eeeeee"
     borderopacity="1"
     inkscape:showpageshadow="0"
     inkscape:pageopacity="0"
     inkscape:pagecheckerboard="0"
     inkscape:deskcolor="#505050"
     inkscape:document-units="mm"
     inkscape:zoom="2.2299458"
     inkscape:cx="423.32868"
     inkscape:cy="507.85989"
     inkscape:window-width="1920"
     inkscape:window-height="1129"
     inkscape:window-x="-8"
     inkscape:window-y="-8"
     inkscape:window-maximized="1"
     inkscape:current-layer="layer1" /><defs
     id="defs1" /><g
     inkscape:label="Layer 1"
     inkscape:groupmode="layer"
     id="layer1"><path
       style="fill:#000000"
       d="m 109.27863,153.11685 c -0.79987,-0.32276 -0.47978,-1.17748 0.44097,-1.17748 0.82119,0 0.88194,-0.11951 0.88194,-1.73503 0,-2.28169 -0.25412,-2.85108 -1.27246,-2.85108 -0.51522,0 -0.8442,-0.20621 -0.8442,-0.52916 0,-0.39741 0.42469,-0.52917 1.70555,-0.52917 h 1.70555 l -0.16338,2.82222 -0.16338,2.82222 h 0.97904 0.97904 l -0.22861,-2.70447 c -0.3377,-3.99489 -1.1617,-6.29535 -2.6004,-7.2598 -0.92347,-0.61907 -1.14398,-0.97146 -0.99444,-1.5892 0.10568,-0.43656 0.29002,-1.19062 0.40965,-1.67569 0.18792,-0.76196 0.0986,-0.88195 -0.6565,-0.88195 -0.48071,0 -2.12448,0.39688 -3.65282,0.88195 -2.79167,0.88602 -4.19286,1.06501 -5.22795,0.66781 -1.019449,-0.3912 -0.602499,-0.94129 0.54023,-0.71275 1.24876,0.24976 7.2893,-1.42708 6.78876,-1.88453 -0.16626,-0.15195 -1.40099,-0.63539 -2.74384,-1.07432 -2.27298,-0.74294 -2.39477,-0.83361 -1.76389,-1.31316 0.37272,-0.28331 1.11423,-0.67374 1.6478,-0.86762 1.37575,-0.49989 1.20438,-0.85929 -0.52916,-1.10979 -0.82462,-0.11916 -2.09462,-0.38632 -2.82222,-0.5937 -1.2005,-0.34216 -1.32292,-0.48978 -1.32292,-1.59519 0,-0.66998 0.13592,-1.21814 0.30205,-1.21814 0.16612,0 1.05013,0.5712 1.96445,1.26934 0.91432,0.69814 1.75736,1.17439 1.87342,1.05833 0.11605,-0.11605 0.0314,-0.21101 -0.18816,-0.21101 -0.21954,0 -0.58021,-0.3383 -0.8015,-0.75178 -0.38661,-0.72239 -0.34916,-0.74206 0.95772,-0.50288 1.21113,0.22166 4.00591,2.34016 4.00591,3.03657 0,0.12518 -0.635,0.51395 -1.41111,0.86393 -0.77611,0.34997 -1.41111,0.74583 -1.41111,0.87967 0,0.13384 0.94682,0.53002 2.10405,0.8804 1.15724,0.35038 2.40898,0.97083 2.78165,1.37877 0.37267,0.40794 1.20585,2.3689 1.85152,4.35769 0.64566,1.98878 1.26516,3.61597 1.37666,3.61597 0.11151,0 0.73101,-1.62719 1.37667,-3.61597 0.64566,-1.98879 1.47885,-3.94975 1.85152,-4.35769 0.37267,-0.40794 1.62441,-1.02839 2.78165,-1.37877 1.15723,-0.35038 2.10405,-0.74656 2.10405,-0.8804 0,-0.13384 -0.635,-0.5297 -1.41111,-0.87967 -0.77611,-0.34998 -1.41111,-0.73875 -1.41111,-0.86393 0,-0.69641 2.79478,-2.81491 4.00591,-3.03657 1.30688,-0.23918 1.34433,-0.21951 0.95772,0.50288 -0.22129,0.41348 -0.58196,0.75178 -0.8015,0.75178 -0.21954,0 -0.30421,0.095 -0.18816,0.21101 0.11606,0.11606 0.9591,-0.36019 1.87342,-1.05833 0.91432,-0.69814 1.79833,-1.26934 1.96445,-1.26934 0.16613,0 0.30205,0.54816 0.30205,1.21814 0,1.10541 -0.12242,1.25303 -1.32292,1.59519 -0.7276,0.20738 -1.9976,0.47454 -2.82222,0.5937 -1.73355,0.2505 -1.90491,0.6099 -0.52916,1.10979 0.53357,0.19388 1.27508,0.58431 1.6478,0.86762 0.63088,0.47955 0.50909,0.57022 -1.76389,1.31316 -1.34285,0.43893 -2.57758,0.92237 -2.74384,1.07432 -0.50054,0.45745 5.54,2.13429 6.78876,1.88453 1.14273,-0.22854 1.55968,0.32155 0.54023,0.71275 -1.03509,0.3972 -2.43628,0.21821 -5.22795,-0.66781 -1.52834,-0.48507 -3.17211,-0.88195 -3.65282,-0.88195 -0.75511,0 -0.84443,0.11999 -0.6565,0.88195 0.11963,0.48507 0.30397,1.23913 0.40965,1.67569 0.14954,0.61774 -0.071,0.97013 -0.99444,1.5892 -1.4387,0.96445 -2.2627,3.26491 -2.6004,7.2598 l -0.22861,2.70447 h 0.97904 0.97904 l -0.16338,-2.82222 -0.16338,-2.82222 h 1.70555 c 1.28086,0 1.70555,0.13176 1.70555,0.52917 0,0.32295 -0.32898,0.52916 -0.8442,0.52916 -1.01834,0 -1.27247,0.56939 -1.27247,2.85108 0,1.61552 0.0608,1.73503 0.88195,1.73503 0.98486,0 1.21614,0.85461 0.32392,1.19698 -0.66207,0.25407 -8.24208,0.23741 -8.87878,-0.0195 z m 3.14015,-19.28399 c -0.45573,-0.48772 -1.32885,-1.0866 -1.94028,-1.33085 -2.08945,-0.8347 -3.63472,-2.32379 -4.08671,-3.93815 -0.37202,-1.32872 -0.33622,-1.74741 0.28392,-3.32072 0.83277,-2.11275 0.80806,-2.16208 -2.15958,-4.31202 -1.52472,-1.10461 -2.02847,-1.68582 -2.02847,-2.34037 0,-1.45743 1.14351,-1.03877 3.27964,1.20074 2.32938,2.44211 2.66029,3.40292 1.87772,5.45206 -0.31419,0.82269 -0.57125,1.7469 -0.57125,2.05379 0,0.92753 1.38414,2.38994 3.1216,3.29812 2.64469,1.38238 3.30326,2.03573 3.16984,3.14471 l -0.11783,0.97945 z m 1.63543,0.62769 c -0.5573,-0.5573 0.30823,-2.0162 1.71643,-2.89312 0.85769,-0.53411 2.0655,-1.29218 2.68402,-1.68461 0.61852,-0.39242 1.36203,-1.13654 1.65225,-1.65361 0.47565,-0.84743 0.46419,-1.11664 -0.11621,-2.7307 -0.85239,-2.37042 -0.58912,-3.20742 1.79509,-5.70702 2.13613,-2.23951 3.27964,-2.65817 3.27964,-1.20074 0,0.65455 -0.50375,1.23576 -2.02847,2.34037 -2.96764,2.14994 -2.99235,2.19927 -2.15958,4.31202 0.62014,1.57331 0.65594,1.992 0.28392,3.32072 -0.43955,1.56992 -2.14046,3.26564 -3.79196,3.78037 -0.44931,0.14005 -1.33928,0.71325 -1.97771,1.2738 -0.63842,0.56055 -1.24027,0.93968 -1.33742,0.84252 z m -3.4415,-5.36354 c 0.0381,-0.904 2.76959,-6.61458 3.16383,-6.61458 0.26798,0 1.06615,1.3959 1.81545,3.175 1.51688,3.60155 1.54095,3.70417 0.86891,3.70417 -0.26986,0 -0.94019,-1.03188 -1.48962,-2.29306 -0.54943,-1.26118 -1.08706,-2.29306 -1.19474,-2.29306 -0.10767,0 -0.6453,1.03188 -1.19473,2.29306 -0.54943,1.26118 -1.21976,2.29306 -1.48962,2.29306 -0.26985,0 -0.48562,-0.11907 -0.47948,-0.26459 z"
       id="path1" /></g></svg>
