<?xml version="1.0" encoding="UTF-8" standalone="no"?>
<!-- Created with Inkscape (http://www.inkscape.org/) -->

<svg
   width="210mm"
   height="297mm"
   viewBox="0 0 210 297"
   version="1.1"
   id="svg1"
   xml:space="preserve"
   inkscape:version="1.4.2 (f4327f4, 2025-05-13)"
   sodipodi:docname="1st Fleet (4).svg"
   xmlns:inkscape="http://www.inkscape.org/namespaces/inkscape"
   xmlns:sodipodi="http://sodipodi.sourceforge.net/DTD/sodipodi-0.dtd"
   xmlns="http://www.w3.org/2000/svg"
   xmlns:svg="http://www.w3.org/2000/svg"><sodipodi:namedview
     id="namedview1"
     pagecolor="#505050"
     bordercolor="#eeeeee"
     borderopacity="1"
     inkscape:showpageshadow="0"
     inkscape:pageopacity="0"
     inkscape:pagecheckerboard="0"
     inkscape:deskcolor="#505050"
     inkscape:document-units="mm"
     inkscape:zoom="2.2299458"
     inkscape:cx="423.32868"
     inkscape:cy="507.85989"
     inkscape:window-width="1920"
     inkscape:window-height="1129"
     inkscape:window-x="-8"
     inkscape:window-y="-8"
     inkscape:window-maximized="1"
     inkscape:current-layer="layer1" /><defs
     id="defs1" /><g
     inkscape:label="Layer 1"
     inkscape:groupmode="layer"
     id="layer1"><path
       style="fill:#000000"
       d="m 111.45744,152.71134 c -0.19577,-0.4518 -0.9625,-2.32959 -1.70385,-4.17285 l -1.34789,-3.35139 -4.29004,-2.11667 c -2.35953,-1.16416 -4.293822,-2.30029 -4.298442,-2.52471 -0.005,-0.22443 1.221922,-0.91536 2.725632,-1.53541 5.94574,-2.45166 5.24282,-1.83845 7.27536,-6.34682 1.1061,-2.45341 2.03014,-4.05695 2.33784,-4.05695 0.3077,0 1.23174,1.60354 2.33783,4.05695 2.03255,4.50837 1.32962,3.89516 7.27536,6.34682 1.50372,0.62005 2.73284,1.31098 2.73138,1.53541 -0.001,0.22442 -1.93689,1.36055 -4.30098,2.52471 l -4.29833,2.11667 -1.61736,4.03065 c -0.88954,2.21686 -1.80932,4.09464 -2.04395,4.17285 -0.23464,0.0782 -0.58678,-0.22746 -0.78256,-0.67926 z m 2.3361,-4.61382 1.401,-3.61597 3.99036,-1.96012 3.99035,-1.96012 -3.7709,-1.56766 -3.77089,-1.56766 -1.65051,-3.78561 c -0.90778,-2.08208 -1.72989,-3.78696 -1.8269,-3.78862 -0.097,-0.002 -0.90669,1.69814 -1.79929,3.77735 l -1.62289,3.78036 -3.79851,1.57592 -3.79852,1.57592 3.99036,1.96012 3.99035,1.96012 1.40101,3.61597 c 0.77055,1.98878 1.50742,3.61597 1.63749,3.61597 0.13006,0 0.86693,-1.62719 1.63749,-3.61597 z m -19.099992,4.04103 c -1.438502,-0.17051 -3.351389,-2.05206 -3.351389,-3.29648 0,-1.00972 1.089042,-2.06747 2.128641,-2.06747 0.79347,0 2.16486,1.36812 2.036186,2.03132 -0.165542,0.85323 -0.989827,0.95912 -0.989827,0.12716 0,-0.91385 -1.136,-1.58692 -1.709845,-1.01308 -1.116768,1.11677 0.422158,3.44071 2.278454,3.44071 1.715987,0 2.585523,-2.80182 1.664457,-5.36322 -0.614542,-1.70898 -0.648579,-1.7372 -1.828415,-1.51586 -0.661219,0.12404 -1.813359,0.61133 -2.560312,1.08286 -1.077313,0.68008 -1.830893,0.85733 -3.644928,0.85733 -2.749217,0 -6.007941,-1.10173 -6.598151,-2.23074 -0.220777,-0.42233 -1.020799,-1.44652 -1.777827,-2.27598 -0.757028,-0.82946 -1.280749,-1.66289 -1.163826,-1.85208 0.116924,-0.18919 1.605081,-0.34398 3.307016,-0.34398 2.590712,0 3.860417,0.22971 7.800044,1.41112 2.588088,0.77611 4.822614,1.41111 4.965614,1.41111 0.142999,0 0.184367,-0.27782 0.09193,-0.61736 -0.178991,-0.65749 -2.401305,-1.85209 -3.445432,-1.85209 -0.3444,0 -1.406249,-0.43656 -2.359663,-0.97014 -1.736008,-0.97155 -2.419947,-2.14313 -2.425481,-4.15483 -0.0011,-0.39339 -0.22037,-1.02839 -0.487307,-1.41112 -0.731504,-1.04879 -1.122083,-4.40002 -0.512814,-4.40002 0.263541,0 2.500938,2.02627 4.971992,4.50282 3.173702,3.18077 4.492827,4.74344 4.492827,5.32235 0,0.45074 0.624076,2.62456 1.386836,4.83072 1.21929,3.52659 1.34284,4.17053 1.02267,5.3301 -0.382483,1.38523 -1.283046,2.83566 -1.880339,3.02844 -0.194028,0.0626 -0.829028,0.0574 -1.411111,-0.0116 z M 127.54089,151.466 c -1.60814,-1.82569 -1.63487,-3.03672 -0.16551,-7.49953 0.7372,-2.23907 1.34506,-4.4702 1.3508,-4.95807 0.008,-0.65986 1.16363,-2.03768 4.51324,-5.37986 2.47656,-2.47106 4.71395,-4.49283 4.972,-4.49283 0.58002,0 0.21434,3.28812 -0.48947,4.40118 -0.24835,0.39276 -0.56045,1.54414 -0.69356,2.55864 -0.23289,1.77483 -0.31243,1.88482 -2.10499,2.91042 -1.02463,0.58623 -2.14882,1.06587 -2.49819,1.06587 -1.05164,0 -3.27476,1.19191 -3.45449,1.85209 -0.0924,0.33954 -0.0598,0.61736 0.0725,0.61736 0.13233,0 2.37965,-0.63276 4.99406,-1.40614 3.93114,-1.16288 5.28385,-1.40699 7.81944,-1.41111 1.84313,-0.003 3.16106,0.14885 3.30435,0.38071 0.13111,0.21212 -0.39661,1.04556 -1.1727,1.85208 -0.77608,0.80652 -1.5877,1.81194 -1.8036,2.23427 -0.57677,1.12825 -3.83337,2.23074 -6.58928,2.23074 -1.81403,0 -2.56761,-0.17725 -3.64492,-0.85733 -0.74696,-0.47153 -1.8991,-0.95882 -2.56032,-1.08286 -1.17983,-0.22134 -1.21387,-0.19312 -1.82841,1.51586 -1.34831,3.74954 0.82825,6.6709 3.4397,4.61674 1.26601,-0.99585 1.1744,-2.60491 -0.1483,-2.60491 -0.65261,0 -0.91195,0.21169 -0.99734,0.81408 -0.12597,0.88868 -0.87744,0.87618 -1.05082,-0.0175 -0.12868,-0.6632 1.24271,-2.03132 2.03618,-2.03132 1.0396,0 2.12865,1.05775 2.12865,2.06747 0,1.28559 -1.90465,3.09066 -3.48877,3.30639 -0.94271,0.12837 -1.35325,-0.016 -1.94028,-0.68246 z m -25.19952,-20.41027 -3.288292,-3.70559 -0.20414,-3.86972 c -0.1348,-2.55519 -0.0805,-3.86971 0.15972,-3.86971 0.20013,0 1.811412,1.7663 3.580632,3.92512 l 3.21676,3.92511 v 3.65961 c 0,2.01278 -0.0397,3.65537 -0.0882,3.65019 -0.0485,-0.005 -1.56792,-1.67694 -3.37648,-3.71501 z m 16.16468,-0.0822 v -3.51262 l 3.21676,-3.92511 c 1.76922,-2.15882 3.3792,-3.92512 3.57773,-3.92512 0.23537,0 0.29703,1.34922 0.1772,3.87742 l -0.18379,3.87741 -3.10389,3.44273 c -1.70714,1.89349 -3.23442,3.49564 -3.39395,3.56031 -0.15954,0.0647 -0.29006,-1.46308 -0.29006,-3.39502 z"
       id="path1" /></g></svg>
