<?xml version="1.0" encoding="UTF-8" standalone="no"?>
<!-- Created with Inkscape (http://www.inkscape.org/) -->

<svg
   width="210mm"
   height="297mm"
   viewBox="0 0 210 297"
   version="1.1"
   id="svg1"
   xml:space="preserve"
   inkscape:version="1.4.2 (f4327f4, 2025-05-13)"
   sodipodi:docname="1st Fleet (4).svg"
   xmlns:inkscape="http://www.inkscape.org/namespaces/inkscape"
   xmlns:sodipodi="http://sodipodi.sourceforge.net/DTD/sodipodi-0.dtd"
   xmlns="http://www.w3.org/2000/svg"
   xmlns:svg="http://www.w3.org/2000/svg"><sodipodi:namedview
     id="namedview1"
     pagecolor="#505050"
     bordercolor="#eeeeee"
     borderopacity="1"
     inkscape:showpageshadow="0"
     inkscape:pageopacity="0"
     inkscape:pagecheckerboard="0"
     inkscape:deskcolor="#505050"
     inkscape:document-units="mm"
     inkscape:zoom="2.2299458"
     inkscape:cx="423.32868"
     inkscape:cy="507.85989"
     inkscape:window-width="1920"
     inkscape:window-height="1129"
     inkscape:window-x="-8"
     inkscape:window-y="-8"
     inkscape:window-maximized="1"
     inkscape:current-layer="layer1" /><defs
     id="defs1" /><g
     inkscape:label="Layer 1"
     inkscape:groupmode="layer"
     id="layer1"><path
       style="fill:#000000"
       d="m 100.90477,153.81077 c -1.122209,-0.45007 -0.7348,-0.87859 1.43792,-1.59049 1.01637,-0.33302 2.87981,-1.12069 4.14099,-1.75037 2.20914,-1.10299 4.93889,-2.04896 4.93889,-1.71154 0,0.53817 -3.06209,4.16999 -3.99591,4.73939 -1.22074,0.74434 -4.99479,0.92548 -6.52189,0.31301 z m -8.003029,-0.56444 c -2.39881,-0.50727 -2.36602,-0.49069 -1.95345,-0.98781 0.22102,-0.26632 1.14785,-0.83504 2.0596,-1.26383 1.47487,-0.69361 2.00166,-0.75368 4.77551,-0.54456 6.048679,0.45601 6.192849,0.65718 1.53832,2.14656 -2.53596,0.81147 -4.64531,1.02492 -6.41998,0.64964 z m 6.96736,-3.53569 c -1.21267,-0.31692 -2.20486,-0.7138 -2.20486,-0.88196 0,-0.51353 3.230039,-2.38902 5.107889,-2.96584 1.55709,-0.4783 2.34715,-0.48739 6.53377,-0.0752 l 4.7625,0.46888 -3.88055,1.86758 c -4.53442,2.18226 -6.74107,2.52154 -10.318749,1.58654 z m 14.356699,-2.01039 c 0.66865,-0.70314 1.06553,-1.28086 0.88195,-1.28384 -0.18359,-0.003 -0.10854,-0.14797 0.16676,-0.32222 0.62402,-0.39497 -0.73703,-0.57636 -8.07323,-1.07593 -3.00081,-0.20434 -5.61225,-0.52776 -5.8032,-0.71871 -0.22772,-0.22772 -0.17724,-0.34718 0.14671,-0.34718 0.3114,0 0.37006,-0.12324 0.15875,-0.33353 -0.18432,-0.18344 -1.08907,-0.38188 -2.010549,-0.44097 -0.92147,-0.0591 -1.67553,-0.19118 -1.67569,-0.29352 -1.6e-4,-0.10235 1.07128,-0.65327 2.380969,-1.22426 3.01451,-1.31427 6.04028,-1.37306 10.13692,-0.19696 2.08131,0.59752 3.37504,0.76385 4.95483,0.63704 2.55775,-0.20531 3.67434,-0.73968 6.09702,-2.91787 1.00648,-0.90492 1.83471,-1.51154 1.8405,-1.34804 0.006,0.16351 0.65065,-0.4171 1.43302,-1.29022 0.85829,-0.95785 1.24416,-1.23769 0.97286,-0.70556 -0.2473,0.48507 -0.40975,1.01948 -0.36101,1.18757 0.0488,0.1681 -0.14529,0.66264 -0.4312,1.09899 -0.35107,0.5358 -0.40379,0.90941 -0.16239,1.1508 0.55262,0.55263 -1.15569,3.59659 -3.11406,5.54877 -1.80894,1.80323 -5.02315,3.51578 -7.34358,3.9127 l -1.41111,0.24138 z m -4.224,-7.07585 c -1.26649,-0.44331 -2.85399,-1.09275 -3.52777,-1.44321 -0.72195,-0.37551 -2.48447,-0.74273 -4.29164,-0.89415 -2.497639,-0.20928 -3.422619,-0.46066 -4.985739,-1.35499 -3.38629,-1.93744 -3.31052,-2.1519 0.76027,-2.1519 h 3.554069 l 2.22176,1.53093 c 1.22197,0.84202 3.09489,2.01475 4.16204,2.60607 1.97175,1.09256 6.00531,2.01628 7.48805,1.71482 0.44123,-0.0897 1.23197,-0.25375 1.75722,-0.36455 0.8538,-0.1801 3.09617,-2.14247 3.10032,-2.7132 9e-4,-0.1235 -0.47461,-0.29444 -1.0567,-0.37988 -1.20963,-0.17753 -1.321,-0.0191 -0.44097,0.62737 0.56478,0.41489 0.52723,0.48844 -0.44097,0.86361 -3.40167,1.31812 -6.00587,0.19425 -8.11972,-3.50415 -0.22214,-0.38866 -0.13498,-0.43946 0.38893,-0.22665 0.37138,0.15085 1.59592,0.49532 2.7212,0.76549 1.12528,0.27017 2.52909,0.74106 3.11958,1.04642 0.5905,0.30535 1.16097,0.46785 1.26773,0.36109 0.10675,-0.10675 -0.10644,-0.30889 -0.47376,-0.44919 -0.36732,-0.14031 -0.8266,-0.38758 -1.02063,-0.54951 -0.19403,-0.16192 -0.67028,-0.52206 -1.05833,-0.80032 -0.62464,-0.44789 -0.0785,-0.50545 4.7625,-0.50186 l 5.46805,0.004 -1.94027,1.76962 c -3.07803,2.80729 -4.05219,3.48612 -6.0516,4.21693 -2.41117,0.88131 -4.49147,0.83248 -7.36362,-0.17285 z m -0.3636,-1.92354 c -1.69839,-0.5435 -6.32952,-3.29273 -6.32952,-3.75747 0,-0.0898 0.9223,-0.16324 2.04956,-0.16324 1.89703,0 2.18194,0.11158 3.82838,1.49931 0.97835,0.82461 2.23886,1.84767 2.80114,2.27345 0.88316,0.66878 0.92628,0.77424 0.31676,0.77478 -0.38806,3.5e-4 -1.5879,-0.28173 -2.66632,-0.62683 z m -16.208059,-4.36168 c 4.2e-4,-0.14552 -0.23736,-0.26459 -0.5284,-0.26459 -0.29104,0 -0.52917,-0.15875 -0.52917,-0.35277 0,-0.50626 5.18012,-0.39077 6.87917,0.15336 1.374349,0.44015 1.316899,0.45552 -2.20563,0.59025 -1.98921,0.0761 -3.6164,0.0193 -3.61597,-0.12625 z m 7.902499,-1.21017 c -1.26818,-1.38453 -1.343009,-1.81458 -0.21024,-1.20834 0.38299,0.20497 2.02378,0.60744 3.64618,0.89436 1.6224,0.28693 3.50545,0.6448 4.18455,0.79528 1.21739,0.26976 1.20749,0.27693 -0.70556,0.51044 -1.06715,0.13027 -2.79199,0.25255 -3.83297,0.27173 -1.74954,0.0323 -1.98266,-0.0633 -3.08196,-1.26347 z m 9.96034,0.50322 -1.71709,-0.73804 1.71709,-0.49869 c 2.32163,-0.67426 6.76241,-0.94024 8.35526,-0.50043 0.71463,0.19732 1.29933,0.24007 1.29933,0.095 0,-0.36144 -3.28242,-1.09049 -4.90973,-1.09049 -0.73048,0 -2.10743,0.23641 -3.0599,0.52535 -1.01378,0.30755 -3.14237,0.52693 -5.13418,0.52917 -4.1348,0.005 -6.96443,-0.78331 -10.003129,-2.78551 -2.24842,-1.48148 -5.02734,-4.11899 -4.69256,-4.45376 0.11026,-0.11027 1.15613,0.12145 2.32414,0.51492 3.53817,1.19193 7.958369,1.78928 13.240009,1.78928 5.04441,0 8.78163,0.59408 10.28537,1.63499 1.14069,0.7896 1.26488,0.54868 0.25179,-0.48846 -0.5212,-0.53358 -1.03097,-0.85985 -1.13281,-0.72504 -0.10184,0.1348 -1.36111,-0.0636 -2.79836,-0.44097 -1.43726,-0.37734 -3.30906,-0.68608 -4.15956,-0.68608 -0.85049,0 -1.84984,-0.16242 -2.22078,-0.36094 -0.51502,-0.27563 -0.63272,-0.25228 -0.49801,0.0988 0.2306,0.60091 -1.395,0.746 -2.42363,0.21631 -1.01524,-0.52279 -2.33376,-1.73522 -2.77246,-2.54937 -0.32981,-0.61207 -0.23365,-0.63854 1.46913,-0.40435 l 1.82204,0.2506 -1.27559,-1.67111 c -1.4024,-1.83725 -2.43935,-3.6755 -2.20534,-3.90951 0.24822,-0.24822 5.27813,1.98805 6.60467,2.9364 0.6791,0.48549 0.20285,-0.0881 -1.05833,-1.2747 l -2.29306,-2.15741 1.90142,0.69333 c 1.04578,0.38134 2.24664,1.01765 2.66857,1.41404 1.45333,1.36533 1.31314,0.71723 -0.21577,-0.99747 -2.06343,-2.31419 -4.64405,-6.04294 -4.18224,-6.04294 0.20498,0 1.36138,0.45211 2.5698,1.0047 4.54564,2.07863 11.10048,7.87298 12.63165,11.16613 0.36085,0.77612 0.83113,2.32442 1.04505,3.44068 0.45202,2.35868 0.96875,2.77053 3.11497,2.48266 l 1.5028,-0.20157 -1.0964,-0.531 c -0.60301,-0.29205 -1.24731,-0.813 -1.43177,-1.15767 -0.27885,-0.52103 -0.15678,-0.66589 0.72414,-0.85938 l 1.05953,-0.23271 -0.70907,-0.99579 c -0.83467,-1.1722 -0.87477,-1.41605 -0.23283,-1.41605 1.01322,0 3.42416,2.12769 3.64133,3.21351 0.14082,0.70414 0.30977,0.92394 0.48823,0.6352 0.21023,-0.34016 0.50006,-0.29267 1.2624,0.20682 l 0.98951,0.64836 -1.47862,0.62797 c -0.9126,0.38759 -1.85379,1.17017 -2.45871,2.04439 -0.98426,1.42244 -1.66432,1.90498 -1.28253,0.91003 0.13965,-0.36391 0.0421,-0.47081 -0.30733,-0.33673 -0.28155,0.10805 -0.71554,-0.0489 -0.96441,-0.34877 -0.24888,-0.29987 -0.6315,-0.54875 -0.85027,-0.55307 -0.21878,-0.004 -0.79466,-0.32627 -1.27972,-0.71546 -2.10344,-1.68767 -2.95953,-2.11975 -1.49931,-0.75673 1.65739,1.54707 1.79325,1.83024 0.88194,1.83822 -1.01831,0.009 0.20271,0.62768 1.75668,0.89022 0.73157,0.1236 1.33013,0.36952 1.33013,0.54649 0,0.18313 -2.77401,0.30947 -6.43819,0.29322 -5.71156,-0.0253 -6.632,-0.11185 -8.15529,-0.76659 z m 6.17806,-8.81805 c -0.39798,-0.63059 -1.70838,-1.93533 -2.912,-2.89942 -2.54836,-2.04121 -2.70119,-1.67914 -0.19974,0.47321 0.9361,0.80546 2.10115,1.93883 2.589,2.51861 1.16812,1.38823 1.42818,1.34226 0.52274,-0.0924 z"
       id="path1" /></g></svg>
