<?xml version="1.0" encoding="UTF-8" standalone="no"?>
<!-- Created with Inkscape (http://www.inkscape.org/) -->

<svg
   width="210mm"
   height="297mm"
   viewBox="0 0 210 297"
   version="1.1"
   id="svg1"
   xml:space="preserve"
   inkscape:version="1.4.2 (f4327f4, 2025-05-13)"
   xmlns:inkscape="http://www.inkscape.org/namespaces/inkscape"
   xmlns:sodipodi="http://sodipodi.sourceforge.net/DTD/sodipodi-0.dtd"
   xmlns="http://www.w3.org/2000/svg"
   xmlns:svg="http://www.w3.org/2000/svg"><sodipodi:namedview
     id="namedview1"
     pagecolor="#505050"
     bordercolor="#eeeeee"
     borderopacity="1"
     inkscape:showpageshadow="0"
     inkscape:pageopacity="0"
     inkscape:pagecheckerboard="0"
     inkscape:deskcolor="#505050"
     inkscape:document-units="mm"
     inkscape:zoom="2.2299458"
     inkscape:cx="423.32868"
     inkscape:cy="543.7352"
     inkscape:window-width="1920"
     inkscape:window-height="1129"
     inkscape:window-x="-8"
     inkscape:window-y="-8"
     inkscape:window-maximized="1"
     inkscape:current-layer="layer1" /><defs
     id="defs1" /><g
     inkscape:label="Layer 1"
     inkscape:groupmode="layer"
     id="layer1"><path
       style="fill:#000000"
       d="m 94.845429,184.60861 c -1.795114,-0.79305 -2.555886,-2.19148 -2.571991,-4.72776 -0.02425,-3.81883 2.954217,-7.69117 3.875467,-5.03855 0.16507,0.47531 -0.0711,1.31739 -0.52475,1.87131 -1.047979,1.27949 -1.101957,5.05263 -0.0785,5.48657 0.41051,0.17406 1.32526,0.10288 2.03278,-0.15818 1.74162,-0.64262 5.877185,-4.26211 5.732285,-5.01695 -0.0641,-0.33393 -3.550825,-3.96217 -7.748285,-8.06275 -4.197461,-4.10059 -9.048915,-9.07659 -10.781008,-11.05778 -1.732093,-1.9812 -3.34117,-3.60218 -3.575727,-3.60218 -0.234558,0 -2.111908,1.51785 -4.17189,3.37299 -2.059982,1.85515 -4.016289,3.37299 -4.347348,3.37299 -0.544258,0 -7.246586,-8.8375 -12.110199,-15.96818 -3.215008,-4.7136 -2.444799,-4.78625 10.185312,-0.96064 l 10.809321,3.2741 v -1.55913 c 0,-0.85753 0.129702,-1.9326 0.288227,-2.38906 0.222513,-0.6407 -1.248206,-1.39579 -6.450638,-3.31188 -3.706376,-1.36509 -6.901528,-2.84638 -7.100338,-3.29176 -2.092991,-4.68882 -6.083705,-15.07214 -6.078141,-15.81453 0.0039,-0.52283 0.214762,-1.0924 0.468542,-1.2657 0.253779,-0.1733 4.432162,1.55987 9.285295,3.85149 l 8.823878,4.16657 1.079047,4.12223 c 1.078951,4.12186 1.079231,4.12226 3.156217,4.51403 3.932055,0.74168 4.16639,1.08186 4.105745,5.96026 -0.02965,2.38535 -0.201367,6.96313 -0.381587,10.17285 l -0.327673,5.83585 8.539255,8.41169 c 4.696595,4.62643 8.817735,8.28878 9.158095,8.13855 0.34037,-0.15023 4.28208,-3.87888 8.75938,-8.28589 l 8.14053,-8.01274 -0.14882,-7.92923 c -0.0818,-4.36108 -0.27087,-8.85953 -0.42006,-9.99654 -0.23169,-1.76578 -0.0829,-2.20363 1.0198,-3.00199 0.71008,-0.51408 2.18879,-1.06773 3.28603,-1.23034 1.98015,-0.29346 2.00157,-0.32337 2.88321,-4.02508 0.48853,-2.05118 1.14494,-4.03533 1.4587,-4.40924 0.89368,-1.06501 17.21808,-8.51305 17.96476,-8.19646 1.06653,0.45221 0.84029,1.28975 -2.3852,8.83019 -1.67898,3.92507 -3.0527,7.48062 -3.0527,7.90123 0,0.48163 -2.49561,1.68262 -6.74138,3.24423 l -6.74138,2.47951 -0.15815,2.06918 c -0.10768,1.40882 0.0761,2.16852 0.57601,2.38046 0.40379,0.17121 5.37293,-1.08828 11.04252,-2.79886 5.6696,-1.71058 10.50459,-2.97614 10.74442,-2.81236 0.23983,0.16377 0.43606,0.63574 0.43606,1.04882 0,0.91919 -12.61433,18.28687 -13.57904,18.6959 -0.37951,0.16092 -2.41872,-1.28738 -4.53157,-3.21844 -3.67558,-3.35933 -3.89836,-3.4775 -5.15642,-2.73533 -0.72318,0.42662 -1.41084,1.17978 -1.52815,1.67369 -0.1173,0.4939 -4.67331,5.27352 -10.12447,10.62136 l -9.91119,9.72336 1.59956,1.82347 c 2.12485,2.4223 5.37745,4.05248 6.51544,3.26549 1.30631,-0.90342 1.34108,-3.49122 0.0724,-5.38728 -0.82537,-1.23351 -0.96292,-1.82273 -0.53572,-2.29476 1.48897,-1.64518 4.34567,3.09713 3.83521,6.36669 -0.43756,2.80262 -1.86722,4.21236 -4.18416,4.12586 -1.9011,-0.071 -6.73601,-2.65303 -6.73601,-3.59732 0,-0.27482 -0.65688,-0.875 -1.45974,-1.33373 -1.40355,-0.80196 -1.53925,-0.75887 -3.5253,1.11948 -1.96775,1.86104 -5.885345,4.18476 -6.971355,4.13505 -0.27983,-0.0128 -1.0604,-0.26698 -1.734586,-0.56483 z M 77.180632,154.2519 c 2.13482,-1.88288 3.88149,-3.61609 3.88149,-3.85158 0,-0.35619 -3.419672,-1.47094 -17.008095,-5.54433 -0.613433,-0.18389 0.817349,2.16023 3.815874,6.25173 2.638514,3.60026 4.939484,6.55081 5.113269,6.55677 0.173784,0.006 2.062642,-1.5297 4.197462,-3.41259 z m 66.431648,-2.87279 c 2.51644,-3.46293 4.51419,-6.36381 4.43944,-6.4464 -0.29861,-0.32995 -17.65201,5.10227 -17.52241,5.48513 0.18778,0.55479 7.67402,7.21115 8.13928,7.23701 0.20259,0.0113 2.42726,-2.81282 4.94369,-6.27574 z m 0.045,-21.67532 c 1.39443,-3.26636 2.47669,-5.99711 2.40501,-6.06833 -0.0717,-0.0712 -3.08795,1.2975 -6.70282,3.0416 l -6.5725,3.1711 -0.85054,3.373 c -0.46779,1.85514 -1.00191,4.0504 -1.18692,4.87835 l -0.33638,1.50536 5.35441,-1.98112 5.3544,-1.98112 z m -62.595178,9.0661 c 0,-0.1947 -0.486497,-2.31544 -1.081105,-4.71276 l -1.081105,-4.35876 -6.550644,-3.10533 c -3.602855,-1.70793 -6.552175,-2.9391 -6.554047,-2.73593 -0.0019,0.20317 1.056326,2.9192 2.35155,6.03563 l 2.354951,5.66622 4.644221,1.733 c 4.830495,1.80251 5.916179,2.07372 5.916179,1.47793 z m 23.585438,28.91602 c -0.94549,-1.64105 -6.314395,-14.68798 -6.178655,-15.01469 0.0804,-0.19359 1.592555,-3.32094 3.360285,-6.94966 2.74804,-5.64105 3.39353,-6.59767 4.45186,-6.59767 0.83758,0 1.23957,0.31809 1.24327,0.98379 0.003,0.54108 1.26225,3.49049 2.79831,6.55424 1.53606,3.06375 2.79283,5.88197 2.79283,6.26272 0,0.38074 -1.3517,3.94542 -3.00378,7.9215 -2.24155,5.39474 -3.26224,7.27307 -4.02226,7.40194 -0.56016,0.095 -1.20899,-0.158 -1.44186,-0.56217 z m 3.93381,-9.37707 2.19596,-5.26923 -1.95104,-4.00649 c -3.03187,-6.22602 -2.86946,-6.20388 -5.55639,-0.75747 l -2.34407,4.75145 2.38405,5.6934 c 1.31123,3.13138 2.53963,5.50534 2.72979,5.27549 0.19016,-0.22986 1.33392,-2.78908 2.5417,-5.68715 z m -5.38718,-25.20477 c -1.22707,-0.32287 -4.413935,-4.08428 -4.163565,-4.91419 0.18989,-0.62945 4.179025,-1.57252 6.707485,-1.58571 0.83949,-0.004 2.72835,0.18977 4.19746,0.43145 2.11775,0.34838 2.67111,0.65512 2.67111,1.48067 0,0.5727 -0.4579,1.35724 -1.01757,1.74342 -0.55966,0.38619 -1.01756,1.00887 -1.01756,1.38375 0,1.2705 -4.62203,2.1856 -7.37736,1.46061 z"
       id="path1" /></g></svg>
