<?xml version="1.0" encoding="UTF-8" standalone="no"?>
<!-- Created with Inkscape (http://www.inkscape.org/) -->

<svg
   width="210mm"
   height="297mm"
   viewBox="0 0 210 297"
   version="1.1"
   id="svg1"
   xml:space="preserve"
   inkscape:version="1.4.2 (f4327f4, 2025-05-13)"
   sodipodi:docname="1st Fleet (3).svg"
   xmlns:inkscape="http://www.inkscape.org/namespaces/inkscape"
   xmlns:sodipodi="http://sodipodi.sourceforge.net/DTD/sodipodi-0.dtd"
   xmlns="http://www.w3.org/2000/svg"
   xmlns:svg="http://www.w3.org/2000/svg"><sodipodi:namedview
     id="namedview1"
     pagecolor="#505050"
     bordercolor="#eeeeee"
     borderopacity="1"
     inkscape:showpageshadow="0"
     inkscape:pageopacity="0"
     inkscape:pagecheckerboard="0"
     inkscape:deskcolor="#505050"
     inkscape:document-units="mm"
     inkscape:zoom="2.2299458"
     inkscape:cx="423.32868"
     inkscape:cy="543.7352"
     inkscape:window-width="1920"
     inkscape:window-height="1129"
     inkscape:window-x="-8"
     inkscape:window-y="-8"
     inkscape:window-maximized="1"
     inkscape:current-layer="layer1" /><defs
     id="defs1" /><g
     inkscape:label="Layer 1"
     inkscape:groupmode="layer"
     id="layer1"><path
       style="fill:#000000"
       d="m 104.44134,167.93775 c -0.30762,-0.34809 -1.30569,-2.14102 -2.21792,-3.98428 -1.2729,-2.57201 -2.24378,-3.94618 -4.174893,-5.90903 l -2.516284,-2.55764 h -3.272024 -3.272023 l -0.0011,-0.97014 c -6.14e-4,-0.53357 0.344125,-2.13493 0.766088,-3.55857 l 0.767205,-2.58843 -1.089043,-2.20846 -1.089042,-2.20847 -2.390749,-0.22325 c -3.036241,-0.28353 -6.889315,-2.06341 -9.252899,-4.27427 -1.736553,-1.62434 -4.996555,-6.47702 -4.996555,-7.43763 0,-0.7409 0.316045,-0.66987 3.277975,0.73675 3.01015,1.42951 7.172076,2.15976 6.301869,1.10572 -0.260879,-0.31599 -0.405531,-0.7783 -0.321451,-1.02736 0.0862,-0.25533 0.424531,0.0706 0.775739,0.7474 l 0.622865,1.20023 -2.683443,-0.20294 c -2.009856,-0.15201 -3.229117,-0.47563 -4.857311,-1.28925 -1.195628,-0.59746 -2.249203,-1.01096 -2.341277,-0.91889 -0.353264,0.35327 2.31165,4.32411 4.163924,6.20444 2.658862,2.69913 5.961913,4.29894 9.39765,4.55168 l 2.591082,0.19061 1.222724,2.55539 1.222724,2.55539 -0.86709,2.732 c -1.323264,4.1693 -1.449194,3.97528 2.580077,3.97528 h 3.447167 l 2.381415,2.62937 c 1.632488,1.80246 2.931838,3.72887 4.131638,6.1255 0.96262,1.92288 1.99597,3.70009 2.29634,3.94937 0.71945,0.59709 1.08404,0.11361 3.32859,-4.41397 1.37466,-2.77287 2.26196,-4.03466 4.14649,-5.8965 l 2.39758,-2.36873 3.35139,-0.10072 c 3.87655,-0.1165 3.73363,0.14399 2.34489,-4.2741 l -0.75739,-2.40949 1.21897,-2.57646 1.21896,-2.57645 2.66159,-0.15977 c 2.83672,-0.17027 4.9748,-1.02367 8.09772,-3.23215 1.43786,-1.01683 5.93362,-7.13403 5.53559,-7.53206 -0.0862,-0.0862 -1.24077,0.36148 -2.56564,0.99492 -1.98157,0.94742 -2.90946,1.17094 -5.23107,1.26013 -1.55223,0.0596 -2.9016,0.11585 -2.99862,0.12493 -0.097,0.009 0.11029,0.18329 0.46067,0.38712 0.79119,0.46027 4.94624,-0.17856 7.38864,-1.13599 0.92163,-0.36129 1.67024,-0.54014 1.66358,-0.39745 -0.0349,0.74725 -3.23819,4.65357 -4.76049,5.80531 -6.59974,4.99321 -14.07863,3.79461 -17.2954,-2.77183 -0.52208,-1.06574 -0.84467,-1.4475 -0.85152,-1.00771 -0.008,0.52289 -0.49526,0.89752 -1.86312,1.43287 -1.86406,0.72957 -1.97106,0.91263 -1.48074,2.53344 0.19811,0.65489 0.10474,0.79375 -0.53372,0.79375 -0.42561,0 -1.23788,0.46404 -1.80503,1.0312 -1.83278,1.83277 -1.14407,5.3188 1.05079,5.3188 1.75462,0 2.8556,-2.15135 1.62406,-3.17344 -0.29001,-0.24069 -0.84288,-0.35508 -1.22861,-0.25421 -0.59688,0.15609 -0.64785,0.0835 -0.34224,-0.48753 0.54332,-1.01521 2.23906,-0.87515 3.13086,0.25859 1.06293,1.3513 0.94113,2.79534 -0.3442,4.08067 -0.9405,0.9405 -1.25363,1.05145 -2.49683,0.8847 -0.7818,-0.10486 -1.72066,-0.46143 -2.08635,-0.79238 -3.01881,-2.73198 -0.49108,-11.27059 4.58981,-15.50427 1.45773,-1.21466 1.69805,-1.2972 3.175,-1.09046 5.24016,0.73352 6.0714,0.68601 8.25755,-0.47197 l 2.07354,-1.09832 -0.22564,1.12824 c -0.29923,1.49611 -1.00206,2.21563 -2.64513,2.70791 -2.06575,0.61891 -4.00836,0.49202 -6.54092,-0.42725 -1.26395,-0.45879 -2.38242,-0.74983 -2.48549,-0.64676 -0.10307,0.10307 -0.16862,0.75626 -0.14566,1.45152 0.0416,1.25894 0.0427,1.25979 0.26805,0.20579 0.12447,-0.58208 0.34093,-1.01175 0.48102,-0.95481 0.14009,0.0569 0.81419,0.33728 1.49799,0.62299 0.68381,0.28571 2.17224,0.61657 3.30764,0.73525 3.06918,0.32079 5.22742,-0.52396 8.39363,-3.28531 1.42477,-1.24258 2.59531,-2.05499 2.60121,-1.80535 0.006,0.26374 0.16449,0.18968 0.37775,-0.17675 0.8175,-1.40472 0.007,-1.27839 -1.90659,0.29732 -1.11472,0.9177 -2.10339,1.59191 -2.19705,1.49825 -0.0937,-0.0936 -0.0681,-0.68139 0.0569,-1.30607 0.16564,-0.82823 0.9474,-1.77488 2.887,-3.49593 4.98737,-4.42542 5.88069,-5.30584 5.63395,-5.55259 -0.1357,-0.13569 -2.27749,-0.058 -4.75955,0.17271 -2.48205,0.23068 -4.83025,0.44887 -5.21821,0.48486 -0.48823,0.0453 -0.74014,-0.17893 -0.81829,-0.72832 -0.12721,-0.89436 -0.47441,-0.98394 -1.45064,-0.37428 -0.53972,0.33707 -0.95273,0.29274 -2.10227,-0.22563 l -1.43059,-0.64511 1.66609,-1.82381 c 0.91634,-1.00309 2.43305,-3.24312 3.37044,-4.97784 1.78665,-3.3063 4.25749,-9.30422 3.95676,-9.60495 -0.0965,-0.0965 -1.98384,1.1964 -4.19406,2.87314 -2.21021,1.67674 -4.11917,3.04862 -4.24212,3.04862 -0.12295,0 -0.22355,-0.39687 -0.22355,-0.88194 0,-2.29269 -1.23843,-0.0958 -4.07687,7.23194 -0.26305,0.6791 -0.48524,1.66192 -0.49375,2.18404 -0.009,0.52213 -0.17424,1.04743 -0.36827,1.16735 -0.6209,0.38374 -0.38689,-2.50775 0.34024,-4.20409 0.83729,-1.95332 0.41252,-2.10472 -1.49458,-0.53273 -1.56324,1.28855 -1.6063,1.78772 -0.43906,5.0896 0.48013,1.35819 0.87631,2.75358 0.88041,3.10086 0.009,0.80087 -0.89718,2.57419 -3.91561,7.65886 -4.49222,7.56731 -4.92756,8.22398 -5.23875,7.90217 -0.16883,-0.1746 -2.14525,-3.4351 -4.39203,-7.24557 -4.612144,-7.82204 -4.655662,-7.98524 -3.203118,-12.01203 0.485069,-1.34472 0.881944,-2.65988 0.881944,-2.92258 0,-0.48335 -2.687553,-2.65532 -3.285643,-2.65532 -0.342581,0 -0.268434,0.33061 0.61028,2.7212 0.519171,1.41244 0.442081,2.75806 -0.137487,2.39987 -0.14821,-0.0916 -0.368221,-0.78408 -0.488913,-1.53884 -0.196441,-1.22848 -0.659849,-2.39584 -3.067544,-7.72737 -0.716487,-1.58657 -1.391804,-1.97171 -1.391804,-0.79375 0,0.38805 -0.180023,0.70555 -0.40005,0.70555 -0.220028,0 -1.92659,-1.14168 -3.792362,-2.53707 -1.865771,-1.39539 -3.594585,-2.68801 -3.841809,-2.87249 -0.846562,-0.63172 -0.750396,-0.0298 0.497319,3.11282 1.717493,4.32586 4.587458,9.47704 6.416847,11.51734 l 1.525778,1.70168 -1.251852,0.59697 c -1.01824,0.48556 -1.421275,0.51977 -2.159739,0.1833 -1.268226,-0.57784 -1.580244,-0.52021 -1.580244,0.2919 0,0.86089 -0.465139,0.87764 -4.7625,0.17157 -3.518159,-0.57805 -6.526389,-0.68338 -6.526389,-0.22853 0,0.24178 3.824275,3.73682 7.975531,7.2889 0.456266,0.39041 0.971203,1.38187 1.152855,2.2197 0.370474,1.70874 0.568809,1.76743 -2.513803,-0.74387 -1.439035,-1.17234 -1.675694,-1.26712 -1.675694,-0.67109 0,0.38173 0.238125,1.36897 0.529166,2.19387 0.610703,1.73092 0.683355,2.41656 0.203726,1.92264 -0.27533,-0.28353 -1.438448,-4.23268 -1.438448,-4.88398 0,-0.54965 1.151708,-0.10113 2.621865,1.02106 1.858239,1.41843 2.13671,1.51059 1.614177,0.53423 -0.409569,-0.76528 -2.227788,-2.5019 -6.440903,-6.15183 -1.503716,-1.30271 -2.734028,-2.57837 -2.734028,-2.8348 0,-0.74462 2.340228,-0.85763 6.173611,-0.29811 5.152018,0.75198 5.211959,0.75058 5.44321,-0.12731 0.191591,-0.72733 0.267578,-0.74099 1.585568,-0.28504 1.266591,0.43816 2.672612,0.22802 2.672612,-0.39945 0,-0.10389 -0.642867,-0.95128 -1.428594,-1.88311 -0.785726,-0.93182 -2.470262,-3.73843 -3.743412,-6.2369 -2.641868,-5.18449 -2.70669,-4.60088 -0.09624,0.86647 1.790929,3.75095 1.992188,4.44781 1.391732,4.81891 -0.194285,0.12008 -0.262251,-0.01 -0.15346,-0.29335 0.107403,-0.27989 -0.513956,-1.92105 -1.380797,-3.64704 -0.866841,-1.72598 -1.987644,-4.48179 -2.490672,-6.12402 -1.344018,-4.38779 -1.768328,-4.91786 -5.464888,-6.827058 -1.767823,-0.913045 -3.214225,-1.588321 -3.214225,-1.500613 0,0.08771 1.270642,0.904396 2.823648,1.814861 3.411787,2.00019 4.026318,2.73353 4.99831,5.96467 0.413823,1.37564 1.3513,3.89022 2.083283,5.58797 0.731983,1.69774 1.243013,3.0868 1.135622,3.0868 -0.418962,0 -3.908624,-2.1411 -4.728267,-2.90105 -1.658537,-1.53776 -4.635909,-6.52779 -6.963426,-11.670598 -0.986373,-2.17946 -1.022723,-2.380558 -0.394251,-2.181088 0.380767,0.12085 0.692303,0.133732 0.692303,0.02863 0,-0.302853 -2.128341,-1.322459 -2.501131,-1.198196 -0.185149,0.06172 0.557104,1.936671 1.649452,4.166566 3.979516,8.1237 6.102463,11.08407 9.260666,12.91364 1.909306,1.10608 4.144047,2.95877 3.568911,2.95877 -0.216632,0 -1.071943,-0.55563 -1.900692,-1.23472 -0.828749,-0.6791 -1.640683,-1.23473 -1.804298,-1.23473 -0.163616,0 -0.909281,-0.42397 -1.657034,-0.94217 -1.750139,-1.21284 -4.519609,-5.42035 -7.459091,-11.3322 -2.21808,-4.460969 -2.746729,-6.07007 -1.994241,-6.07007 0.808457,0 9.978,5.09342 10.44062,5.79946 0.369456,0.56387 0.781275,0.74591 1.481359,0.65484 0.771312,-0.10034 1.655152,0.41614 4.321036,2.52503 1.843264,1.45814 3.470452,2.65368 3.615972,2.65675 0.145521,0.003 0.264584,-0.31191 0.264584,-0.69997 0,-1.64321 1.914717,-0.19188 2.773443,2.10223 0.220856,0.59002 0.579567,1.54902 0.797134,2.1311 0.293726,0.78585 0.621271,1.05834 1.27215,1.05834 0.482116,0 1.494731,0.48959 2.250257,1.08797 1.668482,1.32147 1.742806,2.14859 0.491739,5.47236 -1.037452,2.75626 -1.073759,3.32894 -0.306484,4.83427 1.18544,2.32574 7.619024,12.94682 7.838794,12.9409 0.12584,-0.003 0.85163,-1.07495 1.61287,-2.38125 0.76123,-1.3063 2.36903,-4.04196 3.57289,-6.07925 3.70244,-6.26568 3.51863,-5.61477 2.47255,-8.75588 -1.27093,-3.81624 -1.19788,-4.9357 0.40127,-6.14898 0.70327,-0.53358 1.71866,-0.97014 2.25642,-0.97014 0.71234,0 1.03863,-0.21547 1.20202,-0.79375 0.61701,-2.18387 1.74801,-4.55917 2.31544,-4.86285 0.90557,-0.48465 1.03562,-0.43409 1.03562,0.40267 0,1.0141 0.42372,0.80531 4.34048,-2.13871 3.18274,-2.3923 4.47229,-2.98006 4.48491,-2.04417 0.003,0.24254 0.32261,-0.0532 0.70965,-0.65731 0.50567,-0.78919 2.05016,-1.806813 5.48814,-3.615968 4.87806,-2.566966 5.79071,-2.887856 5.79071,-2.036031 0,0.264913 -1.34678,3.162101 -2.99284,6.438199 -3.31233,6.59237 -5.7401,9.94807 -8.04886,11.12524 -0.81505,0.41557 -2.18149,1.2895 -3.03652,1.94207 -0.85504,0.65256 -1.6372,1.10389 -1.73814,1.00296 -0.24832,-0.24832 1.28739,-1.39089 5.11783,-3.80768 0.80976,-0.51092 2.18412,-1.92692 3.05412,-3.14667 1.76248,-2.47101 7.09913,-12.934765 6.76653,-13.267364 -0.1169,-0.116898 -0.48313,-0.04417 -0.81386,0.161606 -0.33072,0.205781 -2.18882,1.210059 -4.12909,2.231729 -4.83913,2.548079 -5.19269,2.936969 -6.54049,7.193899 -0.62324,1.96849 -1.83907,4.96462 -2.70184,6.65808 -0.86277,1.69345 -1.45324,3.26579 -1.31214,3.49409 0.16066,0.25996 0.10432,0.32101 -0.15075,0.16337 -0.62384,-0.38555 -0.5102,-0.84729 0.86023,-3.49547 1.41023,-2.72508 3.07825,-6.95033 2.83847,-7.19011 -0.0853,-0.0853 -0.35059,0.45084 -0.58952,1.19145 -0.73337,2.27329 -4.52709,9.03835 -5.86201,10.45329 -0.6942,0.73582 -1.20451,1.38725 -1.13401,1.44763 0.64366,0.55132 1.65511,0.81245 2.08745,0.53892 1.20913,-0.76498 2.33996,-0.30493 2.12259,0.86351 -0.0324,0.17422 0.77709,0.22027 1.8103,0.10299 1.02792,-0.11669 3.49613,-0.32088 5.48491,-0.45376 3.51472,-0.23485 3.61597,-0.22087 3.61597,0.4991 0,0.50172 -1.25464,1.83925 -3.88844,4.14531 -3.55686,3.11426 -4.87278,4.56288 -4.49138,4.94427 0.0792,0.0792 0.79199,-0.41064 1.58396,-1.08854 1.61372,-1.38129 2.56253,-1.5827 2.56253,-0.54398 0,0.37872 -0.45601,2.0456 -1.01335,3.70417 l -1.01335,3.01559 h 0.94932 c 1.39059,0 4.56729,-1.01001 6.22365,-1.97878 1.34087,-0.78424 2.61484,-1.1007 2.61484,-0.64954 0,0.41379 -1.23654,2.56234 -2.87286,4.99174 -2.58782,3.84206 -7.21045,6.62394 -11.70427,7.04358 l -2.33659,0.21819 -1.08214,2.31249 c -0.87774,1.87568 -1.01652,2.48259 -0.73474,3.21309 0.86118,2.23258 1.53034,5.3656 1.21364,5.6823 -0.18391,0.18391 -1.75501,0.36183 -3.49135,0.3954 l -3.15697,0.061 -2.2821,2.20253 c -1.84662,1.78225 -2.68809,2.99907 -4.40972,6.37678 -2.23731,4.38945 -2.97781,5.06046 -4.13698,3.7488 z m 7.62085,-21.00581 c 1.27618,-1.1403 1.47095,-2.38045 0.55645,-3.54304 -0.4131,-0.52518 -1.01302,-0.95487 -1.33315,-0.95487 -0.45439,0 -0.41008,0.12045 0.20199,0.54917 0.51483,0.3606 0.78405,0.91366 0.78405,1.61069 0,1.74336 -0.56602,2.42314 -2.04088,2.45104 -1.05418,0.0199 -1.17251,0.0841 -0.60495,0.32798 1.10895,0.47654 1.48603,0.40829 2.43649,-0.44097 z m -2.09487,-6.96736 c 0.46325,0 0.52805,-0.23584 0.34009,-1.23772 -0.22884,-1.21983 -0.20611,-1.24856 1.57152,-1.98731 0.99204,-0.41228 1.81809,-0.92687 1.83566,-1.14353 0.0176,-0.21667 0.0573,-1.30048 0.0882,-2.40848 l 0.0562,-2.01455 -1.50844,1.47961 c -2.11472,2.07428 -3.1998,3.74624 -4.17518,6.43338 -1.07914,2.973 -1.06079,3.15901 0.18843,1.9098 0.56716,-0.56716 1.28872,-1.0312 1.60348,-1.0312 z m 19.24201,0.70739 c 2.94117,-1.47944 4.47413,-2.70146 5.92648,-4.72437 0.64265,-0.8951 1.09917,-1.62746 1.0145,-1.62746 -0.0847,0 -0.79881,0.22751 -1.58696,0.50559 -1.84944,0.65252 -6.09698,1.03434 -6.7314,0.6051 -0.40628,-0.27489 -0.35863,-0.51804 0.27623,-1.40961 0.42195,-0.59258 0.99003,-1.81785 1.26238,-2.72282 l 0.49519,-1.6454 -0.77141,0.68729 c -0.42428,0.37801 -1.16829,1.05039 -1.65336,1.49417 -2.55274,2.33549 -6.66288,3.08808 -10.5541,1.93251 -1.0245,-0.30424 -1.94226,-0.47363 -2.03947,-0.37642 -0.29647,0.29648 0.56031,2.49414 1.62987,4.18066 2.82847,4.46004 7.68057,5.64172 12.73205,3.10076 z m 0.17069,-7.40777 c 0.71105,-1.37502 1.25881,-2.82462 1.06734,-2.82462 -0.0831,0 -0.50766,0.75406 -0.9434,1.67569 -0.43574,0.92164 -0.85327,1.79476 -0.92785,1.94028 -0.0746,0.14552 -0.0471,0.26459 0.0611,0.26459 0.1082,0 0.44245,-0.47518 0.74278,-1.05594 z m -5.80616,-1.14893 c 0.86574,-0.43656 1.62755,-1.08277 1.69292,-1.43602 0.114,-0.61602 0.0707,-0.6172 -1.05833,-0.0287 -1.67738,0.87434 -3.57431,1.15328 -5.50366,0.80931 -4.10455,-0.73176 -4.15335,-0.73591 -3.74612,-0.31854 0.57531,0.58964 4.34192,1.72665 5.79297,1.7487 0.68649,0.0104 1.95649,-0.33821 2.82222,-0.77478 z M 82.943486,111.30139 c -0.408511,-1.01865 -1.212154,-3.23526 -1.785872,-4.92581 -0.573719,-1.69055 -1.345182,-3.45772 -1.714362,-3.92706 -0.600058,-0.76285 -6.293214,-4.266154 -6.536877,-4.022491 -0.177966,0.177966 3.702639,7.657251 4.948003,9.536531 1.734792,2.61784 2.410442,3.32138 4.138525,4.3093 0.83998,0.48021 1.564608,0.87502 1.610283,0.87736 0.04568,0.002 -0.251189,-0.82919 -0.6597,-1.84783 z m 20.480014,52.22548 c -1.37674,-2.75628 -2.41973,-4.26738 -4.331955,-6.27618 l -2.518627,-2.64583 -3.209201,-0.17639 -3.209201,-0.17639 0.86836,-3.06104 0.868359,-3.06104 -1.098742,-2.19878 c -0.604308,-1.20933 -1.098742,-2.39229 -1.098742,-2.6288 0,-0.23651 0.515938,-0.6428 1.146528,-0.90287 1.423038,-0.58689 3.894973,-2.82886 4.884698,-4.43027 0.605585,-0.97985 0.885324,-1.15552 1.50164,-0.94298 0.416577,0.14366 1.313038,0.26823 1.992135,0.27682 1.158388,0.0147 1.235938,0.0887 1.254398,1.19798 0.0133,0.79701 0.24322,1.30136 0.70556,1.54749 0.37723,0.20082 1.06158,0.70063 1.52077,1.1107 l 0.8349,0.74557 -0.24402,-1.23472 c -0.52521,-2.65755 -3.524663,-7.51676 -5.394525,-8.73931 l -0.79375,-0.51897 v 2.27945 c 0,2.11896 0.06531,2.30922 0.927533,2.70207 0.510143,0.23244 0.841677,0.50847 0.736744,0.61341 -0.104934,0.10493 -0.628928,-0.0388 -1.16443,-0.31936 -0.92594,-0.48515 -0.969581,-0.62213 -0.890771,-2.79602 l 0.08287,-2.28588 -2.403612,0.81903 c -1.321987,0.45047 -3.197362,0.81964 -4.167501,0.82039 -2.129906,0.002 -4.613278,-1.04507 -4.904798,-2.0673 -0.679347,-2.38219 -0.802741,-2.28409 1.3967,-1.1104 2.240555,1.19562 3.410777,1.30406 7.151209,0.66265 2.280904,-0.39113 2.495977,-0.3692 3.704639,0.37779 3.640272,2.24982 6.586972,8.02251 6.586972,12.90413 0,3.90438 -5.084161,5.63252 -6.512641,2.21369 -0.908888,-2.17528 0.212928,-4.30663 2.148789,-4.08251 1.319062,0.15271 2.265482,1.7119 1.557162,2.56537 -0.35048,0.4223 -0.58322,0.47244 -0.86489,0.1863 -0.27954,-0.28398 -0.20096,-0.5276 0.28615,-0.88719 0.64118,-0.47332 0.64268,-0.50677 0.0332,-0.74063 -0.436,-0.16731 -0.838832,0.003 -1.271181,0.5367 -0.997702,1.23211 -0.162447,2.86381 1.465961,2.86381 1.44052,0 2.57669,-1.55511 2.31958,-3.17489 -0.22382,-1.41014 -1.93928,-3.17511 -3.08603,-3.17511 -0.567163,0 -0.6772,-0.14274 -0.475916,-0.61736 0.435216,-1.02621 0.371456,-1.94716 -0.147245,-2.12673 -0.310804,-0.1076 -0.39516,-0.0161 -0.230604,0.25017 0.373838,0.60488 -0.474612,2.43386 -1.242042,2.67743 -0.358667,0.11384 -1.055969,0.68692 -1.549561,1.27352 -0.718414,0.85379 -0.897438,1.44575 -0.897438,2.96748 0,1.62159 0.160261,2.08347 1.090558,3.14302 0.63525,0.72351 1.644344,1.39119 2.41699,1.59924 1.000388,0.26938 1.738158,0.88124 3.001458,2.48922 0.92127,1.17262 2.06516,2.38766 2.54199,2.70009 0.84381,0.55289 0.90881,0.52699 2.43437,-0.97024 0.86208,-0.84607 1.56741,-1.68604 1.56741,-1.8666 0,-0.18057 -0.71388,0.43828 -1.5864,1.37522 l -1.5864,1.70353 -1.10486,-1.03719 c -1.21336,-1.13904 -3.13067,-3.62854 -3.13067,-4.06496 0,-0.15184 0.35719,-0.3834 0.79375,-0.51458 0.43656,-0.13118 1.38425,-0.8044 2.10598,-1.49604 l 1.31223,-1.25754 0.77671,0.98742 c 0.42719,0.54309 1.3818,1.25833 2.12135,1.58944 1.24467,0.55726 1.30658,0.65232 0.8327,1.2786 -0.92502,1.22249 -0.55685,1.38758 0.50406,0.22603 0.64478,-0.70594 1.37587,-1.13695 1.92852,-1.13695 1.23236,0 3.28722,-2.12915 3.58458,-3.71418 0.3444,-1.83585 -0.65001,-4.18327 -2.1701,-5.12274 -1.15826,-0.71584 -1.912,-1.6582 -1.912,-2.39047 0,-0.30529 2.45885,-1.47261 3.10191,-1.47261 0.14598,0 0.56896,0.56363 0.93994,1.25252 0.81443,1.51229 2.95134,3.49982 4.61674,4.29399 1.5196,0.72465 1.54773,1.39902 0.16085,3.85643 l -1.05834,1.87527 0.88195,3.04342 c 0.48507,1.67387 0.88195,3.10503 0.88195,3.18034 0,0.0753 -1.38906,0.13656 -3.08681,0.13611 l -3.0868,-8.1e-4 -2.6351,2.73484 c -2.06212,2.14016 -2.99257,3.47252 -4.27908,6.12736 -0.90419,1.86589 -1.81714,3.49955 -2.02878,3.63035 -0.23631,0.14605 -1.08451,-1.16302 -2.19813,-3.39253 z m 4.01375,-0.89632 c 1.3146,-2.79589 2.09186,-3.91822 4.15333,-5.99722 l 2.53607,-2.55764 h 2.95299 c 1.77413,0 2.953,-0.1438 2.953,-0.36021 0,-0.19812 -0.34635,-1.53745 -0.76966,-2.9763 l -0.76966,-2.61608 1.17724,-2.31936 c 0.64749,-1.27565 1.1129,-2.37675 1.03425,-2.4469 -0.0786,-0.0701 -0.69863,-0.40334 -1.37772,-0.74043 -1.53457,-0.76174 -3.76681,-2.8533 -4.46433,-4.18297 -0.44191,-0.84243 -0.67603,-0.96485 -1.47023,-0.76879 -0.51953,0.12826 -1.06888,0.35416 -1.22076,0.50201 -0.46852,0.4561 0.11438,1.39663 1.33193,2.14912 2.98682,1.84596 3.04978,7.07903 0.10759,8.94362 -0.44583,0.28253 -1.28684,0.61654 -1.86893,0.74224 -0.69606,0.15031 -1.48098,0.78758 -2.29305,1.8617 -1.72945,2.28753 -3.22733,3.61992 -4.07169,3.62183 -0.73912,0.002 -2.98387,-2.12504 -4.34499,-4.11653 -0.45942,-0.67219 -1.196626,-1.21432 -1.844899,-1.35671 -1.590972,-0.34943 -3.426239,-2.12535 -3.85962,-3.7348 -0.63241,-2.34859 -0.124894,-3.78835 2.090585,-5.93071 l 1.976445,-1.91122 -1.058334,-0.45412 c -1.539069,-0.6604 -1.65805,-0.60982 -2.843955,1.20897 -0.697752,1.07013 -1.790396,2.07983 -3.086805,2.85249 -1.117751,0.66618 -2.00594,1.44758 -2.004933,1.76389 9.94e-4,0.31233 0.392915,1.20287 0.870935,1.97898 0.996015,1.61713 1.074903,2.53311 0.410168,4.7625 -0.260338,0.87313 -0.579144,2.02407 -0.708458,2.55764 l -0.235117,0.97014 3.093527,0.009 3.093527,0.009 2.579815,2.80802 c 1.833539,1.99572 3.030909,3.72797 4.139199,5.98821 0.85766,1.7491 1.69796,3.18019 1.86733,3.18019 0.16938,0 1.03572,-1.54782 1.92521,-3.43959 z m -0.75653,-9.525 c 0.49015,-0.53357 1.24504,-1.48607 1.67752,-2.11666 0.64512,-0.94063 0.68717,-1.14653 0.23416,-1.14653 -0.30369,0 -1.16222,-0.55114 -1.90784,-1.22476 l -1.35566,-1.22477 -1.00052,1.04432 c -0.55029,0.57437 -1.29007,1.13621 -1.64396,1.24853 -0.3539,0.11233 -0.64345,0.31532 -0.64345,0.45109 0,0.35207 3.17727,3.93892 3.48914,3.93892 0.14268,0 0.66045,-0.43656 1.15061,-0.97014 z m -5.52169,-5.73264 c 0.5946,-0.25551 0.5284,-0.30708 -0.42097,-0.32798 -1.999149,-0.044 -2.946224,-2.47843 -1.519308,-3.90535 0.388055,-0.38805 0.546805,-0.70555 0.352778,-0.70555 -0.708572,0 -1.763889,1.4371 -1.763889,2.40201 0,1.0931 0.512339,1.89422 1.5875,2.48229 0.823619,0.45048 0.841309,0.45103 1.763889,0.0546 z M 93.345854,132.1939 c 2.379539,-0.73497 3.539785,-1.53906 1.745296,-1.20956 -3.688727,0.67732 -4.50812,0.74368 -5.921734,0.47959 -0.870468,-0.16262 -2.04514,-0.53483 -2.610382,-0.82713 -0.978665,-0.50609 -1.018883,-0.49769 -0.842709,0.176 0.192012,0.73426 0.998123,1.29211 2.545713,1.76171 1.500751,0.45539 2.657559,0.36878 5.083816,-0.38061 z m 16.338636,12.82716 c -0.42966,-0.42966 -0.24309,-1.17592 0.29398,-1.17592 0.29399,0 0.52917,0.31358 0.52917,0.70555 0,0.70282 -0.3759,0.91762 -0.82315,0.47037 z m -28.351425,-3.98745 c -1.538868,-0.77023 -3.38556,-1.9711 -4.103761,-2.66861 -1.347493,-1.30867 -3.846427,-4.78492 -3.609791,-5.02155 0.07352,-0.0735 0.635637,0.12591 1.249153,0.44317 0.976616,0.50502 5.696963,1.60138 6.830423,1.58645 0.225467,-0.003 0.629584,-0.14451 0.898039,-0.31453 0.39664,-0.25121 0.325079,-0.53113 -0.381905,-1.49391 -0.478502,-0.65162 -1.065456,-1.89915 -1.304342,-2.77227 -0.238886,-0.87313 -0.524063,-1.905 -0.633726,-2.29306 -0.123361,-0.43652 0.684863,0.1392 2.119647,1.50989 3.133379,2.99341 5.580742,4.10757 8.506768,3.8727 1.201615,-0.0965 2.9291,-0.50463 3.838857,-0.90706 l 1.654102,-0.73169 v 1.40301 c 0,1.94838 -1.394532,4.50985 -3.472338,6.37798 -2.011457,1.80847 -3.676074,2.4099 -6.670103,2.4099 -1.769155,0 -2.58951,-0.23346 -4.921023,-1.40042 z m 9.268169,0.0583 c 2.620573,-1.35192 5.411552,-5.11872 5.43477,-7.33495 0.0077,-0.7383 0.0046,-0.73847 -1.844336,-0.0997 -4.04843,1.39859 -7.921197,0.61533 -11.03683,-2.23218 -1.060265,-0.96903 -1.927754,-1.61087 -1.927754,-1.42633 0,0.70176 0.855145,2.77208 1.519421,3.67855 0.40862,0.5576 0.597523,1.1916 0.461027,1.5473 -0.201418,0.52489 -0.571154,0.57182 -2.866161,0.36386 -1.449202,-0.13133 -3.271522,-0.46338 -4.0496,-0.73791 -0.778078,-0.27452 -1.414687,-0.40209 -1.414687,-0.28349 0,0.33377 1.70478,2.48972 2.758157,3.48811 1.289538,1.22221 3.750802,2.65076 5.880292,3.41298 2.192134,0.78464 5.138737,0.62819 7.085701,-0.37622 z m 14.063956,-9.84243 c -0.75344,-0.75343 -5.09366,-9.58017 -5.09366,-10.35899 0,-0.97647 4.85645,-10.80493 5.45184,-11.0334 0.32342,-0.12411 0.85405,0.0772 1.25183,0.47502 0.73386,0.73386 3.24237,5.5881 4.55935,8.82284 l 0.79171,1.94457 -1.79113,3.69988 c -2.41877,4.99639 -3.62493,7.05126 -4.1389,7.05126 -0.23642,0 -0.70039,-0.27053 -1.03104,-0.60118 z m 3.8765,-5.01538 2.66621,-5.26378 -2.46458,-5.09813 c -1.35551,-2.80396 -2.6872,-5.28288 -2.95929,-5.5087 -0.39686,-0.32936 -0.63584,-0.18125 -1.20806,0.74871 -1.09148,1.77387 -4.651663,9.21115 -4.651663,9.7174 0,0.4782 4.423363,9.48694 5.021693,10.22731 0.196,0.24254 0.48532,0.44097 0.64292,0.44097 0.15761,0 1.48635,-2.3687 2.95277,-5.26378 z m -4.63886,-2.40913 c -0.69698,-1.50372 -1.26724,-2.89278 -1.26724,-3.08681 0,-0.65703 2.53221,-5.82083 2.8544,-5.82083 0.17596,0 0.91865,1.34368 1.65043,2.98596 l 1.33049,2.98597 -1.33032,2.83486 c -0.73168,1.55918 -1.47437,2.83487 -1.65042,2.83487 -0.17606,0 -0.89036,-1.23031 -1.58734,-2.73402 z m 2.87787,-0.31396 c 0.4976,-1.08689 0.90472,-2.25666 0.90472,-2.59948 0,-0.34283 -0.50014,-1.6921 -1.11143,-2.99838 -1.25663,-2.68536 -1.20575,-2.70553 -2.77364,1.09966 l -0.74268,1.80242 1.12345,2.51255 c 0.6179,1.3819 1.25202,2.43308 1.40916,2.33597 0.15714,-0.0971 0.69283,-1.06585 1.19042,-2.15274 z m 6.21906,3.35339 c 0.24418,-0.45902 1.03656,-1.54895 1.76085,-2.42207 0.72428,-0.87313 1.73321,-2.42094 2.24206,-3.43959 0.50886,-1.01864 1.08759,-1.85208 1.28608,-1.85208 0.58037,0 3.155,1.39804 3.155,1.71318 0,0.66315 -4.99761,5.04361 -6.57624,5.76415 -0.94272,0.43029 -1.84851,0.84728 -2.01287,0.92666 -0.16437,0.0794 -0.0991,-0.23124 0.14512,-0.69025 z m 2.72541,-1.33574 c 0.71987,-0.37266 2.1573,-1.54378 3.19428,-2.60249 l 1.88541,-1.92492 -0.81738,-0.57252 c -1.31379,-0.92021 -1.84917,-0.68997 -2.73521,1.17628 -0.45665,0.96184 -1.37962,2.39059 -2.05105,3.175 -1.38169,1.61419 -1.31956,1.70298 0.52395,0.74865 z m -20.386974,0.68535 c -1.189514,-0.62324 -2.716074,-1.89379 -3.945251,-3.28362 l -2.004972,-2.26703 1.514446,-0.75635 c 0.832945,-0.41599 1.658018,-0.75635 1.833494,-0.75635 0.175477,0 0.709889,0.82322 1.187582,1.82938 0.477694,1.00617 1.547047,2.66233 2.37634,3.68038 1.421663,1.74524 1.844775,2.62574 1.243222,2.58716 -0.145521,-0.009 -1.137708,-0.47444 -2.204861,-1.03357 z m 0.264987,-1.55115 c -0.648144,-0.84885 -1.567955,-2.2776 -2.044026,-3.175 -0.902143,-1.70056 -1.477285,-1.94843 -2.581045,-1.11237 -0.621167,0.47052 -0.56649,0.60042 1.032032,2.45198 1.318548,1.52727 3.87293,3.37635 4.667128,3.37847 0.05739,1.5e-4 -0.425945,-0.69424 -1.074089,-1.54308 z m 30.782387,-10.98796 c 0.1736,-0.45659 0.7019,-1.59414 1.174,-2.52789 0.47211,-0.93376 1.35051,-3.29497 1.952,-5.24715 1.23788,-4.01759 1.43249,-4.24892 5.51413,-6.554456 3.90009,-2.202984 4.11548,-2.26685 3.66702,-1.087331 -0.19778,0.520224 -1.49159,3.152857 -2.87512,5.850297 -2.79352,5.44647 -4.46522,7.44916 -7.74621,9.27991 -1.95934,1.09329 -1.99481,1.09932 -1.68582,0.28662 z m 6.00274,-4.67475 c 1.41651,-1.97812 5.80587,-10.258328 5.56543,-10.498766 -0.26962,-0.269619 -6.04517,3.223666 -6.51881,3.942836 -0.27386,0.41583 -1.18203,2.7177 -2.01816,5.11527 -0.83612,2.39758 -1.64423,4.6488 -1.79578,5.00272 -0.58617,1.36887 3.33364,-1.55994 4.76732,-3.56206 z m -31.73709,-1.82541 c -0.43568,-0.37786 -0.971412,-0.74678 -1.190511,-0.81982 -0.232873,-0.0776 -0.455091,-1.25621 -0.534922,-2.83709 -0.118739,-2.35137 -0.05388,-2.73603 0.496955,-2.94741 0.474219,-0.18197 1.013778,0.18904 2.145798,1.47549 0.83176,0.94523 1.61802,1.61287 1.74724,1.48365 0.12922,-0.12922 0.58061,0.41131 1.00309,1.20118 0.42248,0.78987 0.91622,1.44681 1.09721,1.45988 0.18098,0.0131 0.71995,-0.70281 1.19771,-1.59083 l 0.86864,-1.61459 -0.84452,-1.80309 c -0.46448,-0.9917 -1.01413,-1.748249 -1.22142,-1.681223 -0.2073,0.06703 -0.64709,0.665953 -0.97732,1.330953 -0.33023,0.66501 -0.60804,1.00278 -0.61736,0.75061 -0.0388,-1.05059 1.06886,-2.540122 1.88895,-2.540122 0.65752,0 0.98469,0.360876 1.57844,1.741092 0.41195,0.9576 0.74959,2.02916 0.75032,2.38125 9.3e-4,0.45257 0.20274,0.3098 0.68871,-0.4872 0.86403,-1.41705 2.38591,-2.46419 2.87319,-1.97692 0.1936,0.1936 0.30451,1.44751 0.24647,2.78647 -0.0942,2.17208 -0.18616,2.44598 -0.85365,2.54123 -0.41146,0.0587 -0.91666,0.45558 -1.12265,0.88194 -0.3405,0.70475 -0.3767,0.71336 -0.39841,0.0947 -0.0347,-0.98981 -0.82125,-3.02365 -1.1693,-3.02365 -0.16398,0 -0.68616,0.83343 -1.16041,1.85208 -0.47425,1.01865 -0.86382,1.6008 -0.86572,1.29368 -0.003,-0.56378 -0.90061,-0.68281 -1.65097,-0.21906 -0.24175,0.1494 -0.54004,-0.1368 -0.75277,-0.72226 -0.1938,-0.53335 -0.59579,-1.28722 -0.89331,-1.67528 -0.52383,-0.68325 -0.55909,-0.66243 -1.11505,0.65855 -0.7612,1.80862 -0.51374,2.27095 1.30264,2.4336 l 1.51852,0.13598 -1.62172,0.0616 c -1.16556,0.0443 -1.84453,-0.13162 -2.41387,-0.6254 z m 0.82001,-2.29917 c 0.31336,-0.47824 0.56974,-1.02834 0.56974,-1.22244 0,-0.5769 -2.160639,-2.86137 -2.50498,-2.64856 -0.364657,0.22537 -0.436157,4.15125 -0.08205,4.50535 0.501656,0.50166 1.473123,0.19618 2.017293,-0.63435 z m -1.534236,-1.51171 0.01269,-1.6757 0.838019,1.02495 c 0.68557,0.83849 0.76409,1.14333 0.43162,1.67569 -0.7482,1.19806 -1.295842,0.76033 -1.282326,-1.02494 z m 11.628976,-0.10573 c 0,-2.76746 -0.19741,-2.84921 -1.91402,-0.79263 -0.90745,1.08716 -0.92217,1.17095 -0.38752,2.20486 0.39223,0.75849 0.81263,1.07475 1.42866,1.07475 0.84612,0 0.87288,-0.0763 0.87288,-2.48698 z m -1.75954,1.08399 c -0.40268,-0.75243 0.10185,-1.95468 0.95821,-2.2833 0.50012,-0.19191 0.55376,0.24985 0.22807,1.8783 -0.25351,1.26757 -0.65186,1.40357 -1.18628,0.405 z m -2.38559,3.27647 c 0.33954,-0.0887 0.89517,-0.0887 1.23472,0 0.33955,0.0887 0.0617,0.16134 -0.61736,0.16134 -0.6791,0 -0.95691,-0.0726 -0.61736,-0.16134 z m -5.37446,-1.15481 c 0.003,-0.29826 0.14465,-0.76217 0.31486,-1.03092 0.2482,-0.39192 0.38678,-0.34414 0.70015,0.24139 0.56899,1.06317 0.48218,1.44501 -0.31486,1.38497 -0.38806,-0.0292 -0.70312,-0.29718 -0.70015,-0.59544 z m 5.28626,0.50169 c 0,-0.0639 0.16465,-0.54916 0.36589,-1.07846 0.38008,-0.99969 0.80334,-0.86049 1.17749,0.38726 0.16972,0.56603 0.038,0.71562 -0.66591,0.75643 -0.48261,0.028 -0.87747,-0.001 -0.87747,-0.0652 z m -2.58341,-2.73777 c -0.58564,-1.08746 -0.583,-1.19649 0.061,-2.52049 l 0.67312,-1.38387 0.57186,1.10586 c 0.72346,1.39903 0.71497,1.79881 -0.0633,2.97899 l -0.63054,0.95615 z m 0.87244,-1.12843 c 0,-0.18432 -0.17066,-0.39202 -0.37924,-0.46155 -0.20858,-0.0695 -0.37923,0.13817 -0.37923,0.46155 0,0.32338 0.17065,0.53108 0.37923,0.46155 0.20858,-0.0695 0.37924,-0.27722 0.37924,-0.46155 z"
       id="path1" /></g></svg>
