<?xml version="1.0" encoding="UTF-8" standalone="no"?>
<!-- Created with Inkscape (http://www.inkscape.org/) -->

<svg
   width="210mm"
   height="297mm"
   viewBox="0 0 210 297"
   version="1.1"
   id="svg1"
   xml:space="preserve"
   inkscape:version="1.4.2 (f4327f4, 2025-05-13)"
   sodipodi:docname="1st Fleet (4).svg"
   xmlns:inkscape="http://www.inkscape.org/namespaces/inkscape"
   xmlns:sodipodi="http://sodipodi.sourceforge.net/DTD/sodipodi-0.dtd"
   xmlns="http://www.w3.org/2000/svg"
   xmlns:svg="http://www.w3.org/2000/svg"><sodipodi:namedview
     id="namedview1"
     pagecolor="#505050"
     bordercolor="#eeeeee"
     borderopacity="1"
     inkscape:showpageshadow="0"
     inkscape:pageopacity="0"
     inkscape:pagecheckerboard="0"
     inkscape:deskcolor="#505050"
     inkscape:document-units="mm"
     inkscape:zoom="2.2299458"
     inkscape:cx="423.32868"
     inkscape:cy="543.7352"
     inkscape:window-width="1920"
     inkscape:window-height="1129"
     inkscape:window-x="-8"
     inkscape:window-y="-8"
     inkscape:window-maximized="1"
     inkscape:current-layer="layer1" /><defs
     id="defs1" /><g
     inkscape:label="Layer 1"
     inkscape:groupmode="layer"
     id="layer1"><path
       style="fill:#000000"
       d="m 103.90954,164.6341 c -0.9402,-1.07262 -0.95906,-1.26651 -0.25552,-2.62701 0.52799,-1.02102 0.52114,-1.04081 -0.36034,-1.04081 -1.31912,0 -1.9298,-1.47689 -1.14027,-2.75764 0.59751,-0.96925 0.91827,-1.05865 2.26173,-0.63032 0.67383,0.21483 0.78417,0.10007 0.88195,-0.91727 0.11007,-1.1453 0.13834,-1.16283 1.87565,-1.16283 1.73731,0 1.76557,0.0175 1.87565,1.16283 0.0978,1.01734 0.20811,1.1321 0.88194,0.91727 1.37451,-0.43822 1.77122,-0.33188 2.31692,0.62109 0.73703,1.28709 0.0977,2.76687 -1.19545,2.76687 -0.88148,0 -0.88834,0.0198 -0.36034,1.04081 0.71465,1.38199 0.68888,1.5825 -0.34705,2.70029 -0.7795,0.84109 -0.99145,0.90685 -1.77379,0.55039 -0.48869,-0.22266 -0.97371,-0.62684 -1.07784,-0.89818 -0.1455,-0.37918 -0.38444,-0.29823 -1.03239,0.34972 -1.06812,1.06812 -1.56141,1.05357 -2.55085,-0.0752 z m 2.08889,-0.37111 c 0.76648,-0.69366 0.83209,-1.18004 0.15917,-1.18004 -0.26728,0 -0.6836,-0.23813 -0.92514,-0.52917 -0.60053,-0.72359 -0.96801,-0.66395 -1.24275,0.20167 -0.14816,0.46683 -0.01,0.97658 0.38368,1.41111 0.7482,0.82675 0.81375,0.83064 1.62504,0.0964 z m 3.97365,-0.0964 c 0.39325,-0.43453 0.53185,-0.94428 0.38368,-1.41111 -0.27474,-0.86562 -0.64222,-0.92526 -1.24275,-0.20167 -0.24154,0.29104 -0.65785,0.52917 -0.92514,0.52917 -0.6425,0 -0.61338,0.33282 0.0979,1.11875 0.73349,0.8105 0.92464,0.80652 1.68633,-0.0351 z m -3.32851,-2.49472 c 0,-0.51741 -0.23518,-0.70556 -0.88194,-0.70556 -0.96295,0 -1.11624,0.33016 -0.45862,0.98778 0.64918,0.64917 1.34056,0.50362 1.34056,-0.28222 z m 2.39889,0.28222 c 0.65762,-0.65762 0.50433,-0.98778 -0.45861,-0.98778 -0.64676,0 -0.88195,0.18815 -0.88195,0.70556 0,0.78584 0.69138,0.93139 1.34056,0.28222 z m -4.73252,-2.56287 c 0.53753,-0.82037 0.52857,-0.89156 -0.15836,-1.2592 -0.92886,-0.49711 -1.74134,0.10478 -1.74134,1.28999 0,1.13376 1.14886,1.11515 1.8997,-0.0308 z m 1.60257,0.11632 c -0.32207,-0.60179 -0.46532,-0.65498 -0.71257,-0.26458 -0.48143,0.76018 -0.38077,1.01779 0.39771,1.01779 0.62379,0 0.66509,-0.0988 0.31486,-0.75321 z m 3.54788,0.48863 c -0.003,-0.14552 -0.14466,-0.48447 -0.31486,-0.75321 -0.24724,-0.3904 -0.39049,-0.33721 -0.71256,0.26458 -0.35024,0.65442 -0.30894,0.75321 0.31485,0.75321 0.39489,0 0.71554,-0.11906 0.71257,-0.26458 z m 2.47485,-0.57416 c 0,-1.18521 -0.81249,-1.7871 -1.74134,-1.28999 -0.68694,0.36764 -0.69589,0.43883 -0.15837,1.2592 0.75085,1.14594 1.89971,1.16455 1.89971,0.0308 z m -3.88056,-0.79195 c 0,-0.28319 -0.36802,-0.48597 -0.88194,-0.48597 -0.93513,0 -1.1594,0.63976 -0.46701,1.33216 0.4867,0.48669 1.34895,-0.0542 1.34895,-0.84619 z m 0.35278,-1.54431 c 0.42219,-0.78887 0.4618,-0.76435 -1.23472,-0.76435 -1.69652,0 -1.65692,-0.0245 -1.23473,0.76435 0.21855,0.40835 0.73866,0.70556 1.23473,0.70556 0.49606,0 1.01618,-0.29721 1.23472,-0.70556 z m -4.11322,-3.57728 c -0.2108,-0.26382 -0.5955,-1.07891 -0.8549,-1.81134 -0.37577,-1.06103 -0.38488,-1.54498 -0.0448,-2.38125 1.39055,-3.41948 1.36884,-3.0572 0.25296,-4.22193 -1.00384,-1.04778 -1.01736,-1.11141 -0.58267,-2.74251 0.53109,-1.99286 1.00119,-2.58633 1.29958,-1.64065 0.37738,1.19601 0.70869,1.65739 1.78767,2.48947 l 1.05733,0.81538 1.30458,-1.07535 c 0.71753,-0.59144 1.30459,-1.37192 1.30459,-1.7344 0,-1.09578 0.68188,-1.16151 1.08466,-0.10456 0.86016,2.25719 0.82239,2.92 -0.22897,4.01739 -1.08847,1.13612 -1.11085,0.78852 0.26885,4.17642 0.33106,0.81293 0.31886,1.33219 -0.0581,2.47449 -0.26242,0.79512 -0.6748,1.60973 -0.91642,1.81026 -0.45451,0.37721 -0.52137,0.19219 -1.05855,-2.92924 -0.29869,-1.73559 -0.70567,-1.41618 -0.99737,0.78274 -0.31978,2.41064 -1.15943,2.41514 -1.47876,0.008 -0.27739,-2.09107 -0.7298,-2.28328 -1.03794,-0.44097 -0.40752,2.43651 -0.67406,3.04332 -1.1017,2.50813 z m 0.56065,-3.33327 c 0.0278,-0.82522 1.77109,-3.29795 2.31785,-3.28763 0.67313,0.0127 2.03861,2.1443 2.37051,3.70051 0.18351,0.8604 0.47928,1.47437 0.65726,1.36437 0.55301,-0.34178 0.35645,-2.23877 -0.38194,-3.68614 -0.91106,-1.78582 -0.88951,-2.17364 0.17639,-3.175 0.86719,-0.81468 1.07008,-1.56869 0.68919,-2.56127 -0.14307,-0.37282 -0.57498,-0.15292 -1.67554,0.85309 -0.81553,0.74547 -1.64167,1.3554 -1.83587,1.3554 -0.1942,0 -1.02035,-0.60993 -1.83588,-1.3554 -1.10056,-1.00601 -1.53247,-1.22591 -1.67554,-0.85309 -0.38088,0.99258 -0.17799,1.74659 0.68919,2.56127 1.06591,1.00136 1.08745,1.38918 0.17639,3.175 -0.7062,1.38427 -0.92863,3.18711 -0.45202,3.66372 0.29865,0.29865 0.74468,-0.70481 0.78001,-1.75483 z m 2.70479,-1.77067 c -0.16892,-0.4402 -0.34045,-0.50221 -0.61893,-0.22373 -0.25372,0.25372 -0.28935,0.96639 -0.10437,2.08746 l 0.28087,1.70222 0.33806,-1.47849 c 0.18593,-0.81317 0.2329,-1.75253 0.10437,-2.08746 z m -8.500827,4.60117 c -0.19403,-0.0504 -0.79965,-0.19044 -1.34582,-0.31128 -0.77438,-0.17133 -0.96858,-0.39166 -0.88195,-1.0006 0.14918,-1.04849 2.5865,-1.61316 4.156327,-0.96292 0.58853,0.24378 1.07005,0.58272 1.07005,0.75321 0,0.41982 -0.22403,0.39195 -1.34044,-0.16678 -0.993037,-0.49698 -3.245667,-0.17855 -3.245667,0.45881 0,0.51438 2.01862,0.8008 2.778337,0.39421 0.85856,-0.45949 1.10221,-0.47231 1.10221,-0.058 0,0.35587 -1.744817,1.03563 -2.293047,0.89334 z m 14.904857,-0.23464 c -0.53358,-0.18162 -0.97014,-0.47573 -0.97014,-0.65359 0,-0.41397 0.24118,-0.40793 1.05265,0.0264 0.71466,0.38248 2.82791,0.0957 2.82791,-0.38374 0,-0.62442 -2.26525,-0.93342 -3.24568,-0.44275 -1.11641,0.55873 -1.34044,0.5866 -1.34044,0.16678 0,-0.17049 0.48153,-0.50943 1.07005,-0.75321 1.56984,-0.65024 4.00716,-0.0856 4.15633,0.96292 0.0867,0.60917 -0.10727,0.82889 -0.88195,0.99921 -0.54617,0.12008 -1.15179,0.26105 -1.34581,0.31328 -0.19403,0.0522 -0.78934,-0.0536 -1.32292,-0.23525 z m -21.519437,-2.23709 c -0.65412,-0.35486 -0.97014,-0.80993 -0.97014,-1.39698 0,-0.80502 0.12794,-0.87068 1.69646,-0.87068 0.94551,0 1.99959,0.22927 2.38125,0.51795 1.12886,0.85382 1.30898,0.63272 1.14042,-1.39989 -0.13312,-1.60523 -0.0645,-1.93834 0.39729,-1.92906 0.89412,0.018 1.61597,0.76592 2.22615,2.30666 0.751167,1.89677 0.39496,2.50298 -1.15356,1.96317 -1.43915,-0.50169 -1.39635,-0.50591 -1.39635,0.1374 0,1.13738 -2.69175,1.5556 -4.32152,0.67143 z m 2.88142,-0.29579 c 0.85169,-0.47186 0.85185,-0.47315 0.11139,-0.86944 -0.90789,-0.48589 -3.2574,-0.52582 -3.2574,-0.0554 0,0.30127 1.65332,1.39148 2.11667,1.39575 0.097,8.9e-4 0.56022,-0.21103 1.02934,-0.47095 z m 3.90955,-1.10398 c 0,-0.50944 -1.46875,-2.98456 -1.77106,-2.98456 -0.40102,0 -0.45804,1.75576 -0.0756,2.32836 0.37414,0.5602 1.84668,1.08346 1.84668,0.6562 z m 19.138187,1.59056 c -0.43656,-0.17548 -0.79375,-0.56229 -0.79375,-0.85958 0,-0.64622 0.0433,-0.64189 -1.39635,-0.14004 -1.54852,0.53981 -1.90473,-0.0664 -1.15355,-1.96317 0.61018,-1.54074 1.33202,-2.28869 2.22615,-2.30666 0.4618,-0.009 0.5304,0.32383 0.39729,1.92906 -0.16856,2.03261 0.0116,2.25371 1.14042,1.39989 0.38165,-0.28868 1.43574,-0.51795 2.38125,-0.51795 1.56968,0 1.69646,0.0652 1.69646,0.87289 0,1.49599 -2.51505,2.38258 -4.49792,1.58556 z m 2.75155,-0.52723 c 0.57245,-0.29603 1.04081,-0.6929 1.04081,-0.88195 0,-0.47218 -2.34736,-0.43388 -3.25739,0.0532 -0.74047,0.39629 -0.7403,0.39758 0.11138,0.86944 1.06429,0.58966 0.8794,0.59323 2.1052,-0.0406 z m -4.80299,-1.21693 c 0.73514,-0.2795 0.90491,-0.57734 0.90491,-1.5875 0,-1.63249 -0.52187,-1.57539 -1.40394,0.1536 -1.00144,1.96298 -0.98872,1.99954 0.49903,1.4339 z m -25.772817,-1.66289 c -0.76306,-0.14981 -2.2178,-2.72901 -1.78394,-3.16287 0.67964,-0.67965 5.81025,2.31609 5.32137,3.10712 -0.1853,0.29982 -2.13752,0.33059 -3.53743,0.0558 z m 1.86004,-1.10935 c -0.32196,-0.35576 -1.13748,-0.81628 -1.81227,-1.02338 -1.18864,-0.36481 -1.21444,-0.35289 -0.82759,0.38225 0.53442,1.01559 0.98143,1.27614 2.20043,1.28257 0.97154,0.005 0.99438,-0.0282 0.43943,-0.64144 z m 27.849667,1.0536 c -0.48888,-0.79103 4.64172,-3.78677 5.32137,-3.10712 0.12304,0.12305 -0.0551,0.84215 -0.396,1.59801 -0.51526,1.14264 -0.83674,1.41017 -1.90728,1.58721 -1.7988,0.29747 -2.80202,0.27151 -3.01809,-0.0781 z m 3.52979,-0.67675 c 0.21349,-0.14255 0.56785,-0.60064 0.78746,-1.01798 0.38685,-0.73514 0.36105,-0.74706 -0.82759,-0.38225 -0.67479,0.2071 -1.49032,0.66762 -1.81228,1.02338 -0.55494,0.61321 -0.5321,0.64656 0.43944,0.64144 0.56365,-0.003 1.19949,-0.12204 1.41297,-0.26459 z M 93.950673,145.3979 c -0.63987,-0.88331 -1.00175,-1.74567 -0.89389,-2.1301 0.0997,-0.35526 0.27131,-0.96343 0.3814,-1.35149 0.32249,-1.13675 1.0905,-0.81512 1.70181,0.7127 0.63113,1.57735 0.75116,3.71824 0.22664,4.04242 -0.18746,0.11585 -0.82464,-0.45723 -1.41596,-1.27353 z m 0.67614,-2.26999 c -0.40159,-1.02115 -0.41205,-1.02459 -0.77007,-0.25357 -0.28243,0.60821 -0.21614,0.99958 0.29874,1.76389 0.61163,0.90792 0.6699,0.92711 0.77007,0.25357 0.0596,-0.40077 -0.0748,-1.19452 -0.29874,-1.76389 z m 24.243327,3.48904 c -0.76268,-0.76268 0.42014,-5.40619 1.3771,-5.40619 0.26085,0 0.63564,0.58441 0.83287,1.2987 0.30024,1.0874 0.24485,1.48273 -0.34046,2.42978 -0.8361,1.35284 -1.55196,1.99526 -1.86951,1.67771 z m 1.87914,-3.06403 c -0.003,-0.22104 -0.15261,-0.63463 -0.33252,-0.9191 -0.26189,-0.41407 -0.40151,-0.32155 -0.70016,0.46394 -0.20516,0.53963 -0.36775,1.328 -0.36129,1.75193 l 0.0117,0.77079 0.69382,-0.83284 c 0.3816,-0.45805 0.69139,-1.01368 0.68842,-1.23472 z m -34.173617,-1.29827 c -0.6174,-0.59002 -1.02845,-1.22502 -0.91344,-1.41111 0.11501,-0.18609 0.99582,-0.33834 1.95736,-0.33834 1.59381,0 1.81001,0.10129 2.4473,1.14653 0.38448,0.63059 0.69965,1.26559 0.70037,1.41111 7.3e-4,0.14552 -0.68951,0.26458 -1.53386,0.26458 -1.22906,0 -1.75901,-0.21391 -2.65773,-1.07277 z m 3.13458,0.085 c 0,-0.58592 -0.88232,-1.12888 -1.83444,-1.12888 -1.06149,0 -1.23994,0.31228 -0.56445,0.98777 0.47087,0.47087 2.39889,0.58428 2.39889,0.14111 z m 16.352157,0.0176 c -0.39262,-0.53357 -0.81609,-1.38166 -0.94104,-1.88463 -0.20576,-0.82824 -0.60007,-1.01321 -4.18074,-1.96114 -2.174447,-0.57565 -4.003427,-1.19627 -4.064387,-1.37915 -0.061,-0.18289 1.64488,-0.80353 3.790757,-1.37922 2.14588,-0.57569 4.03139,-1.21042 4.19004,-1.41052 0.33468,-0.42213 1.78654,-6.61659 1.78654,-7.6224 0,-0.3734 0.23813,-0.67891 0.52917,-0.67891 0.29104,0 0.52916,0.30551 0.52916,0.67891 0,1.00581 1.45187,7.20027 1.78655,7.6224 0.15864,0.2001 2.04416,0.83483 4.19003,1.41052 2.14588,0.57569 3.85172,1.19633 3.79076,1.37922 -0.061,0.18288 -1.88993,0.8035 -4.06439,1.37915 -3.58066,0.94793 -3.97497,1.1329 -4.18073,1.96114 -0.28166,1.13376 -1.51834,2.85477 -2.05138,2.85477 -0.21807,0 -0.71772,-0.43656 -1.11034,-0.97014 z m 2.58504,-2.25826 c 0.20639,-1.0319 -0.0683,-0.90896 5.58085,-2.49824 l 1.76389,-0.49624 -2.11667,-0.61069 c -1.16416,-0.33588 -2.75166,-0.81132 -3.52777,-1.05653 l -1.41111,-0.44585 -0.87304,-3.50494 c -0.48017,-1.92772 -0.92855,-3.26682 -0.99641,-2.97577 -0.0679,0.29104 -0.46874,1.8678 -0.89085,3.50391 -0.86184,3.34046 -0.34012,2.93095 -5.70637,4.47918 l -2.116667,0.61069 1.763887,0.49624 c 0.97014,0.27293 2.59733,0.73184 3.61597,1.01981 1.28974,0.36459 1.85249,0.70341 1.85341,1.11589 7.2e-4,0.32578 0.33669,1.14247 0.74659,1.81487 l 0.74527,1.22253 0.68661,-0.84793 c 0.37764,-0.46636 0.77472,-1.28848 0.88241,-1.82693 z m 14.93078,2.96382 c 7.3e-4,-0.14552 0.31589,-0.78052 0.70037,-1.41111 0.6373,-1.04524 0.8535,-1.14653 2.44731,-1.14653 0.96154,0 1.84235,0.15225 1.95736,0.33834 0.11501,0.18609 -0.29604,0.82109 -0.91345,1.41111 -0.89871,0.85886 -1.42867,1.07277 -2.65773,1.07277 -0.84435,0 -1.53458,-0.11906 -1.53386,-0.26458 z m 3.45591,-0.86431 c 0.67549,-0.67549 0.49704,-0.98777 -0.56445,-0.98777 -0.95213,0 -1.83444,0.54296 -1.83444,1.12888 0,0.44317 1.92802,0.32976 2.39889,-0.14111 z m -35.542957,-0.43104 c -0.80005,-1.2945 -0.71332,-2.81888 0.17989,-3.16163 0.63408,-0.24332 0.73374,-0.0367 1.02533,2.12588 0.30328,2.24933 -0.19208,2.67504 -1.20522,1.03575 z m 0.3788,-1.50041 c -0.30746,-0.52874 -0.3763,-0.54398 -0.38511,-0.0853 -0.0114,0.59411 0.35954,1.12903 0.60957,0.87901 0.0825,-0.0825 -0.0185,-0.43965 -0.22446,-0.79375 z m 29.766017,2.35375 c -0.209,-0.33816 0.1117,-3.43216 0.40966,-3.95231 0.28098,-0.49051 1.11889,0.14015 1.33612,1.00564 0.14808,0.59002 -0.026,1.28194 -0.5261,2.09114 -0.81695,1.32185 -0.89685,1.37789 -1.21968,0.85553 z m 1.22996,-2.40103 c -0.005,-0.5141 -0.0527,-0.52341 -0.34738,-0.0674 -0.44647,0.69087 -0.44647,1.15788 0,0.88195 0.19403,-0.11992 0.35035,-0.48648 0.34738,-0.81457 z m -36.247657,-0.86146 c -1.49223,-0.47847 -2.90527,-1.79986 -2.90527,-2.71685 0,-0.86632 0.12722,-0.87663 2.18106,-0.17682 1.54894,0.52778 2.40505,1.53245 2.40505,2.82241 0,0.57951 -0.0846,0.58309 -1.68084,0.0713 z m 0.62251,-1.1642 c 0,-0.30094 -0.55053,-0.77719 -1.2234,-1.05833 -1.50595,-0.62923 -1.59883,-0.63074 -1.59883,-0.0261 0,0.2668 0.51594,0.73944 1.14653,1.0503 1.44044,0.71008 1.6757,0.71487 1.6757,0.0341 z m 2.01633,0.58093 c -1.0832,-1.83372 -0.66102,-4.61987 0.70005,-4.61987 0.33808,0 0.45862,0.74174 0.45862,2.82222 0,1.55222 -0.12453,2.82222 -0.27672,2.82222 -0.1522,0 -0.54907,-0.46105 -0.88195,-1.02457 z m 0.42279,-2.23862 c -0.0281,-1.38967 -0.0522,-1.42618 -0.33025,-0.49932 -0.26827,0.89443 -0.14566,1.99863 0.22192,1.99863 0.0763,0 0.125,-0.67469 0.10833,-1.49931 z m 34.249757,0.44097 c 0,-2.86661 0.3129,-3.42654 1.34056,-2.39889 0.91293,0.91294 0.0351,5.22111 -1.06384,5.22111 -0.1522,0 -0.27672,-1.27 -0.27672,-2.82222 z m 1.07368,-0.91205 c -0.28387,-0.94926 -0.30898,-0.90631 -0.32707,0.55927 -0.014,1.13552 0.0735,1.42827 0.30748,1.02823 0.19287,-0.32981 0.20091,-0.98115 0.0196,-1.5875 z m 1.04299,3.24548 c 0,-1.36353 0.84551,-2.32321 2.5438,-2.88729 1.98108,-0.65801 2.30842,-0.51737 1.84341,0.79202 -0.48153,1.35588 -4.38721,3.22118 -4.38721,2.09527 z m 2.68071,-1.1389 c 0.65991,-0.31315 1.19984,-0.7894 1.19984,-1.05834 0,-0.60884 -0.0916,-0.60757 -1.59883,0.0222 -0.67286,0.28114 -1.22339,0.75739 -1.22339,1.05833 0,0.68362 0.139,0.68172 1.62238,-0.0222 z m -36.589917,-4.49231 c -1.67264,-1.21273 -3.33351,-2.49732 -3.69083,-2.85464 -0.63105,-0.63105 -0.56819,-0.64496 2.19224,-0.48516 2.54179,0.14714 3.01913,0.2921 4.51986,1.37258 0.92286,0.66443 2.56501,1.4563 3.64922,1.75972 1.08422,0.30341 2.024777,0.71209 2.090147,0.90818 0.0918,0.2753 -4.753117,1.60325 -5.551157,1.52153 -0.0926,-0.009 -1.53685,-1.00947 -3.20948,-2.22221 z m 6.67846,0.85085 c 0.2929,-0.15892 -0.0865,-0.41526 -1.03549,-0.69958 -0.82379,-0.24681 -2.2056,-0.98919 -3.07068,-1.64973 -1.31016,-1.00038 -1.8708,-1.20098 -3.35659,-1.20098 -2.02919,0 -2.05804,-0.0462 1.52439,2.43864 2.42546,1.68231 2.75208,1.81081 4.05695,1.59604 0.78051,-0.12846 1.62715,-0.34644 1.88142,-0.48439 z m 16.901007,0.75938 c -1.31572,-0.29678 -2.33774,-0.70306 -2.27115,-0.90284 0.0666,-0.19978 1.00816,-0.61148 2.09238,-0.91489 1.08421,-0.30342 2.72637,-1.09529 3.64923,-1.75972 1.49872,-1.07904 1.97978,-1.22554 4.50416,-1.37167 2.80269,-0.16225 2.82059,-0.15785 2.1497,0.52766 -1.17144,1.19697 -6.76177,5.05274 -7.25782,5.00587 -0.26084,-0.0247 -1.55077,-0.28763 -2.8665,-0.58441 z m 5.7765,-1.88849 c 3.55427,-2.46497 3.52715,-2.42118 1.49952,-2.42118 -1.48578,0 -2.04642,0.2006 -3.35659,1.20098 -0.86508,0.66054 -2.23831,1.40035 -3.05161,1.64402 -1.66161,0.49783 -1.66059,0.64535 0.007,1.04034 1.98099,0.46916 2.21428,0.39947 4.90147,-1.46416 z m -35.223407,1.10807 c -0.58477,-0.35562 -1.31988,-1.013 -1.63356,-1.46085 -0.71146,-1.01576 -0.75967,-2.77396 -0.076,-2.77396 0.70155,0 3.73904,3.16901 3.73904,3.90094 0,0.91888 -0.84017,1.05711 -2.02943,0.33387 z m 1.32387,-0.51836 c 0,-0.32686 -2.19784,-2.65811 -2.50599,-2.65811 -0.64118,0 -0.28876,1.11748 0.61723,1.95712 0.82412,0.76377 1.88876,1.1589 1.88876,0.70099 z m 38.893747,0.96825 c -0.85388,-0.30475 -0.42394,-1.41072 1.18141,-3.03907 1.88467,-1.91168 2.61095,-2.08827 2.61095,-0.63487 0,1.68438 -2.52178,4.12742 -3.79236,3.67394 z m 2.15335,-1.66924 c 0.90598,-0.83964 1.25841,-1.95712 0.61722,-1.95712 -0.30814,0 -2.50599,2.33125 -2.50599,2.65811 0,0.45791 1.06465,0.0628 1.88877,-0.70099 z m -28.692277,-0.0287 c -3.00607,-0.73416 -3.45144,-0.95 -4.40972,-2.13715 -1.0331,-1.27985 -3.15932,-7.06385 -2.70054,-7.34634 0.12293,-0.0757 2.26919,1.34162 4.76948,3.14957 3.529907,2.55247 4.770447,3.66844 5.550237,4.99289 1.54108,2.6175 1.71671,2.54412 -3.209457,1.34103 z m 2.814617,-0.32429 c 0,-0.97814 -1.52785,-2.55458 -4.879227,-5.03438 -2.20562,-1.63202 -4.07896,-2.89856 -4.16299,-2.81454 -0.084,0.084 0.23563,1.22278 0.71033,2.53057 1.15501,3.18203 2.23424,4.25002 4.93857,4.88711 2.329857,0.54888 3.393317,0.68403 3.393317,0.43124 z m 7.41435,0.95354 c 0.003,-0.14552 0.45793,-1.03215 1.01027,-1.97028 0.77978,-1.32445 2.02033,-2.44042 5.55023,-4.99289 2.50029,-1.80795 4.64806,-3.22433 4.77282,-3.14751 0.46169,0.28431 -1.66579,6.07544 -2.69906,7.34697 -0.96874,1.19213 -1.37835,1.38078 -4.70535,2.16705 -4.14319,0.97916 -3.93689,0.94783 -3.92891,0.59666 z m 4.4994,-1.35274 c 3.04771,-0.68827 4.04023,-1.62044 5.2376,-4.91915 0.4747,-1.30779 0.79431,-2.44658 0.71024,-2.53065 -0.31963,-0.31963 -8.2135,5.87054 -8.61778,6.75784 -0.68685,1.50746 -0.80529,1.47676 2.66994,0.69196 z m -26.208047,0.53752 c -0.1287,-0.40549 -0.1507,-0.82057 -0.0489,-0.92239 0.29432,-0.29433 0.93762,0.23223 0.93762,0.76747 0,0.82406 -0.64092,0.93578 -0.88875,0.15492 z m 36.686157,0.26234 c -0.14578,-0.35871 -0.0871,-0.8145 0.1332,-1.03482 0.59518,-0.59518 0.9186,-0.0247 0.49823,0.87876 -0.34031,0.73142 -0.39236,0.74428 -0.63143,0.15606 z m -36.389147,-3.99375 c -0.69965,-0.28534 0.13981,-2.00521 1.30269,-2.66891 l 1.05294,-0.60095 v 1.32414 c 0,1.83498 -0.8684,2.55227 -2.35563,1.94572 z m 1.65715,-1.01815 c 0.24543,-0.29573 0.35109,-0.63284 0.2348,-0.74914 -0.36126,-0.36126 -1.30021,0.17789 -1.30021,0.74659 0,0.69096 0.4931,0.69214 1.06541,0.003 z m 33.224587,0.81992 c -0.23283,-0.23284 -0.42333,-1.0192 -0.42333,-1.74749 v -1.32414 l 1.05294,0.60095 c 1.26855,0.72401 1.99634,2.37861 1.18347,2.69054 -0.80981,0.31075 -1.34769,0.24553 -1.81308,-0.21986 z m 1.34055,-0.82247 c 0,-0.5687 -0.93894,-1.10785 -1.3002,-0.74659 -0.25126,0.25126 0.54594,1.28683 0.99062,1.28683 0.17027,0 0.30958,-0.2431 0.30958,-0.54024 z m -39.448937,0.0993 c -1.08947,-0.74381 -1.15341,-0.89967 -1.01621,-2.4772 0.0805,-0.9259 0.25113,-1.78817 0.37912,-1.91616 0.128,-0.128 0.78596,0.30351 1.46216,0.9589 1.02904,0.99739 1.22943,1.4391 1.22943,2.70991 0,1.75932 -0.35531,1.88463 -2.0545,0.72455 z m 0.75423,-2.53837 c -0.86989,-1.19479 -1.16917,-1.12043 -1.16917,0.29048 0,0.84324 0.23209,1.34702 0.79375,1.72292 0.74557,0.49899 0.80048,0.48068 0.90459,-0.30156 0.061,-0.45804 -0.17717,-1.22836 -0.52917,-1.71184 z m 40.458597,1.81382 c 0,-1.27081 0.2004,-1.71252 1.22944,-2.70991 0.67619,-0.65539 1.33416,-1.0869 1.46215,-0.9589 0.12799,0.12799 0.30042,0.99026 0.38317,1.91616 0.14208,1.58982 0.0841,1.7276 -1.04301,2.4772 -1.71404,1.13998 -2.03175,1.02668 -2.03175,-0.72455 z m 2.46945,-1.52088 c 0,-0.65678 -0.0936,-1.19415 -0.20804,-1.19415 -0.52041,0 -1.53353,1.68344 -1.54411,2.56577 -0.0116,0.96285 0.002,0.96916 0.8702,0.4004 0.65324,-0.42802 0.88195,-0.88755 0.88195,-1.77202 z m -30.676947,-0.75378 c -1.46846,-1.03952 -2.01023,-1.69956 -2.5332,-3.08621 -1.01136,-2.68159 -0.74563,-2.94722 1.31653,-1.31601 1.34803,1.06631 1.99819,1.91774 2.60376,3.40975 0.443897,1.09371 0.733687,2.06197 0.643977,2.15168 -0.0897,0.0897 -1.003687,-0.43193 -2.031067,-1.15921 z m 0.38299,-1.76341 c -0.69447,-1.36127 -2.51438,-2.95027 -2.51438,-2.19535 0,0.76813 1.06716,2.40763 2.01795,3.10024 0.53866,0.39238 1.03043,0.66237 1.09283,0.59997 0.0624,-0.0624 -0.20598,-0.73958 -0.5964,-1.50486 z m 14.771737,2.78478 c 0,-0.21081 0.37883,-1.23989 0.84184,-2.28685 0.58932,-1.33257 1.34665,-2.289 2.52475,-3.18855 0.9256,-0.70675 1.76335,-1.20455 1.86167,-1.10623 0.0983,0.0983 -0.12501,1.07428 -0.49628,2.1688 -0.65981,1.94514 -1.21382,2.56069 -3.76185,4.1797 -0.55519,0.35277 -0.97013,0.45248 -0.97013,0.23313 z m 3.70949,-3.5887 c 0.78921,-1.52617 0.63358,-1.89071 -0.4463,-1.04537 -0.89017,0.69684 -2.15465,2.59323 -2.19007,3.28454 -0.0296,0.57772 2.12682,-1.25382 2.63637,-2.23917 z m -29.758287,1.31341 c -0.24154,-0.29105 -0.58871,-1.05058 -0.77148,-1.68785 -0.5927,-2.06664 0.85553,-5.12359 1.55892,-3.29058 0.28906,0.75326 0.22676,4.04638 -0.0919,4.85604 -0.22494,0.57161 -0.31029,0.58663 -0.69558,0.12239 z m 0.34859,-2.58873 c -0.0825,-1.32663 -0.22797,-1.82765 -0.43557,-1.49978 -0.17146,0.27078 -0.31418,0.75981 -0.31715,1.08673 -0.005,0.57934 0.58621,2.40374 0.77961,2.4047 0.0533,2.6e-4 0.0412,-0.89598 -0.0269,-1.99165 z m 16.321927,2.47044 c 0.18999,-0.49511 0.14041,-0.51118 -0.34192,-0.11088 -0.47119,0.39104 -0.61694,0.38473 -0.88462,-0.0383 -0.42836,-0.67695 -0.41091,-1.18049 0.0781,-2.25377 0.50445,-1.10715 0.8564,-1.13381 1.38336,-0.1048 0.22356,0.43657 0.73018,1.05125 1.12581,1.36597 0.94332,0.75041 0.57553,1.72084 -0.65219,1.72084 -0.71805,0 -0.87998,-0.13233 -0.70855,-0.57906 z m -0.0534,-1.04293 c 0.31801,-0.31801 -0.11987,-1.22544 -0.48303,-1.001 -0.17369,0.10735 -0.31581,0.42394 -0.31581,0.70353 0,0.5195 0.4203,0.67601 0.79884,0.29747 z m 3.89752,1.04768 c -0.13568,-0.35357 0.0561,-0.79424 0.49895,-1.14653 0.39563,-0.31472 0.90225,-0.9294 1.12581,-1.36597 0.52696,-1.02901 0.87892,-1.00235 1.38337,0.1048 0.48901,1.07328 0.50646,1.57682 0.0781,2.25377 -0.26769,0.42303 -0.41344,0.42934 -0.88462,0.0383 -0.48233,-0.4003 -0.53191,-0.38423 -0.34192,0.11088 0.17142,0.44673 0.01,0.57906 -0.70855,0.57906 -0.53443,0 -1.02461,-0.24455 -1.15115,-0.57431 z m 2.71197,-1.34515 c 0,-0.27959 -0.14211,-0.59618 -0.31581,-0.70353 -0.36315,-0.22444 -0.80103,0.68299 -0.48303,1.001 0.37854,0.37854 0.79884,0.22203 0.79884,-0.29747 z m 15.04097,1.13315 c -0.27868,-1.0401 -0.285,-3.93668 -0.0102,-4.65289 0.73887,-1.92547 2.23168,1.43269 1.55215,3.49166 -0.54845,1.66182 -1.26357,2.20036 -1.54198,1.16123 z m 1.03056,-1.84282 c 0.12313,-0.65629 0.0663,-1.47473 -0.12617,-1.81874 -0.27152,-0.48516 -0.37802,-0.18251 -0.47478,1.34916 -0.13439,2.12741 0.23569,2.4166 0.60095,0.46958 z"
       id="path1" /></g></svg>
