<?xml version="1.0" encoding="UTF-8" standalone="no"?>
<!-- Created with Inkscape (http://www.inkscape.org/) -->

<svg
   width="210mm"
   height="297mm"
   viewBox="0 0 210 297"
   version="1.1"
   id="svg1"
   xml:space="preserve"
   inkscape:version="1.4.2 (f4327f4, 2025-05-13)"
   sodipodi:docname="1st Fleet (4).svg"
   xmlns:inkscape="http://www.inkscape.org/namespaces/inkscape"
   xmlns:sodipodi="http://sodipodi.sourceforge.net/DTD/sodipodi-0.dtd"
   xmlns="http://www.w3.org/2000/svg"
   xmlns:svg="http://www.w3.org/2000/svg"><sodipodi:namedview
     id="namedview1"
     pagecolor="#505050"
     bordercolor="#eeeeee"
     borderopacity="1"
     inkscape:showpageshadow="0"
     inkscape:pageopacity="0"
     inkscape:pagecheckerboard="0"
     inkscape:deskcolor="#505050"
     inkscape:document-units="mm"
     inkscape:zoom="2.2299458"
     inkscape:cx="423.32868"
     inkscape:cy="507.85989"
     inkscape:window-width="1920"
     inkscape:window-height="1129"
     inkscape:window-x="-8"
     inkscape:window-y="-8"
     inkscape:window-maximized="1"
     inkscape:current-layer="layer1" /><defs
     id="defs1" /><g
     inkscape:label="Layer 1"
     inkscape:groupmode="layer"
     id="layer1"><path
       style="fill:#000000"
       d="m 118.58989,160.54162 c 1.27183,-0.45388 2.61562,-1.35571 4.4972,-3.01812 1.05512,-0.93222 2.29937,-1.58817 3.60707,-1.90159 l 0.96123,-0.23038 -1.0427,1.54498 c -1.89049,2.80118 -4.24791,4.1167 -7.33456,4.09295 l -2.01187,-0.0155 z m 4.70886,-1.20892 c 0.75671,-0.55368 1.69334,-1.37435 2.0814,-1.82371 0.61529,-0.7125 0.62645,-0.78817 0.0872,-0.59151 -0.6425,0.23432 -4.49695,3.05247 -4.49695,3.2879 0,0.4256 1.13574,-9e-5 2.32832,-0.87268 z m -18.54297,1.05929 -1.92714,-0.22899 1.4835,-1.26628 c 2.51291,-2.14496 6.70407,-2.9709 9.77864,-1.92706 0.9328,0.3167 2.42576,0.68229 3.31769,0.81243 l 1.62168,0.23662 -1.76389,0.23178 c -0.97014,0.12748 -2.63701,0.65476 -3.70417,1.17173 -2.12017,1.02709 -5.33999,1.38167 -8.80631,0.96977 z m 7.91804,-1.37599 c 0.77959,-0.30063 1.56235,-0.67558 1.73947,-0.83322 0.60746,-0.54067 -1.72038,-1.08645 -3.91534,-0.91798 -2.09671,0.16092 -5.40252,1.40025 -5.40252,2.02537 0,0.81901 5.23469,0.62963 7.57839,-0.27417 z m 4.76883,-2.5396 c -0.48507,-0.17548 -1.82484,-0.58191 -2.97727,-0.90316 l -2.09532,-0.5841 1.56616,-0.954 c 2.7467,-1.67312 6.67196,-2.55548 11.4529,-2.5745 2.3234,-0.009 4.70061,0.14542 5.28269,0.3437 0.77662,0.26455 0.86867,0.36858 0.3458,0.39084 -0.3919,0.0167 -1.58252,0.50719 -2.64583,1.09003 -5.69579,3.1221 -8.69745,3.99855 -10.92913,3.19119 z m 4.35543,-0.90656 c 2.20197,-0.64941 6.31815,-2.73314 6.50473,-3.2929 0.17564,-0.52691 -4.31021,-0.54395 -7.1794,-0.0273 -2.38829,0.43008 -6.07376,1.6834 -6.37276,2.16719 -0.29028,0.46968 -0.0584,0.61124 1.85658,1.13337 2.34404,0.63913 3.08077,0.64191 5.19085,0.0196 z m 10.3523,-4.57742 c -1.82912,-0.62882 -3.42623,-1.72322 -5.18273,-3.55137 -0.99591,-1.03653 -1.42317,-1.71279 -1.14653,-1.81469 1.00852,-0.3715 0.27496,-1.10233 -2.5253,-2.51593 -3.2358,-1.63345 -7.57068,-5.27321 -7.12983,-5.98652 0.14298,-0.23135 0.5681,-0.42063 0.9447,-0.42063 0.3766,0 0.68474,-0.23813 0.68474,-0.52917 0,-0.29104 -0.23492,-0.52917 -0.52203,-0.52917 -0.99668,0 -3.35853,-1.13761 -3.35853,-1.61767 0,-0.2655 -0.36515,-0.72199 -0.81145,-1.01441 -0.87272,-0.57183 -2.51617,-2.62456 -2.28575,-2.85498 0.077,-0.077 1.1625,0.028 2.41232,0.23329 5.14018,0.84421 9.15155,1.19105 9.15155,0.79126 0,-0.17917 -0.79375,-0.91836 -1.76389,-1.64264 -0.97014,-0.72427 -1.76389,-1.47253 -1.76389,-1.6628 0,-0.19027 0.635,-0.34594 1.41111,-0.34594 1.01351,0 1.41111,-0.14777 1.41111,-0.52445 0,-0.70555 -1.83708,-3.3259 -2.34351,-3.34271 -0.52373,-0.0174 -0.89679,-0.98973 -0.47883,-1.24804 0.17701,-0.1094 0.88099,0.0347 1.56439,0.32026 1.39011,0.58083 1.8513,0.25918 1.2471,-0.86978 -0.70533,-1.31792 -0.19112,-1.81713 1.59573,-1.54917 1.64815,0.24715 2.04132,-0.0864 1.06095,-0.9 -0.29104,-0.24154 -0.52916,-0.63644 -0.52916,-0.87756 0,-0.24112 -0.3203,-0.84558 -0.71177,-1.34326 -0.42747,-0.54344 -0.57052,-0.99215 -0.35815,-1.12341 0.65725,-0.40619 8.95796,4.05363 11.4724,6.16392 1.03032,0.86471 2.71954,2.55874 4.34271,4.35507 1.63553,1.81001 2.96084,4.96946 3.04063,7.24865 0.0329,0.9391 1.67778,2.37922 2.28729,2.00253 0.45236,-0.27958 0.52825,-1.60927 0.0919,-1.60927 -0.16289,0 -0.48743,-0.41981 -0.72122,-0.93291 l -0.42506,-0.93292 1.95594,0.20187 c 1.24261,0.12825 1.95593,0.0687 1.95593,-0.16316 0,-0.20077 0.21878,-0.28108 0.48618,-0.17847 0.2674,0.10261 0.66219,0.0106 0.87732,-0.20457 0.28633,-0.28633 0.49415,-0.0956 0.77557,0.71168 0.24096,0.69121 0.56122,1.03498 0.85808,0.92106 0.49188,-0.18875 2.29452,0.81263 2.29452,1.27463 0,0.14481 -0.40036,0.18675 -0.88969,0.0932 -2.14383,-0.40982 -4.59697,2.71964 -6.84691,8.73458 -0.39918,1.06715 -1.35581,2.67295 -2.12584,3.56843 -2.38081,2.76867 -7.33212,4.58303 -10.00205,3.66516 z m 2.79988,-3.56357 c 0.7513,-0.30982 2.23912,-1.20843 3.30628,-1.99691 1.06715,-0.78848 1.96024,-1.4478 1.98464,-1.46516 0.0244,-0.0174 0.15417,-0.38875 0.28836,-0.82531 0.22998,-0.74819 0.14498,-0.79375 -1.48083,-0.79375 -4.67429,0 -9.87329,-3.46508 -12.2888,-8.19036 -0.46783,-0.91518 -0.8506,-1.73889 -0.8506,-1.83046 0,-0.0916 0.67469,-0.26413 1.49931,-0.38345 3.37571,-0.48845 8.64206,1.2694 13.92224,4.64709 2.27303,1.45404 5.39234,2.07559 5.39234,1.07448 0,-0.3829 -0.34204,-0.52944 -1.18034,-0.50567 -0.72181,0.0205 -1.56258,-0.2672 -2.16425,-0.74048 -0.54114,-0.42566 -1.12635,-0.77393 -1.30047,-0.77393 -0.17412,0 -1.39762,-0.71219 -2.71888,-1.58264 -1.81853,-1.19805 -2.5648,-1.943 -3.07101,-3.06559 -0.3678,-0.81563 -1.45784,-2.27208 -2.42232,-3.23655 -1.67936,-1.67936 -1.70941,-1.74279 -0.70996,-1.49837 1.26288,0.30885 4.27233,1.73083 5.36515,2.53507 0.73476,0.54073 0.79375,0.54104 0.79375,0.004 0,-0.77241 -2.74879,-2.48119 -4.84492,-3.01182 -4.36217,-1.1043 -5.36844,-1.53305 -7.13297,-3.03922 -1.35689,-1.15822 -2.13835,-1.56894 -2.98517,-1.56894 -0.63092,0 -1.24853,0.10141 -1.37247,0.22535 -0.23778,0.23778 0.643,1.38946 3.06523,4.00799 2.36298,2.55447 3.7453,4.35802 3.7453,4.88656 0,0.38072 -0.43638,0.45628 -1.92307,0.333 -1.53991,-0.1277 -2.25434,-0.41757 -3.58567,-1.4548 -1.15619,-0.90078 -2.02105,-1.29532 -2.83943,-1.29532 -1.72438,0 -1.47165,0.72801 0.74058,2.13334 1.59686,1.01442 2.04967,1.54242 2.70849,3.15833 0.43509,1.06715 1.31116,2.76531 1.94682,3.7737 l 1.15575,1.83342 -1.6318,0.10685 c -0.89749,0.0588 -1.68877,0.28024 -1.7584,0.49214 -0.0696,0.21191 0.75139,1.23865 1.82451,2.28164 1.07311,1.043 1.95111,2.02056 1.95111,2.17236 0,0.1518 -0.41386,0.276 -0.91969,0.276 -0.70441,0 -0.86814,0.13433 -0.69947,0.57388 0.12112,0.31563 0.0568,0.77082 -0.14299,1.01153 -0.25801,0.31088 -0.19425,0.57893 0.22013,0.92542 1.57817,1.31963 5.84147,1.74336 8.11352,0.80641 z m -2.69095,-2.93972 c -1.60844,-0.32161 -2.57873,-0.86494 -4.26454,-2.38796 -1.82892,-1.65232 -1.76793,-2.00536 0.29579,-1.71213 1.71772,0.24408 8.88519,3.00548 8.89962,3.42875 0.007,0.19321 -3.39246,1.09217 -3.62531,0.95881 -0.039,-0.0223 -0.62646,-0.15167 -1.30556,-0.28747 z m 0.97444,-13.14801 c -0.89674,-0.23826 -1.88649,-0.97169 -3.09357,-2.29242 -2.93158,-3.20762 -3.05452,-3.96266 -0.42445,-2.60678 1.80259,0.92929 4.21853,3.06885 4.85495,4.29954 0.57592,1.1137 0.58406,1.11005 -1.33693,0.59966 z m -9.98791,6.80779 c -0.71112,-0.67531 -3.72837,-1.45727 -4.32804,-1.12168 -0.51931,0.29063 -0.48335,0.37271 0.28874,0.65892 0.48507,0.17981 1.12007,0.41657 1.41111,0.52612 0.89118,0.33546 2.99476,0.28474 2.62819,-0.0634 z m -5.09541,11.91662 c 0.001,-0.26723 0.51717,-0.79993 1.14653,-1.18378 3.99266,-2.43516 4.45307,-2.46983 6.54799,-0.49302 0.83772,0.79049 1.47165,1.48874 1.40873,1.55166 -0.0629,0.0629 -2.13739,0.22614 -4.60994,0.3627 -3.70347,0.20456 -4.49514,0.1627 -4.49331,-0.23756 z m 7.17125,-1.01619 c 0.3283,-0.30114 -1.07771,-1.40995 -1.78787,-1.40995 -0.64807,0 -3.60044,1.5313 -3.61203,1.87344 -0.0118,0.34674 4.98409,-0.0821 5.3999,-0.46349 z m -12.28795,-0.35291 c 0.12035,-0.19474 0.59754,-0.25903 1.06041,-0.14285 0.87361,0.21926 3.34851,-0.42429 3.34851,-0.87071 0,-0.14002 -0.59531,-0.19584 -1.32292,-0.12404 -1.30851,0.12912 -1.31312,0.12514 -0.42356,-0.36597 1.38029,-0.76203 3.41916,-1.00556 3.63827,-0.43457 0.2068,0.53892 -0.16301,0.89483 -1.78608,1.71895 -1.23977,0.6295 -4.87737,0.8061 -4.51463,0.21919 z m 3.1742,-5.31631 c -2.7182,-0.25982 -3.55683,-0.62857 -6.33766,-2.78671 -1.25685,-0.97541 -2.49751,-1.77347 -2.75703,-1.77347 -0.25952,0 -0.78,-0.24894 -1.15664,-0.5532 -0.66121,-0.53415 -0.65442,-0.54709 0.19716,-0.3757 0.48507,0.0976 2.07257,0.28035 3.52778,0.40605 3.66206,0.31634 4.55901,0.65246 8.14899,3.05376 1.72694,1.15513 3.1399,2.1334 3.1399,2.17394 0,0.13829 -2.64177,0.058 -4.7625,-0.14467 z m 2.99861,-0.67962 c 0,-0.19403 -0.19844,-0.35316 -0.44098,-0.35362 -0.24253,-4.6e-4 -1.36874,-0.63108 -2.50269,-1.40136 -1.13395,-0.77029 -2.5627,-1.47571 -3.175,-1.56761 -2.98736,-0.44834 -3.75911,-0.48826 -3.75911,-0.19444 0,0.48371 3.69431,3.17097 4.82634,3.5107 1.41451,0.42451 5.05144,0.42907 5.05144,0.006 z m -10.23056,-10.75972 c -0.24154,-0.29105 -0.63237,-0.52917 -0.86851,-0.52917 -0.55577,0 -1.33033,-1.67146 -0.8983,-1.93847 0.17779,-0.10988 0.74251,-0.0946 1.25494,0.0341 0.62265,0.15627 0.78697,0.32328 0.4954,0.50348 -0.32698,0.20208 -0.24098,0.54395 0.34328,1.36445 0.77849,1.0933 0.50457,1.5674 -0.32681,0.56565 z m 38.055,-1.14653 c -0.43881,-0.55953 -0.42633,-0.57201 0.1332,-0.1332 0.58764,0.46086 0.77451,0.75056 0.48416,0.75056 -0.0733,0 -0.35106,-0.27781 -0.61736,-0.61736 z m -2.05331,-0.59524 c -0.29397,-0.35422 -0.22144,-0.50814 0.3042,-0.6456 0.3882,-0.10152 0.76762,0.0212 0.86711,0.28049 0.24546,0.63966 -0.6991,0.93409 -1.17131,0.36511 z"
       id="path1" /></g></svg>
